<svg width="179" height="284" viewBox="0 0 179 284" fill="none" xmlns="http://www.w3.org/2000/svg">
<path d="M75.1782 142.807C74.4878 142.929 73.4787 144.153 73.4812 144.856C73.5094 145.799 74.1884 147.158 74.9883 147.606C76.0331 148.146 77.2253 148.389 78.4391 148.636C78.8959 148.729 79.3558 148.823 79.812 148.933C79.8962 148.815 79.9877 148.708 80.0792 148.602C80.1709 148.495 80.263 148.388 80.3474 148.269C80.1308 147.812 79.9347 147.341 79.7397 146.873C79.2857 145.782 78.8378 144.707 78.1518 143.847C77.6277 143.03 76.1537 142.63 75.1782 142.807Z" fill="#EA6A82"/>
<path d="M-1.33675 159.268C-1.66641 158.454 -1.4444 156.902 -0.863617 156.209C-0.389915 155.649 1.276 155.35 1.91405 155.645C2.71396 156.093 3.51292 157.439 3.46657 158.366C3.38846 159.43 3.05639 160.491 2.66005 161.756C2.45578 162.408 2.23433 163.115 2.0219 163.905C1.53607 163.248 1.07573 162.676 0.652363 162.15C-0.184698 161.11 -0.877266 160.25 -1.33675 159.268Z" fill="#EA6A82"/>
<path d="M21.5755 141.946C21.0692 142.655 21.1616 144.198 21.5949 145.073C22.1048 146.015 22.8832 146.784 23.6617 147.553C23.9448 147.833 24.2278 148.113 24.498 148.401C24.7669 148.421 25.04 148.422 25.313 148.423C25.586 148.424 25.859 148.425 26.1279 148.445C26.1474 148.021 26.182 147.592 26.2167 147.162C26.3118 145.983 26.4079 144.791 26.1978 143.659C26.0206 142.683 25.2962 141.354 24.4637 141.055C23.722 140.698 22.0818 141.237 21.5755 141.946Z" fill="#EA6A82"/>
<path d="M45.5291 126.647C46.3684 126.558 47.7156 127.359 48.2397 128.177C48.8004 129.051 49.1172 130.112 49.5147 131.443C49.6951 132.048 49.8922 132.708 50.1362 133.431C49.3953 133.184 48.7239 132.986 48.1113 132.806C46.7688 132.41 45.708 132.097 44.8142 131.527C44.0597 131.05 43.2316 129.659 43.3362 128.823C43.4862 127.958 44.6443 126.766 45.5291 126.647Z" fill="#EA6A82"/>
<path d="M47.322 162.21C47.0521 163.088 47.3389 164.634 47.9863 165.244C48.7707 165.995 49.7428 166.538 50.7241 167.086C51.1966 167.35 51.6712 167.615 52.128 167.906C52.2415 167.833 52.3591 167.741 52.4766 167.65C52.5942 167.558 52.7117 167.467 52.8252 167.394C52.7811 166.982 52.7517 166.565 52.7223 166.147C52.6406 164.986 52.5587 163.823 52.1594 162.76C51.846 161.872 50.6513 160.908 49.7863 160.758C49.0249 160.67 47.5593 161.481 47.322 162.21Z" fill="#EA6A82"/>
<path d="M65.9337 114.906C65.7822 114.171 66.6457 112.72 67.3686 112.448C68.2569 112.135 69.7925 112.432 70.3946 113.071C71.2345 113.887 71.818 114.9 72.4055 115.92C72.6512 116.346 72.8979 116.774 73.164 117.189C73.0796 117.307 72.9911 117.444 72.9027 117.581C72.8142 117.718 72.7258 117.854 72.6414 117.973C72.1311 117.886 71.6187 117.828 71.1103 117.77C70.0437 117.649 68.9943 117.529 68.0182 117.157C67.1566 116.813 66.0981 115.762 65.9337 114.906Z" fill="#EA6A82"/>
<path d="M76.4487 169.863C75.7746 169.911 74.6585 171.267 74.6447 172.045C74.6437 172.942 75.4427 174.288 76.2426 174.736C77.1485 175.199 78.1965 175.423 79.4938 175.701C80.1074 175.832 80.7768 175.975 81.5133 176.161C81.2405 175.445 81.0277 174.791 80.8343 174.197C80.4298 172.954 80.1105 171.973 79.5062 171.233C78.9076 170.4 77.4371 169.805 76.4487 169.863Z" fill="#EA6A82"/>
<path d="M44.3267 193.604C43.8317 192.832 43.963 191.338 44.4273 190.464C44.7228 189.826 46.2432 189.299 46.9103 189.64C47.7719 189.984 48.8142 191.11 48.9331 191.995C49.0776 193.036 48.9098 194.099 48.7414 195.166C48.6623 195.667 48.5831 196.169 48.536 196.67C48.3664 196.743 48.2019 196.792 48.0449 196.839C47.9229 196.876 47.8052 196.911 47.6932 196.955C47.3433 196.62 46.9755 196.302 46.6093 195.986C45.7589 195.251 44.9169 194.524 44.3267 193.604Z" fill="#EA6A82"/>
<path d="M20.5839 178.462C20.0905 179.291 19.8394 180.797 20.2889 181.598C20.8601 182.634 21.7128 183.525 22.5709 184.42C22.8887 184.752 23.2071 185.084 23.5123 185.425L24.2806 185.125C24.368 184.615 24.4851 184.105 24.6018 183.596C24.8643 182.451 25.125 181.315 25.0409 180.216C24.9965 179.348 23.9705 178.148 23.1252 177.729C22.458 177.388 20.954 177.84 20.5839 178.462Z" fill="#EA6A82"/>
<path d="M72.3398 203.316C71.6924 202.706 71.4802 201.177 71.7209 200.253C71.8966 199.628 73.333 198.771 74.0199 198.843C74.9886 199.055 76.1705 199.898 76.4838 200.787C76.8591 201.786 76.9106 202.901 76.9618 204.01C76.9846 204.505 77.0074 204.998 77.0589 205.479C76.9454 205.552 76.8246 205.614 76.7038 205.675C76.5831 205.736 76.4623 205.798 76.3488 205.871C75.9237 205.609 75.4825 205.37 75.0436 205.132C74.0617 204.6 73.0915 204.074 72.3398 203.316Z" fill="#EA6A82"/>
<path fill-rule="evenodd" clip-rule="evenodd" d="M84.2911 105.568C72.8804 94.3694 59.5348 92.7414 44.8796 97.4633C42.1133 98.3667 39.428 99.4476 36.6235 100.577L36.6195 100.578C35.5047 101.027 34.3711 101.483 33.206 101.939L33.3608 101.639C33.8265 100.736 34.1873 100.036 34.5245 99.2993C39.7666 87.9925 39.4252 76.8709 33.3805 65.9474C31.6987 62.9255 30.6101 62.7267 27.8211 64.7717C19.4414 70.7867 14.5687 78.9734 13.1449 89.2409C13.0241 90.1511 12.9032 91.0619 12.8115 92.0176C8.4648 84.0414 7.16129 75.7153 8.57378 66.9287C8.61433 66.6889 8.68265 66.4372 8.75137 66.1839C8.90918 65.6024 9.06917 65.0128 8.90037 64.5409C8.49965 63.5165 7.75892 62.2616 6.85193 61.9463C6.21202 61.7301 5.03464 62.7778 4.25799 63.4689L4.20605 63.5151C3.96906 63.7126 3.9161 64.1467 3.86464 64.5685C3.84358 64.7413 3.82273 64.9121 3.78962 65.0636C2.00017 74.8608 3.13396 84.3209 7.4471 93.3437C8.22364 94.9681 9.06245 96.5527 10.0019 98.3274L10.0029 98.3292C10.1975 98.6968 10.3964 99.0726 10.6 99.4585C10.1321 99.3108 9.73161 99.1778 9.37138 99.0582C8.80408 98.8698 8.33627 98.7145 7.86277 98.5872C-4.89428 94.9799 -16.3356 97.3203 -26.4226 105.968C-28.8681 108.049 -28.8888 109.216 -26.49 111.457C-18.8826 118.624 -9.7673 121.747 0.641733 121.094C1.09395 121.071 1.55057 121.028 2.07473 120.978C2.55715 120.932 3.09709 120.881 3.74312 120.835C2.66428 121.85 1.61952 122.801 0.606829 123.723C-1.19389 125.363 -2.8932 126.911 -4.50234 128.558C-16.0055 140.292 -20.4496 153.842 -14.8251 169.905C-12.0758 177.688 -7.43608 184.323 -2.08282 190.372C9.53317 203.489 24.0634 212.558 40.671 218.373C48.5359 221.146 56.6158 222.755 64.9829 222.514C79.7858 222.119 91.0142 215.75 98.0698 202.575C99.9887 198.974 101.658 195.084 102.687 191.093C108.742 167.668 106.018 144.94 96.34 122.956C93.4338 116.426 89.4089 110.55 84.2911 105.568ZM29.5849 69.9194C36.6344 80.7111 32.5793 100.162 22.0342 106.797C13.5386 99.9445 18.018 77.6582 29.5849 69.9194ZM-21.7302 108.789C-12.0345 99.4312 10.0681 99.9278 16.4059 109.51C7.08969 118.561 -12.2781 118.232 -21.7302 108.789ZM-9.3338 143.702C-6.06979 136.803 -0.97648 131.358 4.85162 126.659C16.8128 116.938 29.5763 108.367 44.1964 103.091C48.1084 101.661 52.3612 101.084 56.5764 100.511C57.6181 100.37 58.6576 100.228 59.689 100.075C60.95 99.874 62.2866 100.066 63.6264 100.259C64.2631 100.351 64.9006 100.443 65.5311 100.492C65.5439 100.612 65.564 100.744 65.5841 100.875C65.6042 101.006 65.6243 101.137 65.6372 101.257C57.3354 107.094 48.287 111.168 37.9653 111.957C34.475 112.209 34.4099 112.507 33.7971 115.848C33.2052 118.984 32.3295 122.057 31.4485 125.15C31.2237 125.939 30.9985 126.73 30.7776 127.523C30.0587 130.098 28.2497 130.874 25.7907 130.337C25.2517 130.213 24.7118 130.091 24.1714 129.968C20.9475 129.235 17.708 128.498 14.559 127.609C11.3293 126.669 10.8334 126.795 9.41722 129.882C5.10716 139.245 -2.40754 145.41 -11.7061 150.093C-11.4657 149.429 -11.2434 148.765 -11.0223 148.105C-10.5201 146.605 -10.0237 145.123 -9.3338 143.702ZM91.5974 124.652C100.895 145.342 103.536 166.842 98.055 189.066C96.037 197.408 92.1794 204.88 85.4074 210.504C79.2126 215.631 71.9391 217.476 64.1133 217.562C54.0581 217.668 44.5599 215.046 35.4164 210.979C20.6469 204.434 7.70118 195.438 -2.24297 182.53C-7.02579 176.371 -10.6154 169.576 -12.1237 161.829C-12.9746 157.506 -12.6371 157.033 -8.91794 154.84C1.84373 148.642 6.21318 144.367 13.5649 133.052C14.6425 133.266 15.7085 133.492 16.7675 133.717C19.532 134.304 22.2487 134.881 25.0014 135.2C30.9727 135.919 33.0122 134.803 35.2637 129.323C36.3232 126.805 37.0919 124.173 37.8981 121.413C38.3279 119.942 38.7684 118.434 39.2692 116.887C38.9968 117.062 39.1655 116.825 39.4053 116.8C50.8876 115.522 60.9348 110.808 70.0932 103.91C71.504 102.813 72.5052 102.875 73.8815 103.722C82.0938 108.835 87.6953 116.07 91.5974 124.652Z" fill="#EA6A82"/>
</svg>
