<svg width="249" height="348" viewBox="0 0 249 348" fill="none" xmlns="http://www.w3.org/2000/svg">
<path d="M20.9033 215.305L25.4368 216.162C71.9614 224.418 111.309 218.975 142.775 200.183C166.958 185.733 180.007 166.616 183.665 157.666C191.281 139.686 210.99 116.871 214.546 112.889C221.739 98.6884 211.545 83.2486 211.356 83.1397L208.405 78.6703L212.149 74.7979L222.025 64.66L223.898 62.7237L226.625 62.7899L244.775 62.7087L253.552 62.7478L250.894 71.2704C250.785 71.4589 246.399 86.0236 244.496 94.9816C243.806 98.3545 246.712 106.821 250.322 114.939L251.445 117.348C252.409 119.162 253.105 120.569 253.265 121.164C253.453 121.273 253.344 121.462 253.533 121.57L253.801 121.977L253.961 122.572C263.774 150.865 260.746 181.803 245.488 211.713C222.414 256.47 179.605 287.069 158.052 293.482C153.481 294.866 148.831 295.952 144.181 297.039C132.907 299.581 122.019 300.586 111.406 300.242C92.6112 299.699 75.0507 294.84 59.2109 285.695C29.9827 268.82 16.2156 243.021 13.2725 236.796C12.9245 236.092 12.6563 235.686 12.7651 235.497L11.4821 232.494L13.1152 229.665L16.6282 223.145L20.1412 216.625L20.9033 215.305ZM29.1051 223.309C31.259 224.804 33.3333 226.001 35.5961 227.308C65.2015 244.4 100.354 247.095 140.001 235.038C165.421 227.589 218.737 184.452 236.709 127.194C236.47 126.302 236.042 125.301 235.803 124.408C227.996 106.576 206.705 133.002 198.823 144.04C195.18 149.48 192.023 154.948 189.758 160.178C182.114 178.644 137.815 240.564 29.1051 223.309ZM238.127 93.819C240.06 84.3749 244.664 69.4331 244.664 69.4331L226.623 69.3258L216.747 79.4637C216.747 79.4637 229.842 98.5895 219.876 116.721C219.876 116.721 219.876 116.721 219.767 116.91C219.876 116.721 219.876 116.721 219.876 116.721C220.203 116.156 220.529 115.59 220.856 115.024C232.676 105.003 231.331 91.6551 230.194 86.2215C231.498 90.4945 235.23 101.449 240.705 109.387C238.813 103.518 237.219 97.569 238.127 93.819ZM198.823 144.04C207.823 130.631 218.708 118.31 220.173 116.642C218.816 118.121 207.823 130.631 198.823 144.04ZM172.941 279.45C175.677 277.761 178.709 275.992 181.771 273.737C183.396 272.663 184.724 271.67 186.349 270.597C190.848 267.16 195.564 263.346 200.31 259.046C202.588 256.841 205.055 254.746 207.443 252.353C210.454 249.314 213.574 246.087 216.615 242.563C218.625 239.952 220.824 237.45 222.943 234.651C226.528 230.183 229.844 225.31 232.864 220.516C235.339 216.665 237.734 212.516 239.831 208.447C240.84 206.264 241.929 204.378 242.938 202.195C244.847 198.018 246.488 193.434 248.02 189.038C249.196 185.694 249.887 182.322 250.874 178.869C251.041 177.708 251.397 176.657 251.564 175.496C252.865 168.453 253.382 161.46 253.334 154.141C253.161 150.521 252.988 146.901 252.329 143.252C251.859 139.712 251.2 136.063 250.243 132.494C248.453 128.192 245.059 126.232 243.731 127.225C242.852 130.489 241.676 133.833 240.42 136.879C237.574 145.293 234.518 152.329 232.754 154.076C209.106 200.262 165.905 234.154 141.863 241.393C93.4811 255.95 57.7868 247.662 32.33 232.965C28.7472 230.896 25.4618 228.748 22.2853 226.411L18.7723 232.931C19.3593 234.527 30.0879 257.316 54.318 274.573C57.0377 276.395 59.7574 278.217 62.5859 279.85C84.2714 292.37 114.867 299.474 156.189 287.126C156.784 286.967 157.379 286.808 157.785 286.539C158.975 286.221 159.976 285.793 161.275 285.286C164.765 284.032 168.798 281.835 172.941 279.45Z" fill="#FCAE00"/>
<path d="M137.766 125.418C141.543 131.695 145.815 138.795 154.16 138.795C162.504 138.795 166.776 131.695 170.553 125.418L170.828 124.962L170.975 124.705C174.34 118.839 177.541 113.257 183.649 113.257C184.932 113.257 185.786 112.406 185.786 111.129C185.786 109.852 184.932 109 183.649 109C174.888 109 170.614 116.449 166.981 122.833C163.562 128.792 160.143 134.538 154.16 134.538C148.176 134.538 144.757 128.792 141.338 122.833L141.063 122.377C137.286 116.1 133.014 109 124.67 109C116.325 109 112.053 116.1 108.276 122.377L108.001 122.833C104.582 128.792 101.163 134.538 95.1796 134.538C89.1961 134.538 85.777 128.792 82.3579 122.833L82.0832 122.377C78.3061 116.1 74.0346 109 65.6896 109C57.1418 109 52.8679 116.449 49.2351 122.833C45.8159 128.792 42.3968 134.538 36.4133 134.538C30.4299 134.538 27.0107 128.792 23.5916 122.833C19.9588 116.449 15.6849 109 7.13708 109C5.8549 109 5.00012 109.852 5.00012 111.129C5.00012 112.406 5.8549 113.257 7.13708 113.257C12.8979 113.257 16.0734 118.222 19.5819 123.708C19.8477 124.123 20.1153 124.542 20.3862 124.962C24.019 131.346 28.2929 138.795 36.8407 138.795C45.3886 138.795 49.6625 131.346 53.2953 124.962L53.4425 124.705C56.8071 118.839 60.0089 113.257 66.117 113.257C72.1005 113.257 75.5196 119.003 78.9387 124.962C82.5716 131.346 86.8455 138.795 95.3933 138.795C103.941 138.795 108.215 131.346 111.848 124.962L111.995 124.705C115.36 118.839 118.561 113.257 124.67 113.257C130.778 113.257 133.979 118.839 137.344 124.705L137.491 124.962L137.766 125.418Z" fill="white"/>
<path d="M137.766 146.486C141.543 152.764 145.815 159.863 154.16 159.863C162.292 159.863 166.555 153.122 170.447 146.968C170.646 146.654 170.844 146.341 171.041 146.03L171.189 145.774C174.553 139.908 177.755 134.325 183.863 134.325C185.145 134.325 186 133.474 186 132.197C186 130.92 185.145 130.069 183.863 130.069C175.102 130.069 170.828 137.518 167.195 143.902C163.776 149.861 160.357 155.607 154.373 155.607C148.39 155.607 144.971 149.861 141.551 143.902L141.277 143.446C137.5 137.168 133.228 130.069 124.883 130.069C116.335 130.069 112.062 137.518 108.429 143.902C105.01 149.861 101.59 155.607 95.607 155.607C89.6235 155.607 86.2044 149.861 82.7852 143.902L82.5106 143.446C78.7335 137.168 74.462 130.069 66.117 130.069C57.5692 130.069 53.2953 137.518 49.6625 143.902C46.2433 149.861 42.8242 155.607 36.8407 155.607C30.8573 155.607 27.4381 149.861 24.019 143.902C20.3862 137.518 16.1123 130.069 7.56446 130.069C6.28229 130.069 5.42751 130.92 5.42751 132.197C5.42751 133.474 6.28229 134.325 7.56446 134.325C13.5479 134.325 16.9671 140.071 20.3862 146.03C24.019 152.415 28.2929 159.863 36.8407 159.863C45.3885 159.863 49.6625 152.415 53.2953 146.03L53.4425 145.774C56.8071 139.908 60.0088 134.325 66.117 134.325C72.1005 134.325 75.5196 140.071 78.9387 146.03C82.5715 152.415 86.8455 159.863 95.3933 159.863C103.941 159.863 108.215 152.415 111.848 146.03L111.995 145.774C115.36 139.908 118.561 134.325 124.67 134.325C130.653 134.325 134.072 140.071 137.491 146.03L137.766 146.486Z" fill="white"/>
<path d="M154.16 180.932C145.815 180.932 141.543 173.833 137.766 167.555L137.491 167.099C134.072 161.14 130.653 155.394 124.67 155.394C118.561 155.394 115.36 160.976 111.995 166.842L111.848 167.099C108.215 173.483 103.941 180.932 95.3933 180.932C86.8455 180.932 82.5715 173.483 78.9387 167.099C75.5196 161.14 72.1005 155.394 66.117 155.394C60.0088 155.394 56.8071 160.976 53.4425 166.842L53.2953 167.099C49.6625 173.483 45.3885 180.932 36.8407 180.932C28.2929 180.932 24.019 173.483 20.3862 167.099C16.9671 161.14 13.5479 155.394 7.56446 155.394C6.28229 155.394 5.42751 154.543 5.42751 153.266C5.42751 151.989 6.28229 151.138 7.56446 151.138C16.1123 151.138 20.3862 158.586 24.019 164.971C27.4381 170.93 30.8573 176.676 36.8407 176.676C42.8242 176.676 46.2433 170.93 49.6625 164.971C53.2953 158.586 57.5692 151.138 66.117 151.138C74.462 151.138 78.7335 158.237 82.5106 164.514L82.7852 164.971C86.2044 170.93 89.6235 176.676 95.607 176.676C101.59 176.676 105.01 170.93 108.429 164.971C112.062 158.586 116.335 151.138 124.883 151.138C133.228 151.138 137.5 158.237 141.277 164.515L141.551 164.971C144.971 170.93 148.39 176.676 154.373 176.676C160.357 176.676 163.776 170.93 167.195 164.971C170.828 158.586 175.102 151.138 183.863 151.138C185.145 151.138 186 151.989 186 153.266C186 154.543 185.145 155.394 183.863 155.394C177.755 155.394 174.553 160.976 171.189 166.842L171.041 167.099C170.844 167.409 170.646 167.722 170.447 168.037C166.555 174.19 162.292 180.932 154.16 180.932Z" fill="white"/>
<path d="M137.766 188.624C141.543 194.901 145.815 202 154.16 202C162.292 202 166.555 195.259 170.447 189.106C170.646 188.791 170.844 188.478 171.041 188.168L171.189 187.911C174.553 182.045 177.755 176.463 183.863 176.463C185.145 176.463 186 175.611 186 174.335C186 173.058 185.145 172.206 183.863 172.206C175.102 172.206 170.828 179.655 167.195 186.039C163.776 191.998 160.357 197.744 154.373 197.744C148.39 197.744 144.971 191.998 141.551 186.039C141.46 185.888 141.369 185.736 141.277 185.583C137.5 179.306 133.228 172.206 124.883 172.206C116.335 172.206 112.062 179.655 108.429 186.039C105.01 191.998 101.59 197.744 95.607 197.744C89.6235 197.744 86.2044 191.998 82.7852 186.039C82.694 185.888 82.6024 185.736 82.5106 185.583C78.7335 179.306 74.462 172.206 66.117 172.206C57.5692 172.206 53.2953 179.655 49.6625 186.039C46.2433 191.998 42.8242 197.744 36.8407 197.744C30.8573 197.744 27.4381 191.998 24.019 186.039C20.3862 179.655 16.1123 172.206 7.56446 172.206C6.28229 172.206 5.42751 173.058 5.42751 174.335C5.42751 175.611 6.28229 176.463 7.56446 176.463C13.5479 176.463 16.9671 182.209 20.3862 188.168C24.019 194.552 28.2929 202 36.8407 202C45.3885 202 49.6625 194.552 53.2953 188.168L53.4425 187.911C56.8071 182.045 60.0088 176.463 66.117 176.463C72.1005 176.463 75.5196 182.209 78.9387 188.168C82.5715 194.552 86.8455 202 95.3933 202C103.941 202 108.215 194.552 111.848 188.168L111.995 187.911C115.36 182.045 118.561 176.463 124.67 176.463C130.653 176.463 134.072 182.209 137.491 188.168C137.583 188.319 137.674 188.471 137.766 188.624Z" fill="white"/>
</svg>
