<svg width="184" height="219" viewBox="0 0 184 219" fill="none" xmlns="http://www.w3.org/2000/svg">
<path d="M16.004 164.729L19.4749 165.385C55.095 171.706 85.2201 167.539 109.312 153.151C127.826 142.088 137.816 127.452 140.618 120.599C146.448 106.833 161.538 89.3658 164.26 86.3177C169.767 75.4451 161.963 63.6241 161.818 63.5407L159.559 60.1189L162.426 57.1541L169.987 49.3923L171.42 47.9099L173.508 47.9605L187.404 47.8983L194.124 47.9282L192.089 54.4533C192.006 54.5977 188.648 65.7486 187.191 72.6071C186.662 75.1895 188.887 81.6715 191.651 87.8871L192.511 89.7312C193.249 91.1199 193.782 92.1975 193.904 92.6529C194.049 92.7363 193.965 92.8807 194.11 92.964L194.315 93.2751L194.437 93.7306C201.95 115.393 199.632 139.079 187.951 161.979C170.284 196.246 137.509 219.673 121.007 224.582C117.508 225.642 113.948 226.474 110.387 227.306C101.756 229.253 93.4197 230.022 85.2946 229.758C70.9048 229.343 57.4602 225.623 45.333 218.621C22.9553 205.701 12.415 185.949 10.1617 181.183C9.89525 180.644 9.68985 180.333 9.7732 180.189L8.79091 177.889L10.0412 175.723L12.7309 170.731L15.4205 165.739L16.004 164.729ZM22.2833 170.857C23.9325 172.001 25.5206 172.918 27.253 173.918C49.9195 187.005 76.8325 189.068 107.187 179.837C126.649 174.133 167.469 141.107 181.229 97.2696C181.046 96.5865 180.719 95.8199 180.535 95.1368C174.558 81.4836 158.257 101.716 152.223 110.167C149.434 114.332 147.016 118.519 145.282 122.522C139.43 136.66 105.514 184.068 22.2833 170.857ZM182.315 71.7169C183.794 64.4864 187.319 53.0467 187.319 53.0467L173.507 52.9645L165.946 60.7263C165.946 60.7263 175.971 75.3693 168.341 89.2514C168.341 89.2514 168.341 89.2514 168.258 89.3958C168.341 89.2514 168.341 89.2514 168.341 89.2514C168.591 88.8183 168.841 88.3851 169.091 87.952C178.141 80.2796 177.111 70.0602 176.241 65.9002C177.239 69.1717 180.097 77.5588 184.288 83.636C182.84 79.1426 181.619 74.588 182.315 71.7169ZM152.223 110.167C159.113 99.9006 167.447 90.4674 168.569 89.1904C167.53 90.323 159.113 99.9006 152.223 110.167ZM132.407 213.839C134.501 212.546 136.823 211.192 139.167 209.465C140.412 208.644 141.428 207.883 142.673 207.062C146.117 204.43 149.728 201.51 153.361 198.218C155.105 196.53 156.994 194.926 158.822 193.093C161.128 190.767 163.517 188.296 165.844 185.598C167.383 183.599 169.067 181.684 170.689 179.54C173.434 176.12 175.973 172.389 178.285 168.718C180.18 165.77 182.013 162.594 183.619 159.479C184.392 157.807 185.225 156.363 185.998 154.692C187.46 151.493 188.716 147.984 189.889 144.619C190.789 142.059 191.318 139.476 192.074 136.833C192.202 135.944 192.474 135.139 192.602 134.251C193.598 128.858 193.994 123.504 193.957 117.901C193.825 115.129 193.692 112.358 193.188 109.564C192.828 106.854 192.323 104.06 191.591 101.327C190.22 98.0334 187.622 96.533 186.605 97.2936C185.932 99.7926 185.032 102.353 184.07 104.685C181.891 111.127 179.551 116.513 178.201 117.851C160.096 153.212 127.02 179.16 108.613 184.702C71.5709 195.848 44.2427 189.502 24.7524 178.249C22.0094 176.666 19.494 175.021 17.062 173.232L14.3724 178.224C14.8218 179.446 23.0359 196.893 41.5869 210.106C43.6691 211.501 45.7514 212.895 47.9169 214.146C64.5197 223.731 87.9439 229.17 119.581 219.717C120.037 219.595 120.492 219.473 120.803 219.267C121.714 219.023 122.481 218.696 123.475 218.307C126.147 217.347 129.235 215.666 132.407 213.839Z" fill="#FEE29B"/>
<path d="M121.214 90.0906C122.842 92.8581 124.683 95.9878 128.279 95.9878C131.875 95.9878 133.716 92.8581 135.343 90.0906L135.462 89.8894L135.525 89.7763C136.975 87.1901 138.355 84.7292 140.987 84.7292C141.54 84.7292 141.908 84.3539 141.908 83.791C141.908 83.2281 141.54 82.8528 140.987 82.8528C137.211 82.8528 135.37 86.1365 133.804 88.9512C132.331 91.5782 130.857 94.1114 128.279 94.1114C125.7 94.1114 124.227 91.5782 122.753 88.9512L122.635 88.75C121.007 85.9825 119.166 82.8528 115.57 82.8528C111.974 82.8528 110.133 85.9825 108.506 88.75L108.387 88.9512C106.914 91.5782 105.44 94.1114 102.862 94.1114C100.283 94.1114 98.81 91.5782 97.3365 88.9512L97.2182 88.75C95.5905 85.9825 93.7497 82.8528 90.1535 82.8528C86.47 82.8528 84.6282 86.1365 83.0626 88.9512C81.5892 91.5782 80.1158 94.1114 77.5373 94.1114C74.9587 94.1114 73.4853 91.5782 72.0119 88.9512C70.4463 86.1365 68.6045 82.8528 64.921 82.8528C64.3684 82.8528 64.0001 83.2281 64.0001 83.791C64.0001 84.3539 64.3684 84.7292 64.921 84.7292C67.4035 84.7292 68.772 86.9182 70.2839 89.3367C70.3985 89.5199 70.5138 89.7044 70.6305 89.8894C72.196 92.704 74.0378 95.9878 77.7214 95.9878C81.405 95.9878 83.2468 92.704 84.8123 89.8894L84.8758 89.7763C86.3257 87.1901 87.7055 84.7292 90.3377 84.7292C92.9162 84.7292 94.3897 87.2624 95.8631 89.8894C97.4286 92.704 99.2704 95.9878 102.954 95.9878C106.638 95.9878 108.479 92.704 110.045 89.8894L110.108 89.7763C111.558 87.1901 112.938 84.7292 115.57 84.7292C118.203 84.7292 119.582 87.1901 121.032 89.7763L121.096 89.8894L121.214 90.0906Z" fill="#6B3D29" fill-opacity="0.3"/>
<path d="M121.214 99.3788C122.842 102.146 124.683 105.276 128.279 105.276C131.783 105.276 133.621 102.304 135.298 99.5913C135.383 99.4526 135.469 99.3146 135.554 99.1777L135.617 99.0646C137.067 96.4785 138.447 94.0175 141.079 94.0175C141.632 94.0175 142 93.6422 142 93.0793C142 92.5164 141.632 92.1411 141.079 92.1411C137.303 92.1411 135.462 95.4249 133.896 98.2395C132.423 100.867 130.949 103.4 128.371 103.4C125.792 103.4 124.319 100.867 122.845 98.2395L122.727 98.0384C121.099 95.2709 119.259 92.1411 115.662 92.1411C111.979 92.1411 110.137 95.4249 108.571 98.2395C107.098 100.867 105.625 103.4 103.046 103.4C100.468 103.4 98.9942 100.867 97.5207 98.2395L97.4024 98.0384C95.7746 95.2708 93.9339 92.1411 90.3377 92.1411C86.6541 92.1411 84.8123 95.4249 83.2468 98.2395C81.7734 100.867 80.2999 103.4 77.7214 103.4C75.1429 103.4 73.6695 100.867 72.196 98.2395C70.6305 95.4249 68.7887 92.1411 65.1051 92.1411C64.5526 92.1411 64.1842 92.5164 64.1842 93.0793C64.1842 93.6422 64.5526 94.0175 65.1051 94.0175C67.6836 94.0175 69.1571 96.5507 70.6305 99.1777C72.196 101.992 74.0378 105.276 77.7214 105.276C81.405 105.276 83.2468 101.992 84.8123 99.1777L84.8758 99.0646C86.3257 96.4785 87.7055 94.0175 90.3377 94.0175C92.9162 94.0175 94.3897 96.5507 95.8631 99.1777C97.4286 101.992 99.2704 105.276 102.954 105.276C106.638 105.276 108.479 101.992 110.045 99.1777L110.108 99.0646C111.558 96.4785 112.938 94.0175 115.57 94.0175C118.149 94.0175 119.622 96.5507 121.096 99.1777L121.214 99.3788Z" fill="#6B3D29" fill-opacity="0.3"/>
<path d="M128.279 114.564C124.683 114.564 122.842 111.435 121.214 108.667L121.096 108.466C119.622 105.839 118.149 103.306 115.57 103.306C112.938 103.306 111.558 105.767 110.108 108.353L110.045 108.466C108.479 111.281 106.638 114.564 102.954 114.564C99.2704 114.564 97.4286 111.281 95.8631 108.466C94.3897 105.839 92.9162 103.306 90.3377 103.306C87.7055 103.306 86.3257 105.767 84.8758 108.353L84.8123 108.466C83.2468 111.281 81.405 114.564 77.7214 114.564C74.0378 114.564 72.196 111.281 70.6305 108.466C69.1571 105.839 67.6836 103.306 65.1051 103.306C64.5526 103.306 64.1842 102.931 64.1842 102.368C64.1842 101.805 64.5526 101.429 65.1051 101.429C68.7887 101.429 70.6305 104.713 72.196 107.528C73.6695 110.155 75.1429 112.688 77.7214 112.688C80.2999 112.688 81.7734 110.155 83.2468 107.528C84.8123 104.713 86.6541 101.429 90.3377 101.429C93.9339 101.429 95.7746 104.559 97.4024 107.327L97.5207 107.528C98.9942 110.155 100.468 112.688 103.046 112.688C105.625 112.688 107.098 110.155 108.571 107.528C110.137 104.713 111.979 101.429 115.662 101.429C119.259 101.429 121.099 104.559 122.727 107.327L122.845 107.528C124.319 110.155 125.792 112.688 128.371 112.688C130.949 112.688 132.423 110.155 133.896 107.528C135.462 104.713 137.303 101.429 141.079 101.429C141.632 101.429 142 101.805 142 102.368C142 102.931 141.632 103.306 141.079 103.306C138.447 103.306 137.067 105.767 135.617 108.353L135.554 108.466C135.469 108.603 135.383 108.741 135.298 108.88C133.621 111.592 131.783 114.564 128.279 114.564Z" fill="#6B3D29" fill-opacity="0.3"/>
<path d="M121.214 117.956C122.842 120.723 124.683 123.853 128.279 123.853C131.783 123.853 133.621 120.881 135.298 118.168C135.383 118.029 135.469 117.891 135.554 117.754L135.617 117.641C137.067 115.055 138.447 112.594 141.079 112.594C141.632 112.594 142 112.219 142 111.656C142 111.093 141.632 110.718 141.079 110.718C137.303 110.718 135.462 114.002 133.896 116.816C132.423 119.443 130.949 121.976 128.371 121.976C125.792 121.976 124.319 119.443 122.845 116.816C122.806 116.749 122.767 116.682 122.727 116.615C121.099 113.848 119.259 110.718 115.662 110.718C111.979 110.718 110.137 114.002 108.571 116.816C107.098 119.443 105.625 121.976 103.046 121.976C100.468 121.976 98.9942 119.443 97.5207 116.816C97.4814 116.749 97.4419 116.682 97.4024 116.615C95.7746 113.848 93.9339 110.718 90.3377 110.718C86.6541 110.718 84.8123 114.002 83.2468 116.816C81.7734 119.443 80.2999 121.976 77.7214 121.976C75.1429 121.976 73.6695 119.443 72.196 116.816C70.6305 114.002 68.7887 110.718 65.1051 110.718C64.5526 110.718 64.1842 111.093 64.1842 111.656C64.1842 112.219 64.5526 112.594 65.1051 112.594C67.6836 112.594 69.1571 115.127 70.6305 117.754C72.196 120.569 74.0378 123.853 77.7214 123.853C81.405 123.853 83.2468 120.569 84.8123 117.754L84.8758 117.641C86.3257 115.055 87.7055 112.594 90.3377 112.594C92.9162 112.594 94.3897 115.127 95.8631 117.754C97.4286 120.569 99.2704 123.853 102.954 123.853C106.638 123.853 108.479 120.569 110.045 117.754L110.108 117.641C111.558 115.055 112.938 112.594 115.57 112.594C118.149 112.594 119.622 115.127 121.096 117.754C121.135 117.821 121.174 117.888 121.214 117.956Z" fill="#6B3D29" fill-opacity="0.3"/>
</svg>
