<svg width="163" height="259" viewBox="0 0 163 259" fill="none" xmlns="http://www.w3.org/2000/svg">
<path d="M137.954 163.885C137.249 163.32 135.206 163.383 134.526 163.983C133.637 164.812 132.898 166.624 133.144 167.78C133.508 169.252 134.286 170.613 135.079 171.999L135.08 172.001C135.377 172.522 135.677 173.047 135.958 173.582C136.144 173.563 136.325 173.561 136.507 173.559C136.688 173.557 136.87 173.555 137.056 173.536C137.315 172.938 137.604 172.349 137.891 171.763L137.892 171.761C138.563 170.394 139.224 169.046 139.474 167.65C139.82 166.448 138.955 164.68 137.954 163.885Z" fill="#EA6A82"/>
<path d="M56.9702 103.746C57.4783 102.735 59.1706 101.631 60.3355 101.604C61.2808 101.587 62.987 102.947 63.243 103.816C63.4889 104.972 62.8642 106.89 61.927 107.632C60.829 108.462 59.5196 109.041 57.9567 109.733C57.1511 110.089 56.2781 110.476 55.332 110.941C55.5555 109.912 55.7184 108.98 55.8682 108.123C56.1644 106.428 56.4095 105.025 56.9702 103.746Z" fill="#EA6A82"/>
<path d="M93.2271 111.221C92.1098 111.333 90.6938 112.734 90.2139 113.898C89.7351 115.192 89.6514 116.6 89.5677 118.008C89.5373 118.52 89.5069 119.032 89.4574 119.539C89.6669 119.816 89.8979 120.082 90.1288 120.347C90.3598 120.613 90.5908 120.878 90.8003 121.155C91.2274 120.814 91.6722 120.483 92.1186 120.151C93.3419 119.241 94.5779 118.321 95.4967 117.155C96.2913 116.154 96.9634 114.322 96.5455 113.262C96.2612 112.239 94.3445 111.109 93.2271 111.221Z" fill="#EA6A82"/>
<path d="M128.409 121.425C129.21 122.162 129.578 124.148 129.232 125.351C128.861 126.637 128.102 127.846 127.15 129.363C126.718 130.051 126.246 130.803 125.753 131.655C125.363 130.727 124.984 129.909 124.639 129.163L124.638 129.161C123.88 127.524 123.281 126.23 123.074 124.879C122.895 123.743 123.539 121.758 124.438 121.149C125.403 120.559 127.542 120.669 128.409 121.425Z" fill="#EA6A82"/>
<path d="M95.4784 153.389C94.3985 153.874 93.1444 155.466 93.1038 156.612C93.0429 158.01 93.343 159.413 93.6459 160.83C93.7918 161.512 93.9383 162.197 94.0455 162.887C94.2123 162.935 94.4006 162.971 94.5889 163.007C94.7774 163.043 94.9665 163.079 95.1334 163.128C95.4954 162.734 95.8746 162.351 96.2541 161.968C97.3095 160.902 98.3668 159.834 99.0577 158.543C99.6518 157.485 99.57 155.508 98.9801 154.542C98.4184 153.73 96.3863 153 95.4784 153.389Z" fill="#EA6A82"/>
<path d="M157.128 131.214C157.712 130.442 159.852 130.045 160.729 130.515C161.788 131.109 162.806 132.849 162.698 133.975C162.621 135.483 162.136 136.909 161.647 138.345C161.443 138.946 161.238 139.548 161.062 140.159C160.876 140.178 160.668 140.208 160.461 140.239L160.459 140.239C160.252 140.27 160.045 140.3 159.859 140.319C159.509 139.751 159.13 139.205 158.753 138.663C157.964 137.527 157.188 136.409 156.719 135.147C156.32 134.019 156.439 132.1 157.128 131.214Z" fill="#EA6A82"/>
<path d="M112.821 188.113C112.202 187.501 109.939 187.572 109.174 188.22C108.303 188.982 107.679 190.9 107.925 192.056C108.246 193.327 108.92 194.533 109.754 196.025L109.755 196.027C110.149 196.733 110.579 197.502 111.024 198.373C111.486 197.501 111.939 196.739 112.35 196.046C113.21 194.598 113.889 193.454 114.092 192.24C114.391 190.952 113.717 189.022 112.821 188.113Z" fill="#EA6A82"/>
<path d="M62.5171 177.171C62.8441 176.036 64.4028 174.893 65.6447 174.6C66.5141 174.344 68.3165 175.369 68.5532 176.305C68.9519 177.433 68.7473 179.399 67.9912 180.267C67.1053 181.291 65.9326 182.033 64.7554 182.777C64.2028 183.126 63.6492 183.476 63.1238 183.856C62.909 183.754 62.7215 183.636 62.5425 183.524C62.4036 183.436 62.2695 183.352 62.132 183.281C62.1592 182.658 62.1543 182.031 62.1495 181.408C62.1383 179.959 62.1272 178.525 62.5171 177.171Z" fill="#EA6A82"/>
<path d="M57.0064 141.298C55.7838 141.524 54.1108 142.562 53.717 143.678C53.1984 145.112 53.0608 146.695 52.9224 148.288C52.8712 148.877 52.8198 149.469 52.7489 150.054L53.6931 150.543C54.2612 150.194 54.8555 149.874 55.4478 149.554C56.7795 148.836 58.1015 148.123 59.0949 147.107C59.8985 146.326 60.1892 144.312 59.8765 143.137C59.6398 142.201 57.9234 141.128 57.0064 141.298Z" fill="#EA6A82"/>
<path d="M76.9179 212.567C76.9585 211.421 78.2601 209.915 79.3593 209.364C80.1143 209.003 82.1658 209.666 82.6798 210.392C83.2981 211.511 83.4852 213.373 82.891 214.432C82.2416 215.645 81.2047 216.643 80.1743 217.634C79.7143 218.077 79.2556 218.519 78.8332 218.978C78.6662 218.929 78.504 218.865 78.3419 218.8C78.1797 218.735 78.0175 218.67 77.8505 218.622C77.7427 217.988 77.5994 217.357 77.4568 216.73C77.1378 215.326 76.8227 213.939 76.9179 212.567Z" fill="#EA6A82"/>
<path fill-rule="evenodd" clip-rule="evenodd" d="M181.779 141.062C182.93 120.488 173.163 106.175 156.132 95.9896C152.905 94.0773 149.576 92.3944 146.098 90.6368C144.714 89.9373 143.307 89.226 141.874 88.4838L142.296 88.3786C143.567 88.0622 144.551 87.817 145.551 87.5176C160.962 82.9858 171.447 73.2019 176.892 58.0607C178.39 53.8628 177.658 52.6391 173.306 51.6752C160.355 48.6693 148.282 50.907 137.124 58.2547C136.14 58.9114 135.155 59.5682 134.151 60.2917C138.184 49.3009 145.143 40.961 154.856 34.8611C155.123 34.6965 155.425 34.5487 155.729 34.4C156.426 34.0586 157.133 33.7125 157.447 33.1478C158.099 31.8889 158.685 30.1046 158.22 28.9579C157.885 28.1542 155.869 27.904 154.54 27.7389L154.451 27.7279C154.058 27.6661 153.592 27.9838 153.14 28.2925C152.955 28.4189 152.772 28.5439 152.597 28.6406C141.584 35.2344 133.382 44.3737 128.306 56.2217C127.393 58.3545 126.571 60.5138 125.65 62.9321L125.65 62.933L125.648 62.9373C125.457 63.4377 125.263 63.9492 125.062 64.4739C124.808 63.8968 124.597 63.3971 124.407 62.9475L124.405 62.9432C124.106 62.2334 123.859 61.6482 123.58 61.0813C116.231 45.6556 104.239 36.56 87.2868 34.1377C83.192 33.5372 82.0442 34.5087 81.9113 38.7381C81.4344 52.1997 86.1558 63.6862 95.6361 73.2157C96.0429 73.6342 96.4731 74.0398 96.9669 74.5053C97.4213 74.9338 97.9297 75.4132 98.5233 76.0001C96.6232 75.8175 94.8134 75.6139 93.0591 75.4167C89.9398 75.0659 86.9961 74.7349 84.0325 74.5759C62.8863 73.4051 45.981 80.6168 35.1997 99.7188C29.9959 108.998 27.5113 119.133 26.2008 129.461C23.3661 151.864 26.9298 173.65 35.4122 194.683C39.4111 204.659 44.7196 213.855 52.0646 221.757C65.0301 235.763 80.7441 241.228 99.5054 236.866C104.626 235.664 109.814 233.975 114.554 231.579C142.397 217.535 162.102 195.577 175.174 167.515C179.03 159.149 181.302 150.255 181.779 141.062ZM169.818 57.7596C165.354 73.7621 143.062 86.3666 127.671 81.7897C127.089 67.7339 152.488 53.1308 169.818 57.7596ZM88.5422 41.0816C105.85 42.5213 124.155 64.3574 120.258 78.6425C103.571 77.3092 87.4274 58.2656 88.5422 41.0816ZM65.2538 82.7671C74.7119 80.0656 84.3164 80.3721 93.8227 82.0246C113.408 85.35 132.56 90.4312 150.099 100.111C154.809 102.686 158.984 106.315 163.121 109.912L163.123 109.914C164.145 110.802 165.165 111.689 166.19 112.557C167.456 113.608 168.406 115.067 169.358 116.529L169.358 116.53C169.81 117.224 170.263 117.92 170.751 118.572C170.645 118.687 170.535 118.818 170.425 118.949C170.315 119.08 170.205 119.211 170.1 119.325C157.388 116.243 145.751 110.939 136.213 101.61C133.002 98.4429 132.658 98.6331 128.901 100.879C125.359 102.971 121.637 104.735 117.892 106.51C116.936 106.963 115.979 107.417 115.022 107.877C111.916 109.369 109.627 108.276 108.058 105.437C107.719 104.811 107.38 104.184 107.04 103.557L107.04 103.556L107.039 103.555C105.009 99.808 102.969 96.0432 101.153 92.2371C99.3188 88.3091 98.7753 87.9356 94.5812 89.1872C81.8459 92.9702 69.4856 90.9298 57.0456 85.9007C57.8928 85.5697 58.7249 85.2209 59.5527 84.8738C61.4326 84.0855 63.2905 83.3065 65.2538 82.7671ZM169.5 164.362C157.357 190.956 138.771 211.789 112.581 225.369C102.784 230.504 92.2663 233.117 81.0608 231.337C70.8288 229.693 62.8582 224.215 56.1234 216.705C47.4741 207.054 41.941 195.623 38.1093 183.307C31.8969 163.435 29.6093 143.246 33.6624 122.64C35.564 112.772 39.0969 103.517 45.3198 95.472C48.7856 90.9726 49.5305 90.8977 54.8164 92.6369C69.9678 97.7958 77.8244 98.3946 95.035 95.9003C95.7437 97.126 96.4305 98.3509 97.1127 99.5678C98.8939 102.745 100.645 105.868 102.675 108.806C107.054 115.203 109.868 116.23 117.092 113.753C120.432 112.639 123.635 111.147 126.995 109.582C128.785 108.748 130.621 107.893 132.545 107.064C132.144 106.948 132.516 106.911 132.745 107.121C143.742 117.16 156.849 122.888 171.318 125.897C173.58 126.331 174.37 127.354 174.719 129.408C176.746 141.71 174.497 153.287 169.5 164.362Z" fill="#EA6A82"/>
</svg>
