<svg width="165" height="198" viewBox="0 0 165 198" fill="none" xmlns="http://www.w3.org/2000/svg">
<path d="M134.145 163.156C133.691 162.466 131.897 161.945 131.138 162.276C130.131 162.746 128.979 164.113 128.867 165.187C128.77 166.568 129.063 167.97 129.361 169.398C129.473 169.935 129.586 170.476 129.679 171.021C129.846 171.057 130.005 171.106 130.163 171.156C130.321 171.205 130.479 171.254 130.646 171.29C131.04 170.844 131.457 170.413 131.872 169.984L131.873 169.983C132.841 168.984 133.795 167.998 134.405 166.856C135.045 165.908 134.791 164.128 134.145 163.156Z" fill="#E9616E" fill-opacity="0.3"/>
<path d="M80.6953 88.0888C81.4215 87.3532 83.2031 86.8702 84.2229 87.1754C85.0492 87.4266 86.1493 89.0884 86.127 89.9161C86.0153 90.9898 84.9324 92.4807 83.9088 92.8623C82.7211 93.2739 81.4199 93.4089 79.8669 93.5699C79.0664 93.6529 78.1988 93.7428 77.2456 93.8812C77.7295 93.0498 78.1335 92.2856 78.5051 91.5827C79.2398 90.1929 79.8477 89.0431 80.6953 88.0888Z" fill="#E9616E" fill-opacity="0.3"/>
<path d="M110.101 104.794C109.098 104.576 107.473 105.395 106.729 106.271C105.948 107.261 105.479 108.462 105.01 109.662C104.839 110.098 104.668 110.535 104.483 110.961C104.587 111.261 104.713 111.557 104.839 111.853C104.965 112.148 105.091 112.444 105.195 112.744C105.662 112.568 106.142 112.405 106.623 112.242C107.943 111.796 109.276 111.345 110.403 110.59C111.375 109.944 112.475 108.541 112.41 107.501C112.451 106.533 111.103 105.011 110.101 104.794Z" fill="#E9616E" fill-opacity="0.3"/>
<path d="M137.804 123.567C138.292 124.433 138.053 126.263 137.413 127.211C136.729 128.224 135.729 129.061 134.475 130.112C133.905 130.588 133.283 131.109 132.615 131.71C132.537 130.793 132.438 129.975 132.348 129.229C132.15 127.593 131.994 126.3 132.194 125.068C132.359 124.029 133.477 122.486 134.43 122.209C135.435 121.969 137.263 122.666 137.804 123.567Z" fill="#E9616E" fill-opacity="0.3"/>
<path d="M100.185 142.075C99.1096 142.192 97.5715 143.223 97.2137 144.207C96.767 145.405 96.6327 146.709 96.4971 148.026C96.4319 148.659 96.3662 149.297 96.2653 149.925C96.3969 150.014 96.5506 150.099 96.7042 150.183C96.8578 150.268 97.0114 150.352 97.143 150.441C97.5683 150.201 98.0057 149.975 98.4435 149.749C99.6608 149.12 100.88 148.489 101.844 147.562C102.659 146.809 103.144 145.068 102.903 144.063C102.644 143.199 101.083 141.992 100.185 142.075Z" fill="#E9616E" fill-opacity="0.3"/>
<path d="M160.006 140.161C160.731 139.654 162.702 139.912 163.333 140.567C164.085 141.382 164.48 143.18 164.07 144.129C163.578 145.418 162.755 146.52 161.926 147.631C161.58 148.095 161.232 148.561 160.907 149.042C160.74 149.006 160.551 148.974 160.362 148.942C160.173 148.911 159.983 148.879 159.816 148.842C159.672 148.25 159.496 147.669 159.322 147.092C158.956 145.882 158.596 144.692 158.543 143.463C158.514 142.371 159.158 140.737 160.006 140.161Z" fill="#E9616E" fill-opacity="0.3"/>
<path d="M105.48 177.136C105.115 176.429 103.128 175.854 102.28 176.202C101.309 176.619 100.226 178.11 100.115 179.184C100.036 180.379 100.282 181.617 100.587 183.149C100.73 183.873 100.888 184.664 101.03 185.547C101.677 184.918 102.285 184.383 102.837 183.898C103.993 182.881 104.905 182.079 105.423 181.081C106.045 180.045 106.003 178.178 105.48 177.136Z" fill="#E9616E" fill-opacity="0.3"/>
<path d="M64.8428 153.463C65.4466 152.568 67.123 152.014 68.2848 152.109C69.1125 152.131 70.3902 153.53 70.3324 154.41C70.3614 155.502 69.6299 157.154 68.7286 157.695C67.6702 158.336 66.4423 158.65 65.2097 158.965C64.6311 159.113 64.0515 159.261 63.4879 159.444C63.3303 159.294 63.2006 159.139 63.0768 158.992C62.9805 158.877 62.8873 158.765 62.7878 158.665C62.987 158.13 63.1591 157.585 63.3305 157.042C63.7285 155.78 64.1227 154.53 64.8428 153.463Z" fill="#E9616E" fill-opacity="0.3"/>
<path d="M70.1539 120.735C69.0276 120.587 67.2815 121.018 66.625 121.877C65.7704 122.978 65.2053 124.314 64.6365 125.659C64.426 126.158 64.2149 126.657 63.9884 127.146L64.6714 127.836C65.2633 127.693 65.87 127.582 66.4747 127.471C67.8342 127.222 69.184 126.975 70.3332 126.372C71.2516 125.919 72.0713 124.25 72.1304 123.141C72.1882 122.261 70.9987 120.845 70.1539 120.735Z" fill="#E9616E" fill-opacity="0.3"/>
<path d="M67.3926 188.279C67.7504 187.295 69.3056 186.353 70.4161 186.183C71.174 186.081 72.7702 187.235 73.0124 188.012C73.2348 189.158 72.8731 190.829 72.0586 191.582C71.1526 192.453 69.9706 193.028 68.7959 193.6C68.2714 193.855 67.7484 194.11 67.2522 194.39C67.1206 194.301 66.9979 194.199 66.8752 194.097C66.7525 193.995 66.6298 193.893 66.4982 193.804C66.5831 193.223 66.6361 192.634 66.6888 192.049C66.8068 190.739 66.9234 189.445 67.3926 188.279Z" fill="#E9616E" fill-opacity="0.3"/>
<path fill-rule="evenodd" clip-rule="evenodd" d="M178.658 155.66C185.45 138.104 180.993 122.914 169.059 109.267C166.793 106.697 164.373 104.297 161.846 101.791C160.84 100.793 159.817 99.7784 158.78 98.7297L159.177 98.7572L159.178 98.7573C160.371 98.8401 161.295 98.9043 162.249 98.9256C176.917 99.3259 188.784 93.775 197.78 82.1493C200.264 78.9227 199.971 77.653 196.461 75.59C186.052 69.3314 174.93 67.8769 163.164 71.1211C162.123 71.4146 161.082 71.7081 160.006 72.0542C166.605 63.6379 175.001 58.3491 185.16 55.7826C185.439 55.7147 185.743 55.6713 186.049 55.6276C186.751 55.5273 187.463 55.4256 187.895 55.0232C188.816 54.1126 189.827 52.727 189.746 51.5993C189.681 50.8067 188 50.0217 186.891 49.5039L186.817 49.4692C186.493 49.305 185.999 49.45 185.519 49.5909C185.322 49.6486 185.128 49.7056 184.948 49.7404C173.521 52.3702 163.82 58.0038 156.073 66.8715C154.678 68.468 153.356 70.1131 151.874 71.9557L151.867 71.9655C151.562 72.3448 151.25 72.7325 150.93 73.1299C150.871 72.5552 150.828 72.0602 150.79 71.6151C150.729 70.9139 150.679 70.3354 150.596 69.764C148.553 54.289 140.692 43.0077 126.641 36.1296C123.252 34.4548 121.981 34.976 120.674 38.6143C116.47 50.1792 117.339 61.4911 122.895 72.4422C123.131 72.9205 123.39 73.3941 123.688 73.9377C123.963 74.438 124.27 74.998 124.62 75.6751C123.02 74.9813 121.505 74.2949 120.036 73.6295C117.423 72.4464 114.958 71.3299 112.427 70.3574C94.3794 63.3861 77.6569 64.8938 62.9089 78.4595C55.7737 85.0587 50.761 93.1671 46.7141 101.774C37.9428 120.446 34.9059 140.383 36.356 161.051C37.0225 170.847 39.0468 180.334 43.2054 189.269C50.5302 205.091 62.6481 214.265 80.1814 215.756C84.9696 216.153 89.9539 216.147 94.7487 215.399C122.9 211.032 146.207 197.498 165.47 176.79C171.176 170.605 175.654 163.515 178.658 155.66ZM191.716 79.8957C183.331 92.5464 160.409 97.2243 148.321 88.9132C151.773 76.5338 177.959 70.9938 191.716 79.8957ZM125.777 42.5179C140.413 48.642 150.174 72.7733 142.766 84.0911C128.639 78.2341 119.97 57.1383 125.777 42.5179ZM93.801 72.1889C102.781 72.5041 111.042 75.4747 118.839 79.5874C134.924 87.9917 150.138 97.8 162.655 111.151C166.024 114.715 168.63 119.044 171.213 123.335C171.851 124.396 172.488 125.454 173.135 126.498C173.939 127.768 174.354 129.303 174.77 130.841C174.967 131.572 175.165 132.305 175.405 133.009C175.281 133.079 175.149 133.162 175.016 133.245C174.884 133.328 174.751 133.411 174.627 133.481C164.448 127.223 155.827 119.337 150.165 108.544C148.266 104.887 147.913 104.956 144.016 105.849C140.349 106.67 136.617 107.156 132.863 107.644C131.905 107.768 130.945 107.893 129.984 108.024C126.864 108.446 125.183 106.852 124.618 103.943C124.5 103.302 124.382 102.661 124.263 102.02C123.553 98.1923 122.84 94.3459 122.334 90.5268C121.846 86.5965 121.479 86.1189 117.481 86.0257C105.348 85.7278 95.1805 80.4745 85.7851 72.6013C86.6145 72.5522 87.4358 72.4832 88.2529 72.4147C90.1085 72.2589 91.9429 72.105 93.801 72.1889ZM161.426 172.452C143.385 192.145 121.367 205.018 94.7825 209.446C84.8219 211.151 74.9454 210.461 65.7081 205.759C57.2788 201.449 51.894 194.444 48.1552 186.021C43.3558 175.198 41.7655 163.706 41.9029 151.924C42.099 132.904 45.7952 114.714 55.1192 97.9471C59.5503 89.9059 65.2263 82.8581 72.8997 77.618C77.1785 74.6835 77.847 74.8282 81.9512 77.8279C93.6664 86.5773 100.326 89.3098 115.986 91.9877C116.256 93.2526 116.508 94.5105 116.759 95.7602C117.412 99.0229 118.054 102.23 118.992 105.355C120.996 112.147 123.153 113.832 130.128 113.713C133.345 113.686 136.549 113.291 139.909 112.877C141.7 112.656 143.536 112.43 145.441 112.251C145.125 112.037 145.46 112.11 145.599 112.357C152.33 124.178 162.109 132.846 173.836 139.535C175.679 140.549 176.078 141.661 175.803 143.544C174.101 154.806 168.887 164.234 161.426 172.452Z" fill="#E9616E" fill-opacity="0.3"/>
</svg>
