<svg width="96" height="152" viewBox="0 0 96 152" fill="none" xmlns="http://www.w3.org/2000/svg">
<path d="M-55.7598 97.2818L-52.8883 97.8249C-23.4194 103.054 1.50346 99.6067 21.4346 87.7036C36.7517 78.5512 45.0169 66.4422 47.3345 60.773C52.158 49.3843 64.6419 34.9333 66.8941 32.4115C71.4504 23.4165 64.9933 13.6368 64.8739 13.5679L63.0047 10.7369L65.3764 8.28412L71.6319 1.8627L72.8177 0.636288L74.5453 0.678194L86.0413 0.626741L91.6009 0.651494L89.9175 6.04975C89.8485 6.16919 87.0704 15.3945 85.8647 21.0686C85.4276 23.205 87.2683 28.5676 89.5548 33.7099L90.2665 35.2355C90.8773 36.3844 91.3181 37.2759 91.419 37.6527C91.5385 37.7217 91.4695 37.8411 91.589 37.9101L91.7589 38.1674L91.8598 38.5442C98.0754 56.4657 96.1577 76.0615 86.4935 95.0071C71.8778 123.356 44.7627 142.737 31.1105 146.799C28.2155 147.676 25.2701 148.364 22.3247 149.053C15.184 150.663 8.28709 151.3 1.56508 151.081C-10.3397 150.738 -21.4626 147.66 -31.4956 141.868C-50.0089 131.179 -58.729 114.837 -60.5932 110.894C-60.8136 110.449 -60.9835 110.191 -60.9146 110.072L-61.7272 108.169L-60.6929 106.378L-58.4677 102.248L-56.2425 98.1179L-55.7598 97.2818ZM-50.5648 102.351C-49.2005 103.298 -47.8866 104.057 -46.4533 104.884C-27.7012 115.711 -5.43568 117.418 19.6769 109.781C35.7783 105.062 69.5491 77.7393 80.9327 41.4722C80.7812 40.907 80.5103 40.2728 80.3589 39.7076C75.414 28.4122 61.9277 45.1511 56.9356 52.1426C54.6279 55.5879 52.6281 59.0517 51.1935 62.364C46.3515 74.0607 18.2928 113.281 -50.5648 102.351ZM81.8308 20.3322C83.0549 14.3502 85.971 4.88603 85.971 4.88603L74.544 4.81804L68.2885 11.2395C68.2885 11.2395 76.5827 23.3538 70.2704 34.8386C70.2704 34.8386 70.2704 34.8386 70.2015 34.958C70.2704 34.8386 70.2704 34.8386 70.2704 34.8386C70.4773 34.4803 70.6842 34.1219 70.8911 33.7636C78.3779 27.4161 77.526 18.9615 76.8057 15.5199C77.6319 18.2264 79.996 25.1652 83.4634 30.1929C82.2653 26.4754 81.2557 22.7074 81.8308 20.3322ZM56.9356 52.1426C62.6358 43.6488 69.5304 35.8446 70.4588 34.7881C69.5993 35.7251 62.6358 43.6488 56.9356 52.1426ZM40.5417 137.912C42.2743 136.842 44.1952 135.721 46.1347 134.293C47.1641 133.613 48.0051 132.984 49.0346 132.304C51.884 130.127 54.8713 127.711 57.8772 124.988C59.3203 123.591 60.883 122.264 62.3951 120.748C64.3026 118.824 66.2789 116.78 68.2048 114.547C69.4781 112.893 70.8708 111.309 72.213 109.536C74.4837 106.706 76.5845 103.619 78.4969 100.582C80.0645 98.1432 81.5816 95.5155 82.9103 92.9383C83.5494 91.5555 84.239 90.3611 84.8781 88.9783C86.0873 86.3321 87.1267 83.4286 88.0971 80.6445C88.8421 78.5266 89.2793 76.3901 89.9049 74.2033C90.0108 73.4681 90.2361 72.802 90.342 72.0669C91.1659 67.6056 91.4936 63.1764 91.4629 58.5404C91.3534 56.2475 91.2438 53.9547 90.8264 51.6435C90.5285 49.4011 90.1111 47.0899 89.5053 44.8291C88.3713 42.104 86.2214 40.8628 85.3803 41.492C84.8237 43.5594 84.0787 45.6774 83.2832 47.6069C81.4804 52.9362 79.5446 57.3924 78.4277 58.4994C63.4487 87.7538 36.0849 109.221 20.8565 113.806C-9.78868 123.027 -32.3976 117.777 -48.5221 108.468C-50.7915 107.157 -52.8725 105.797 -54.8845 104.317L-57.1096 108.447C-56.7378 109.458 -49.9422 123.892 -34.5948 134.823C-32.8721 135.977 -31.1495 137.131 -29.3579 138.165C-15.6222 146.095 3.75691 150.595 29.931 142.774C30.3078 142.673 30.6845 142.572 30.9419 142.402C31.6955 142.2 32.3297 141.929 33.1522 141.608C35.3625 140.814 37.9177 139.422 40.5417 137.912Z" fill="#FCAE00"/>
</svg>
