<svg width="983" height="631" viewBox="0 0 983 631" fill="none" xmlns="http://www.w3.org/2000/svg">
<g filter="url(#filter0_i)">
<path d="M105.065 115.85C149.192 195.052 207.606 299.897 397.284 328.226C508.898 344.895 593.455 414.039 676.623 482.047C768.101 556.85 857.898 630.279 980.17 630.994C981.12 630.999 982.063 631.001 983 630.999V0H0C18.4766 6.45564 45.3348 24.3329 74.7163 65.4633C85.0599 79.943 94.6659 97.1845 105.065 115.85Z" fill="#EA6A82"/>
</g>
<g filter="url(#filter1_i)">
<path d="M983 0H78C96.4766 6.45564 123.335 24.3329 152.716 65.4633C163.06 79.943 172.666 97.1845 183.065 115.85C227.192 195.052 285.606 299.897 475.284 328.226C586.898 344.895 671.455 414.039 754.623 482.047C826.303 540.661 896.951 598.432 983 621.035V0Z" fill="#D3405C"/>
</g>
<defs>
<filter id="filter0_i" x="0" y="-8" width="987" height="639" filterUnits="userSpaceOnUse" color-interpolation-filters="sRGB">
<feFlood flood-opacity="0" result="BackgroundImageFix"/>
<feBlend mode="normal" in="SourceGraphic" in2="BackgroundImageFix" result="shape"/>
<feColorMatrix in="SourceAlpha" type="matrix" values="0 0 0 0 0 0 0 0 0 0 0 0 0 0 0 0 0 0 127 0" result="hardAlpha"/>
<feOffset dx="4" dy="-8"/>
<feGaussianBlur stdDeviation="4"/>
<feComposite in2="hardAlpha" operator="arithmetic" k2="-1" k3="1"/>
<feColorMatrix type="matrix" values="0 0 0 0 0.478431 0 0 0 0 0.282353 0 0 0 0 0.176471 0 0 0 0.1 0"/>
<feBlend mode="normal" in2="shape" result="effect1_innerShadow"/>
</filter>
<filter id="filter1_i" x="78" y="-8" width="909" height="629.035" filterUnits="userSpaceOnUse" color-interpolation-filters="sRGB">
<feFlood flood-opacity="0" result="BackgroundImageFix"/>
<feBlend mode="normal" in="SourceGraphic" in2="BackgroundImageFix" result="shape"/>
<feColorMatrix in="SourceAlpha" type="matrix" values="0 0 0 0 0 0 0 0 0 0 0 0 0 0 0 0 0 0 127 0" result="hardAlpha"/>
<feOffset dx="4" dy="-8"/>
<feGaussianBlur stdDeviation="4"/>
<feComposite in2="hardAlpha" operator="arithmetic" k2="-1" k3="1"/>
<feColorMatrix type="matrix" values="0 0 0 0 0.478431 0 0 0 0 0.282353 0 0 0 0 0.176471 0 0 0 0.1 0"/>
<feBlend mode="normal" in2="shape" result="effect1_innerShadow"/>
</filter>
</defs>
</svg>
