<svg width="80" height="90" viewBox="0 0 80 90" fill="none" xmlns="http://www.w3.org/2000/svg">
<path d="M77.4533 21.4722L60.1741 86.193C59.7193 87.8682 58.052 88.7819 56.5363 88.325L12.5803 76.4468C10.913 75.99 10.0036 74.3149 10.4583 72.792L27.7375 8.0712C28.1923 6.39608 29.8596 5.48237 31.3753 5.93922L75.3313 17.8174C76.9986 18.2742 77.9081 19.9494 77.4533 21.4722Z" fill="#FFCE3D"/>
<path d="M4.54695 1.52295H53.0502C54.7175 1.52295 56.0816 2.89351 56.0816 4.56863V74.6194C56.0816 76.2945 54.7175 77.6651 53.0502 77.6651H4.54695C2.87966 77.6651 1.5155 76.2945 1.5155 74.6194V4.56863C1.5155 2.89351 2.87966 1.52295 4.54695 1.52295Z" fill="#FFCE3D"/>
<path d="M56.0816 74.6195C56.0816 76.2946 54.7175 77.6651 53.0502 77.6651H4.54695C2.87966 77.6651 1.5155 76.2946 1.5155 74.6195C1.5155 70.3555 4.8501 67.0052 9.09413 67.0052H48.503C52.747 67.0052 56.0816 70.3555 56.0816 74.6195Z" fill="#FCAE00"/>
<path d="M18.6432 44.924C21.2199 47.5128 25.3124 47.5128 27.8891 44.924L28.9501 43.858L30.0111 44.924C32.5879 47.5128 36.6803 47.5128 39.2571 44.924C41.8338 42.3352 41.8338 38.2235 39.2571 35.6347L29.5564 25.8885C29.2533 25.5839 28.647 25.5839 28.3438 25.8885L18.6432 35.6347C16.0664 38.3758 16.0664 42.4874 18.6432 44.924C18.4916 44.924 18.4916 44.924 18.6432 44.924Z" fill="white"/>
<path d="M78.5143 18.4265C77.9081 17.3605 76.9986 16.5991 75.786 16.2945L57.5973 11.4214V4.56865C57.5973 1.97982 55.6269 0.00012207 53.0502 0.00012207H4.54693C1.9702 0.00012207 -0.000244141 1.97982 -0.000244141 4.56865V74.6194C-0.000244141 77.2082 1.9702 79.1879 4.54693 79.1879H16.3696L56.0816 89.8478C56.5363 90.0001 56.8395 90.0001 57.2942 90.0001C59.4162 90.0001 61.0835 88.6296 61.6898 86.6499L78.9691 21.9291C79.2722 20.7108 79.1206 19.4925 78.5143 18.4265ZM9.54883 76.1423H4.54693C3.6375 76.1423 3.03121 75.5331 3.03121 74.6194V4.56865C3.03121 3.65494 3.6375 3.04581 4.54693 3.04581H53.0502C53.9596 3.04581 54.5659 3.65494 54.5659 4.56865V74.6194C54.5659 75.5331 53.9596 76.1423 53.0502 76.1423H9.54883ZM76.0892 21.1676L58.8099 85.8885C58.6583 86.3453 58.5068 86.6499 58.052 86.8022C57.7489 86.9544 57.2942 87.1067 56.8395 86.9544L28.0407 79.1879H53.0502C55.6269 79.1879 57.5973 77.2082 57.5973 74.6194V14.6194L74.8766 19.3402C75.3313 19.4925 75.6345 19.6448 75.786 20.1016C76.0892 20.4062 76.0892 20.7108 76.0892 21.1676Z" fill="#7A482D"/>
<path d="M10.4583 18.8833L10.7614 18.2742H16.5212L16.8243 18.8833C17.1274 19.6448 18.0369 19.9493 18.7947 19.6448C19.5526 19.3402 19.8557 18.4265 19.5526 17.6651C19.5526 17.6651 19.5526 17.6651 19.5526 17.5128L15.0054 8.37572C14.5507 7.76658 13.6413 7.46201 12.8834 7.76658C12.5803 7.91886 12.4287 8.22343 12.2771 8.528L7.72994 17.6651C7.27523 18.2742 7.57837 19.3402 8.33623 19.6448C9.0941 20.1016 10.0035 19.797 10.4583 18.8833C10.4583 19.0356 10.4583 19.0356 10.4583 18.8833ZM13.6413 12.4874L15.0054 15.2285H12.2771L13.6413 12.4874ZM23.1903 48.4265C24.7061 48.4265 26.0702 47.9696 27.2828 47.2082V50.2539H24.2514C23.3419 50.2539 22.7356 50.863 22.7356 51.7767C22.7356 52.6904 23.3419 53.2996 24.2514 53.2996H33.3457C34.2551 53.2996 34.8614 52.6904 34.8614 51.7767C34.8614 50.863 34.2551 50.2539 33.3457 50.2539H30.3143V47.2082C33.4973 49.1879 37.4382 48.5788 40.1665 45.9899C43.3495 42.792 43.3495 37.7666 40.1665 34.5686L30.4658 24.8224C29.5564 23.9087 28.0407 23.9087 27.1312 24.8224L17.4306 34.5686C14.2476 37.7666 14.3991 42.792 17.4306 45.9899C19.0979 47.5128 21.0683 48.2742 23.1903 48.4265ZM19.7042 36.8529L28.7985 27.7158L37.8929 36.8529C39.8633 38.8326 39.8633 42.0305 37.8929 43.858C35.9224 45.6854 32.891 45.6854 30.9205 43.858L29.8595 42.792C29.2533 42.1828 28.3438 42.1828 27.7375 42.792L26.6765 43.858C24.7061 45.6854 21.6746 45.6854 19.7042 43.858C17.7337 41.8783 17.7337 38.8326 19.7042 36.8529ZM10.6098 63.9595C9.70039 63.9595 9.0941 64.5686 9.0941 65.4823V68.528C9.0941 69.4417 9.70039 70.0509 10.6098 70.0509C11.5193 70.0509 12.1255 69.4417 12.1255 68.528V65.4823C12.1255 64.5686 11.5193 63.9595 10.6098 63.9595ZM18.1885 70.0509C19.0979 70.0509 19.7042 69.4417 19.7042 68.528V65.4823C19.7042 64.5686 19.0979 63.9595 18.1885 63.9595C17.279 63.9595 16.6727 64.5686 16.6727 65.4823V68.528C16.6727 69.4417 17.279 70.0509 18.1885 70.0509ZM25.7671 63.9595C24.8576 63.9595 24.2514 64.5686 24.2514 65.4823V68.528C24.2514 69.4417 24.8576 70.0509 25.7671 70.0509C26.6765 70.0509 27.2828 69.4417 27.2828 68.528V65.4823C27.2828 64.5686 26.6765 63.9595 25.7671 63.9595ZM33.3457 63.9595C32.4363 63.9595 31.83 64.5686 31.83 65.4823V68.528C31.83 69.4417 32.4363 70.0509 33.3457 70.0509C34.2551 70.0509 34.8614 69.4417 34.8614 68.528V65.4823C34.8614 64.5686 34.2551 63.9595 33.3457 63.9595ZM40.9243 63.9595C40.0149 63.9595 39.4086 64.5686 39.4086 65.4823V68.528C39.4086 69.4417 40.0149 70.0509 40.9243 70.0509C41.8338 70.0509 42.4401 69.4417 42.4401 68.528V65.4823C42.4401 64.5686 41.8338 63.9595 40.9243 63.9595ZM48.503 70.0509C49.4124 70.0509 50.0187 69.4417 50.0187 68.528V65.4823C50.0187 64.5686 49.4124 63.9595 48.503 63.9595C47.5935 63.9595 46.9872 64.5686 46.9872 65.4823V68.528C46.9872 69.4417 47.5935 70.0509 48.503 70.0509Z" fill="#7A482D"/>
</svg>
