<svg width="81" height="80" viewBox="0 0 81 80" fill="none" xmlns="http://www.w3.org/2000/svg">
<path d="M10.1523 63.0797C10.1523 63.0797 12.1827 58.2066 13.9425 59.0188C15.7022 59.831 22.1997 71.743 40.0677 71.743C58.2064 71.743 63.8917 58.0713 66.7344 58.6127C68.2234 58.8834 69.3063 62.809 69.3063 64.0273C69.3063 65.2455 55.9053 78.7819 43.3164 78.3758C30.7276 77.9697 12.7242 72.6905 10.1523 63.0797Z" fill="#FCAE00"/>
<path d="M38.7735 55.7587C38.1094 55.7587 37.711 55.207 37.711 54.6553V53.5518C36.3828 53.138 35.3203 52.3104 34.5235 51.069C33.5938 49.6897 33.1953 47.8966 33.1953 45.8277V43.8966C33.1953 43.207 33.7266 42.7932 34.2578 42.7932H38.2422C38.9063 42.7932 39.3047 43.3449 39.3047 43.8966V46.1035C39.3047 47.6208 39.836 47.6208 40.3672 47.6208C40.8985 47.6208 41.4297 47.6208 41.4297 46.1035C41.4297 45.4139 41.2969 44.8621 41.0313 44.4484C40.7656 43.8966 40.5 43.4828 40.1016 43.069C39.7031 42.6552 39.0391 42.1035 38.2422 41.4139C37.3125 40.4484 36.3828 39.6208 35.7188 38.9311C35.0547 38.1035 34.3906 37.2759 33.9922 36.1725C33.461 35.069 33.1953 33.6897 33.1953 32.1725C33.1953 30.1035 33.5938 28.3104 34.5235 26.9311C35.3203 25.8277 36.3828 25.0001 37.5781 24.4484V23.3449C37.5781 22.6552 38.1094 22.2415 38.6406 22.2415H42.0938C42.7578 22.2415 43.1563 22.7932 43.1563 23.3449V24.4484C44.4844 24.8621 45.5469 25.6897 46.3438 26.9311C47.2735 28.3104 47.6719 30.1035 47.6719 32.1725V33.0001C47.6719 33.6897 47.1406 34.1035 46.6094 34.1035H42.625C41.961 34.1035 41.5625 33.5518 41.5625 33.0001V31.8966C41.5625 30.9311 41.4297 30.6552 41.2969 30.5173C41.2969 30.5173 41.1641 30.2415 40.6328 30.2415C40.1016 30.3794 39.9688 30.5173 39.9688 30.5173C39.836 30.6552 39.7031 30.9311 39.7031 31.8966C39.7031 32.5863 39.836 33.138 40.1016 33.5518C40.3672 34.1035 40.6328 34.5173 41.0313 34.9311C41.4297 35.3449 42.0938 35.8966 42.8906 36.5863C43.9531 37.4139 44.75 38.2415 45.4141 38.9311C46.0781 39.7587 46.7422 40.5863 47.1406 41.6897C47.6719 42.7932 47.9375 44.1725 47.9375 45.6897C47.9375 47.7587 47.5391 49.5518 46.6094 50.9311C45.8125 52.0346 44.75 52.8621 43.4219 53.4139V54.5173C43.4219 55.207 42.8906 55.6208 42.3594 55.6208H38.7735V55.7587Z" fill="white"/>
<path d="M42.2266 23.3449V25.4139C43.6875 25.6898 44.8828 26.5174 45.5469 27.6208C46.3438 28.7243 46.7422 30.2415 46.7422 32.1725V33.0001H42.7578V31.8967C42.7578 30.9312 42.625 30.2415 42.2266 29.8277C41.8281 29.4139 41.2969 29.1381 40.6328 29.1381C39.9688 29.1381 39.4375 29.4139 39.0391 29.8277C38.7735 30.2415 38.5078 30.9312 38.5078 31.8967C38.5078 32.7243 38.6406 33.4139 39.0391 34.1036C39.3047 34.7932 39.7031 35.3449 40.2344 35.7587C40.7656 36.1725 41.2969 36.8622 42.0938 37.5518C43.0235 38.3794 43.8203 39.0691 44.4844 39.7587C45.1485 40.4484 45.6797 41.276 46.0781 42.2415C46.4766 43.207 46.7422 44.4484 46.7422 45.6898C46.7422 47.6208 46.3438 49.1381 45.5469 50.2415C44.75 51.345 43.6875 52.1725 42.2266 52.4484V54.5174H38.7735V52.4484C37.3125 52.1725 36.1172 51.345 35.3203 50.2415C34.5235 49.1381 34.125 47.4829 34.125 45.6898V43.7587H38.1094V45.9656C38.1094 47.7587 38.7735 48.7243 40.2344 48.7243C41.6953 48.7243 42.3594 47.7587 42.3594 45.9656C42.3594 45.1381 42.2266 44.4484 41.8281 43.7587C41.5625 43.0691 41.1641 42.5174 40.6328 42.1036C40.5 41.6898 39.836 41.1381 39.0391 40.3105C38.1094 39.4829 37.3125 38.7932 36.6485 38.1036C35.9844 37.4139 35.4531 36.5863 35.0547 35.6208C34.5235 34.6553 34.3906 33.5518 34.3906 32.1725C34.3906 30.2415 34.7891 28.7243 35.4531 27.6208C36.25 26.5174 37.3125 25.6898 38.7735 25.4139V23.3449H42.2266ZM42.2266 21.0001H38.7735C37.5781 21.0001 36.5156 22.1036 36.5156 23.3449V23.7587C35.3203 24.3105 34.3906 25.1381 33.5938 26.3794C32.6641 27.8967 32.1328 29.8277 32.1328 32.1725C32.1328 33.8277 32.3985 35.345 32.9297 36.5863C33.461 37.8277 34.125 38.7932 34.9219 39.7587C35.4531 40.3105 36.1172 40.8622 36.7813 41.5518H34.2578C33.0625 41.5518 32 42.6553 32 43.8967V45.8277C32 48.1725 32.5313 50.2415 33.5938 51.7587C34.3906 52.8622 35.3203 53.8277 36.6485 54.3794V54.6553C36.6485 55.8967 37.711 57.0001 38.9063 57.0001H42.3594C43.5547 57.0001 44.6172 55.8967 44.6172 54.6553V54.3794C45.8125 53.8277 46.875 53.0001 47.5391 51.7587C48.6016 50.2415 49.1328 48.1725 49.1328 45.8277C49.1328 44.1725 48.8672 42.6553 48.336 41.4139C47.8047 40.1725 47.1406 39.0691 46.3438 38.2415C45.6797 37.5518 44.75 36.7243 43.6875 35.7587C43.5547 35.6208 43.4219 35.4829 43.2891 35.3449H46.875C48.0703 35.3449 49.1328 34.2415 49.1328 33.0001V32.1725C49.1328 29.8277 48.6016 27.7587 47.5391 26.2415C46.7422 25.1381 45.6797 24.3105 44.4844 23.7587V23.3449C44.4844 22.1036 43.4219 21.0001 42.2266 21.0001Z" fill="#7A482D"/>
<path d="M18.4095 58.748C17.8681 58.2065 17.0559 58.0712 16.5144 58.6126L14.484 60.3724C13.9425 60.9138 13.8071 61.726 14.3486 62.2675C14.8901 62.8089 15.7022 62.9443 16.2437 62.4028L18.2741 60.6431C18.8156 60.237 18.8156 59.4248 18.4095 58.748ZM22.7411 62.9443C22.1997 62.4028 21.3875 62.5382 20.8461 63.0796L19.0863 65.1101C18.5449 65.6515 18.6802 66.4637 19.2217 67.0052C19.7631 67.5466 20.5753 67.4113 21.1168 66.8698L22.8765 64.8394C23.418 64.2979 23.2826 63.4857 22.7411 62.9443ZM28.2911 66.3284C27.6142 65.9223 26.8021 66.193 26.396 66.8698L25.1777 69.3064C24.7716 69.9832 25.0423 70.7954 25.7192 71.2015C26.396 71.6076 27.2082 71.3368 27.6142 70.66L28.8325 68.2235C29.2386 67.5466 28.9679 66.7345 28.2911 66.3284ZM33.9763 68.6296C33.2995 68.4942 32.4873 68.9003 32.352 69.5771L31.6752 72.149C31.5398 72.8258 31.9459 73.638 32.6227 73.7734C33.2995 73.9087 34.1117 73.5026 34.2471 72.8258L34.9239 70.2539C35.1946 69.5771 34.7885 68.9003 33.9763 68.6296Z" fill="#7A482D"/>
<path d="M61.9966 60.6432L64.027 62.4029C64.5685 62.9444 65.516 62.809 65.9221 62.2675C66.4636 61.7261 66.3282 60.7785 65.7868 60.3724L63.7563 58.6127C63.2149 58.2066 62.2673 58.2066 61.8612 58.7481C61.3198 59.4249 61.4551 60.2371 61.9966 60.6432ZM57.3942 64.8394L59.1539 66.8699C59.6954 67.4114 60.5076 67.5467 61.049 67.0053C61.5905 66.4638 61.7259 65.6516 61.1844 65.1102L59.4247 63.0797C58.8832 62.5383 58.071 62.4029 57.5296 62.9444C56.8528 63.4858 56.8528 64.298 57.3942 64.8394ZM51.3029 68.2235L52.5211 70.6601C52.9272 71.3369 53.7394 71.6076 54.4162 71.2015C55.093 70.7955 55.3638 69.9833 54.9577 69.3065L53.7394 66.8699C53.3333 66.1931 52.5211 65.9224 51.8443 66.3284C51.1675 66.7345 51.0321 67.5467 51.3029 68.2235ZM45.2115 70.254L45.8883 72.8259C46.0237 73.5027 46.8358 73.9088 47.5127 73.7735C48.1895 73.6381 48.5956 72.8259 48.4602 72.1491L47.7834 69.5772C47.648 68.9004 46.8358 68.4943 46.159 68.6296C45.4822 68.9004 45.0761 69.5772 45.2115 70.254Z" fill="#7A482D"/>
<path d="M40.0677 80.0001C18.0034 80.0001 0 62.1321 0 40.0678C0 18.0035 18.0034 0.00012207 40.0677 0.00012207C62.132 0.00012207 80.1354 18.0035 80.1354 40.0678C80.1354 62.1321 62.132 80.0001 40.0677 80.0001ZM61.8612 54.4164C61.7259 54.4164 61.7259 54.4164 61.5905 54.5517L60.7783 55.6346C56.5821 61.1846 50.22 64.9747 43.3164 65.7869L41.9628 65.9223C41.8274 65.9223 41.692 66.0577 41.692 66.193V76.3453C41.692 76.4807 41.692 76.4807 41.8274 76.4807L41.9628 76.616L43.7225 76.4807C54.2809 75.3978 63.7563 69.8478 69.9831 61.3199L71.066 59.8309C71.066 59.8309 71.066 59.6956 71.066 59.5602C71.066 59.4248 71.066 59.4248 70.9306 59.4248L61.8612 54.4164C61.9966 54.4164 61.8612 54.4164 61.8612 54.4164ZM18.1387 54.281H18.0034L9.20474 59.5602L9.06937 59.6956C9.06937 59.8309 9.06937 59.8309 9.06937 59.9663L10.1523 61.4553C16.379 70.1186 25.8545 75.6685 36.4129 76.616L38.1726 76.7514C38.1726 76.7514 38.3079 76.7514 38.3079 76.616L38.4433 76.4807V66.3284C38.4433 66.193 38.308 66.0577 38.1726 66.0577L36.819 65.9223C29.9154 65.1101 23.6887 61.4553 19.357 55.6346L18.5448 54.4164C18.4095 54.4164 18.2741 54.281 18.1387 54.281ZM40.0677 17.1913C27.4788 17.1913 17.1912 27.479 17.1912 40.0678C17.1912 52.6566 27.4788 62.9443 40.0677 62.9443C52.6565 62.9443 62.9442 52.6566 62.9442 40.0678C62.9442 27.479 52.6565 17.1913 40.0677 17.1913ZM72.6904 23.1473C72.555 23.1473 72.555 23.1473 72.6904 23.1473L63.621 28.2912C63.4856 28.4265 63.4856 28.5619 63.4856 28.6972L64.0271 30.0509C65.3807 33.1643 66.0575 36.5483 66.0575 40.0678C66.0575 43.5873 65.3807 46.9714 64.0271 50.0847L63.4856 51.4384C63.4856 51.5737 63.4856 51.7091 63.621 51.8445L72.555 56.9883H72.6904C72.6904 56.9883 72.6904 56.9883 72.8257 56.9883C72.9611 56.9883 72.9611 56.8529 72.9611 56.8529L73.6379 55.2285C75.8037 50.4908 76.8866 45.347 76.8866 40.2032C76.8866 34.924 75.8037 29.9155 73.6379 25.1778L72.9611 23.5534C72.8257 23.2827 72.8257 23.1473 72.6904 23.1473ZM7.44501 23.1473C7.30964 23.1473 7.30964 23.1473 7.44501 23.1473C7.30964 23.1473 7.17428 23.2827 7.17428 23.2827L6.49746 24.9071C4.33164 29.6448 3.24873 34.7886 3.24873 39.9324C3.24873 45.2116 4.33164 50.2201 6.49746 54.9578L7.17428 56.5822C7.17428 56.8529 7.17428 56.8529 7.30964 56.8529C7.30964 56.8529 7.30964 56.8529 7.44501 56.8529H7.58037L16.5144 51.7091C16.6497 51.5737 16.6497 51.4384 16.6497 51.303L16.1083 49.9494C14.7547 46.836 14.0778 43.4519 14.0778 39.9324C14.0778 36.413 14.7547 33.0289 16.1083 29.9155L16.6497 28.5619C16.6497 28.4265 16.6497 28.2912 16.5144 28.1558L7.44501 23.1473ZM41.9628 3.24885C41.9628 3.24885 41.8274 3.24885 41.8274 3.38422L41.692 3.51958V13.6719C41.692 13.8072 41.8274 13.9426 41.9628 13.9426L43.3164 14.078C50.22 14.8901 56.4467 18.545 60.7783 24.3656L61.5905 25.5839C61.5905 25.7192 61.7259 25.7192 61.8612 25.7192H61.9966L70.9306 20.4401L71.066 20.3047C71.066 20.1693 71.066 20.1693 71.066 20.034L69.9831 18.545C63.7563 10.017 54.1455 4.46713 43.7225 3.38422L41.9628 3.24885ZM36.2775 3.38422C25.8545 4.46713 16.2437 10.017 10.1523 18.6803L9.06937 20.1693C9.06937 20.1693 9.06937 20.3047 9.06937 20.4401C9.06937 20.5754 9.06937 20.5754 9.20474 20.5754L18.1387 25.7192H18.2741C18.4095 25.7192 18.4095 25.7192 18.5448 25.5839L19.357 24.501C23.5533 18.9511 29.9154 15.1609 36.819 14.3487L38.1726 14.2133C38.308 14.2133 38.4433 14.078 38.4433 13.9426V3.65494C38.4433 3.51958 38.308 3.38422 38.1726 3.38422H36.4129H36.2775Z" fill="#7A482D"/>
</svg>
