<svg width="80" height="80" viewBox="0 0 80 80" fill="none" xmlns="http://www.w3.org/2000/svg">
<path d="M61.7567 54.3244C61.6216 54.3244 61.6216 54.3244 61.4865 54.4595L60.6756 55.5406C56.4865 61.0811 50.1351 64.8649 43.2432 65.6757L41.8919 65.8109C41.7567 65.8109 41.6216 65.946 41.6216 66.0811V76.2163C41.6216 76.3514 41.6216 76.3514 41.7567 76.3514L41.8919 76.4865L43.6486 76.3514C54.1892 75.2703 63.6486 69.7298 69.8648 61.2163L70.9459 59.7298C70.9459 59.7298 70.9459 59.5946 70.9459 59.4595C70.9459 59.3244 70.9459 59.3244 70.8108 59.3244L61.7567 54.3244C61.8919 54.3244 61.7567 54.3244 61.7567 54.3244ZM18.1081 54.1892H17.9729L9.18916 59.4595L9.05402 59.5946C9.05402 59.7298 9.05402 59.7298 9.05402 59.8649L10.1351 61.3514C16.3513 70 25.8108 75.5406 36.3513 76.4865L38.1081 76.6217C38.1081 76.6217 38.2432 76.6217 38.2432 76.4865L38.3783 76.3514V66.2163C38.3783 66.0811 38.2432 65.946 38.1081 65.946L36.7567 65.8109C29.8648 65 23.6486 61.3514 19.3243 55.5406L18.5135 54.3244C18.3783 54.3244 18.2432 54.1892 18.1081 54.1892ZM40 17.1622C27.4324 17.1622 17.1621 27.4325 17.1621 40C17.1621 52.5676 27.4324 62.8379 40 62.8379C52.5675 62.8379 62.8378 52.5676 62.8378 40C62.8378 27.4325 52.5675 17.1622 40 17.1622ZM72.5675 23.1082C72.4324 23.1082 72.4324 23.1082 72.5675 23.1082L63.5135 28.2433C63.3783 28.3784 63.3783 28.5136 63.3783 28.6487L63.9189 30C65.2702 33.1082 65.9459 36.4865 65.9459 40C65.9459 43.5136 65.2702 46.8919 63.9189 50L63.3783 51.3514C63.3783 51.4865 63.3783 51.6217 63.5135 51.7568L72.4324 56.8919H72.5675C72.5675 56.8919 72.5675 56.8919 72.7027 56.8919C72.8378 56.8919 72.8378 56.7568 72.8378 56.7568L73.5135 55.1352C75.6756 50.4054 76.7567 45.2703 76.7567 40.1352C76.7567 34.8649 75.6756 29.8649 73.5135 25.1352L72.8378 23.5136C72.7027 23.2433 72.7027 23.1082 72.5675 23.1082ZM7.4324 23.1082C7.29727 23.1082 7.29727 23.1082 7.4324 23.1082C7.29727 23.1082 7.16213 23.2433 7.16213 23.2433L6.48646 24.8649C4.32429 29.5946 3.24321 34.7298 3.24321 39.8649C3.24321 45.1352 4.32429 50.1352 6.48646 54.8649L7.16213 56.4865C7.16213 56.7568 7.16213 56.7568 7.29727 56.7568C7.29727 56.7568 7.29727 56.7568 7.4324 56.7568H7.56754L16.4865 51.6217C16.6216 51.4865 16.6216 51.3514 16.6216 51.2163L16.0811 49.8649C14.7297 46.7568 14.054 43.3784 14.054 39.8649C14.054 36.3514 14.7297 32.973 16.0811 29.8649L16.6216 28.5136C16.6216 28.3784 16.6216 28.2433 16.4865 28.1082L7.4324 23.1082ZM41.8919 3.24329C41.8919 3.24329 41.7567 3.24329 41.7567 3.37842L41.6216 3.51356V13.6487C41.6216 13.7838 41.7567 13.919 41.8919 13.919L43.2432 14.0541C50.1351 14.8649 56.3513 18.5136 60.6756 24.3244L61.4865 25.5406C61.4865 25.6757 61.6216 25.6757 61.7567 25.6757H61.8919L70.8108 20.4054L70.9459 20.2703C70.9459 20.1352 70.9459 20.1352 70.9459 20L69.8648 18.5136C63.6486 10 54.054 4.4595 43.6486 3.37842L41.8919 3.24329ZM36.2162 3.37842C25.8108 4.4595 16.2162 10 10.1351 18.6487L9.05402 20.1352C9.05402 20.1352 9.05402 20.2703 9.05402 20.4054C9.05402 20.5406 9.05402 20.5406 9.18916 20.5406L18.1081 25.6757H18.2432C18.3783 25.6757 18.3783 25.6757 18.5135 25.5406L19.3243 24.4595C23.5135 18.919 29.8648 15.1352 36.7567 14.3244L38.1081 14.1892C38.2432 14.1892 38.3783 14.0541 38.3783 13.919V3.64869C38.3783 3.51356 38.2432 3.37842 38.1081 3.37842H36.3513H36.2162Z" fill="#DDED7C"/>
<path d="M10.1351 62.973C10.1351 62.973 12.1621 58.1082 13.9189 58.919C15.6756 59.7298 22.1621 71.6217 39.9999 71.6217C58.108 71.6217 63.7837 57.973 66.6216 58.5136C68.108 58.7838 69.1891 62.7028 69.1891 63.919C69.1891 65.1352 55.8107 78.6487 43.2432 78.2433C30.6756 77.8379 12.7026 72.5676 10.1351 62.973Z" fill="white"/>
<path d="M38.2432 56.4865C37.5675 56.4865 37.1621 55.946 37.1621 55.4054V54.3244C35.8108 53.919 34.7297 53.1081 33.9189 51.8919C32.9729 50.5406 32.5675 48.7838 32.5675 46.7568V44.8649C32.5675 44.1892 33.1081 43.7838 33.6486 43.7838H37.7027C38.3783 43.7838 38.7837 44.3244 38.7837 44.8649V47.0271C38.7837 48.5135 39.3243 48.5135 39.8648 48.5135C40.4054 48.5135 40.9459 48.5135 40.9459 47.0271C40.9459 46.3514 40.8108 45.8108 40.5405 45.4054C40.2702 44.8649 40 44.4595 39.5945 44.0541C39.1891 43.6487 38.5135 43.1081 37.7027 42.4325C36.6216 41.6217 35.8108 40.8108 35.1351 40.1352C34.4594 39.3244 33.7837 38.5135 33.3783 37.4325C32.8378 36.3514 32.5675 35 32.5675 33.5135C32.5675 31.4865 32.9729 29.7298 33.9189 28.3784C34.7297 27.2973 35.8108 26.4865 37.027 25.946V24.7298C37.027 24.0541 37.5675 23.6487 38.1081 23.6487H41.6216C42.2972 23.6487 42.7027 24.1892 42.7027 24.7298V25.8108C44.054 26.2162 45.1351 27.0271 45.9459 28.2433C46.8918 29.5946 47.2972 31.3514 47.2972 33.3784V34.1892C47.2972 34.8649 46.7567 35.2703 46.2162 35.2703H42.1621C41.4864 35.2703 41.081 34.7298 41.081 34.1892V33.1081C41.081 32.1622 40.9459 31.8919 40.8108 31.7568C40.8108 31.7568 40.6756 31.4865 40.1351 31.4865C39.5945 31.4865 39.4594 31.6217 39.4594 31.7568C39.3243 31.8919 39.1891 32.1622 39.1891 33.1081C39.1891 33.7838 39.3243 34.3244 39.5945 34.7298C39.8648 35.2703 40.1351 35.6757 40.5405 36.0811C40.9459 36.4865 41.6216 37.0271 42.4324 37.7027C43.5135 38.5135 44.3243 39.3244 45 40C45.6756 40.8108 46.3513 41.6217 46.7567 42.7027C47.2972 43.7838 47.5675 45.1352 47.5675 46.6217C47.5675 48.6487 47.1621 50.4054 46.2162 51.7568C45.4054 52.8379 44.3243 53.6487 42.9729 54.1892V55.2703C42.9729 55.946 42.4324 56.3514 41.8918 56.3514H38.2432V56.4865Z" fill="#E44050"/>
<path d="M41.7567 24.5945V26.6216C43.2432 26.8918 44.4594 27.7026 45.1351 28.7837C45.9459 29.8648 46.3513 31.3513 46.3513 33.2432V34.054H42.2972V32.9729C42.2972 32.027 42.1621 31.3513 41.7567 30.9459C41.3513 30.5405 40.8108 30.2702 40.1351 30.2702C39.4594 30.2702 38.9189 30.5405 38.5135 30.9459C38.1081 31.3513 37.9729 32.027 37.9729 32.9729C37.9729 33.7837 38.1081 34.4594 38.5135 35.1351C38.7837 35.8108 39.1891 36.3513 39.7297 36.7567C40.2702 37.1621 40.8108 37.8378 41.7567 38.5135C42.7027 39.3243 43.5135 39.9999 44.1891 40.6756C44.8648 41.3513 45.4054 42.1621 45.8108 43.1081C46.2162 44.054 46.4864 45.2702 46.4864 46.4864C46.4864 48.3783 46.081 49.8648 45.2702 50.9459C44.4594 52.027 43.3783 52.8378 41.8918 53.1081V55.1351H38.3783V53.1081C36.8918 52.8378 35.6756 52.027 34.8648 50.9459C34.054 49.8648 33.6486 48.2432 33.6486 46.4864V44.5945H37.7027V46.7567C37.7027 48.5135 38.3783 49.4594 39.8648 49.4594C41.3513 49.4594 42.027 48.5135 42.027 46.7567C42.027 45.9459 41.8918 45.2702 41.4864 44.5945C41.2162 43.9189 40.8108 43.3783 40.2702 42.9729C39.8648 42.4324 39.1891 41.8918 38.2432 41.2162C37.2972 40.4053 36.4864 39.7297 35.8108 39.054C35.1351 38.3783 34.5945 37.5675 34.1891 36.6216C33.7837 35.6756 33.5135 34.4594 33.5135 33.2432C33.5135 31.3513 33.9189 29.8648 34.5945 28.7837C35.4054 27.7026 36.4864 26.8918 37.9729 26.6216V24.5945H41.7567ZM41.7567 22.2972H38.2432C37.027 22.2972 35.9459 23.3783 35.9459 24.5945V24.9999C34.7297 25.5405 33.7837 26.4864 32.9729 27.5675C31.8918 29.054 31.4864 30.9459 31.4864 33.2432C31.4864 34.8648 31.7567 36.3513 32.2972 37.5675C32.8378 38.7837 33.5135 39.7297 34.3243 40.6756C34.8648 41.2162 35.5405 41.7567 36.2162 42.4324H33.6486C32.4324 42.4324 31.3513 43.5135 31.3513 44.7297V46.6216C31.3513 48.9189 31.8918 50.9459 32.9729 52.4324C33.7837 53.5135 34.7297 54.4594 36.081 54.9999V55.2702C36.081 56.4864 37.1621 57.5675 38.3783 57.5675H41.8918C43.1081 57.5675 44.1891 56.4864 44.1891 55.2702V54.9999C45.4054 54.4594 46.4864 53.6486 47.1621 52.4324C48.2432 50.9459 48.7837 48.9189 48.7837 46.6216C48.7837 44.9999 48.5135 43.5135 47.9729 42.2972C47.4324 41.081 46.7567 39.9999 45.9459 39.1891C45.2702 38.5135 44.3243 37.7026 43.2432 36.7567C43.1081 36.6216 42.9729 36.4864 42.8378 36.3513H46.4864C47.7027 36.3513 48.7837 35.2702 48.7837 34.054V33.2432C48.7837 30.9459 48.2432 28.9189 47.1621 27.4324C46.3513 26.3513 45.4054 25.5405 44.1891 24.8648V24.4594C44.054 23.3783 42.9729 22.2972 41.7567 22.2972Z" fill="#19593F"/>
<path d="M18.3783 58.6487C17.8377 58.1081 17.0269 57.973 16.4864 58.5135L14.4594 60.2703C13.9188 60.8108 13.7837 61.6216 14.3242 62.1622C14.8648 62.7027 15.6756 62.8379 16.2161 62.2973L18.2432 60.5406C18.7837 60.1352 18.7837 59.3244 18.3783 58.6487ZM22.7026 62.8379C22.1621 62.2973 21.3513 62.4325 20.8107 62.973L19.054 65C18.5134 65.5406 18.6486 66.3514 19.1891 66.8919C19.7296 67.4325 20.5405 67.2973 21.081 66.7568L22.8377 64.7298C23.3783 64.1892 23.2432 63.3784 22.7026 62.8379ZM28.2432 66.2162C27.5675 65.8108 26.7567 66.0811 26.3513 66.7568L25.135 69.1892C24.7296 69.8649 24.9999 70.6757 25.6756 71.0811C26.3513 71.4865 27.1621 71.2162 27.5675 70.5406L28.7837 68.1081C29.1891 67.4325 28.9188 66.6216 28.2432 66.2162ZM33.9188 68.5135C33.2432 68.3784 32.4323 68.7838 32.2972 69.4595L31.6215 72.0271C31.4864 72.7027 31.8918 73.5135 32.5675 73.6487C33.2432 73.7838 34.054 73.3784 34.1891 72.7027L34.8648 70.1352C35.135 69.4595 34.7296 68.7838 33.9188 68.5135Z" fill="#19593F"/>
<path d="M61.8919 60.5406L63.9189 62.2974C64.4594 62.8379 65.4054 62.7028 65.8108 62.1622C66.3513 61.6217 66.2162 60.6757 65.6756 60.2703L63.6486 58.5136C63.1081 58.1082 62.1621 58.1082 61.7567 58.6487C61.2162 59.3244 61.3513 60.1352 61.8919 60.5406ZM57.2973 64.7298L59.054 66.7568C59.5946 67.2974 60.4054 67.4325 60.9459 66.892C61.4864 66.3514 61.6216 65.5406 61.081 65.0001L59.3243 62.973C58.7837 62.4325 57.9729 62.2974 57.4324 62.8379C56.7567 63.3785 56.7567 64.1893 57.2973 64.7298ZM51.2162 68.1082L52.4324 70.5406C52.8378 71.2163 53.6486 71.4866 54.3243 71.0812C55 70.6757 55.2702 69.8649 54.8648 69.1893L53.6486 66.7568C53.2432 66.0812 52.4324 65.8109 51.7567 66.2163C51.081 66.6217 50.9459 67.4325 51.2162 68.1082ZM45.1351 70.1352L45.8108 72.7028C45.9459 73.3785 46.7567 73.7839 47.4324 73.6487C48.1081 73.5136 48.5135 72.7028 48.3783 72.0271L47.7027 69.4595C47.5675 68.7839 46.7567 68.3785 46.081 68.5136C45.4054 68.7839 45 69.4595 45.1351 70.1352Z" fill="#19593F"/>
<path d="M39.9999 0C17.9729 0 -6.10352e-05 17.973 -6.10352e-05 40C-6.10352e-05 62.027 17.9729 80 39.9999 80C62.027 80 79.9999 62.027 79.9999 40C79.9999 17.973 62.027 0 39.9999 0ZM41.6216 3.51351C41.6216 3.37838 41.6216 3.37838 41.7567 3.37838L41.8918 3.24324L43.6486 3.37838C54.054 4.45946 63.6486 10 69.8648 18.6486L70.9459 20.1351C70.9459 20.1351 70.9459 20.2703 70.9459 20.4054C70.9459 20.5405 70.9459 20.5405 70.8108 20.5405L61.8918 25.6757H61.7567C61.6216 25.6757 61.6216 25.6757 61.4864 25.5405L60.6756 24.3243C56.3513 18.5135 50.1351 14.8649 43.2432 14.0541L41.8918 13.9189C41.7567 13.9189 41.6216 13.7838 41.6216 13.6486V3.51351ZM9.05399 20L10.1351 18.5135C16.2162 10 25.8107 4.45946 36.2162 3.37838H36.3513H38.108C38.2432 3.37838 38.3783 3.51351 38.3783 3.64865V13.6486C38.3783 13.7838 38.2432 13.9189 38.108 13.9189L36.7567 14.0541C29.8648 14.8649 23.5135 18.6486 19.3243 24.1892L18.5135 25.2703C18.5135 25.4054 18.3783 25.4054 18.2432 25.4054H18.108L9.18913 20.2703L9.05399 20.1351C8.91886 20.1351 9.05399 20.1351 9.05399 20ZM7.43237 56.7568C7.29724 56.7568 7.29724 56.7568 7.43237 56.7568C7.29724 56.7568 7.1621 56.6216 7.1621 56.6216L6.48643 55C4.32426 50.2703 3.24318 45.1351 3.24318 40C3.24318 34.7297 4.32426 29.7297 6.48643 25L7.1621 23.3784C7.1621 23.2432 7.29724 23.2432 7.29724 23.2432C7.29724 23.2432 7.29724 23.2432 7.43237 23.2432H7.56751L16.4864 28.3784C16.6216 28.5135 16.6216 28.6486 16.6216 28.7838L16.081 30.1351C14.7297 33.2432 14.054 36.7568 14.054 40.1351C14.054 43.6487 14.7297 47.027 16.081 50.1351L16.6216 51.4865C16.6216 51.6216 16.6216 51.7568 16.4864 51.8919L7.43237 56.7568ZM38.3783 76.3514C38.3783 76.4865 38.3783 76.4865 38.2432 76.4865L38.108 76.6216L36.3513 76.4865C25.8107 75.4054 16.2162 70 10.1351 61.3514L9.05399 59.8649C9.05399 59.8649 9.05399 59.7297 9.05399 59.5946C9.05399 59.4595 9.05399 59.4595 9.18913 59.4595L18.108 54.1892H18.2432C18.3783 54.1892 18.3783 54.1892 18.5135 54.3243L19.3243 55.5405C23.6486 61.3514 29.8648 64.8649 36.7567 65.8108L38.108 65.9459C38.2432 65.9459 38.3783 66.0811 38.3783 66.2162V76.3514ZM17.1621 40C17.1621 27.4324 27.4324 17.1622 39.9999 17.1622C52.5675 17.1622 62.8378 27.4324 62.8378 40C62.8378 52.5676 52.5675 62.8378 39.9999 62.8378C27.4324 62.8378 17.1621 52.5676 17.1621 40ZM70.9459 59.8649L69.8648 61.3514C63.6486 70 54.054 75.4054 43.6486 76.4865L41.8918 76.6216C41.8918 76.6216 41.7567 76.6216 41.7567 76.4865L41.6216 76.3514V66.2162C41.6216 66.0811 41.7567 65.9459 41.8918 65.9459L43.2432 65.8108C50.1351 65 56.4864 61.2162 60.6756 55.6757L61.4864 54.5946C61.4864 54.4595 61.6216 54.4595 61.7567 54.4595H61.8918L70.8108 59.5946L70.9459 59.7297V59.8649ZM72.8378 56.6216C72.8378 56.7568 72.7026 56.7568 72.7026 56.7568C72.7026 56.7568 72.7026 56.7568 72.5675 56.7568H72.4324L63.5135 51.6216C63.3783 51.4865 63.3783 51.3514 63.3783 51.2162L63.9189 49.8649C65.2702 46.7568 65.9459 43.3784 65.9459 39.8649C65.9459 36.3514 65.2702 32.973 63.9189 29.8649L63.3783 28.5135C63.3783 28.3784 63.3783 28.2432 63.5135 28.1081L72.4324 22.973H72.5675C72.5675 22.973 72.5675 22.973 72.7026 22.973C72.8378 22.973 72.8378 23.1081 72.8378 23.1081L73.5135 24.7297C75.6756 29.4595 76.7567 34.5946 76.7567 39.7297C76.7567 45 75.6756 50 73.5135 54.7297L72.8378 56.6216Z" fill="#19593F"/>
</svg>
