<svg width="541" height="479" viewBox="0 0 541 479" fill="none" xmlns="http://www.w3.org/2000/svg">
<circle cx="227.5" cy="251.5" r="227.5" fill="#FFCE3D"/>
<path d="M163.766 72.4174C167.543 78.6949 171.814 85.794 180.159 85.794C188.504 85.794 192.776 78.6949 196.553 72.4174L196.828 71.9611L196.975 71.7045C200.339 65.8384 203.541 60.2563 209.649 60.2563C210.932 60.2563 211.786 59.405 211.786 58.1281C211.786 56.8513 210.932 56 209.649 56C200.888 56 196.614 63.4485 192.981 69.8329C189.562 75.7918 186.143 81.5378 180.159 81.5378C174.176 81.5378 170.757 75.7918 167.338 69.8329L167.063 69.3767C163.286 63.0991 159.014 56 150.669 56C142.324 56 138.053 63.0992 134.276 69.3767L134.001 69.8329C130.582 75.7918 127.163 81.5378 121.179 81.5378C115.196 81.5378 111.777 75.7918 108.358 69.8329L108.083 69.3767C104.306 63.0992 100.034 56 91.6895 56C83.1417 56 78.8678 63.4485 75.235 69.8329C71.8158 75.7918 68.3967 81.5378 62.4132 81.5378C56.4298 81.5378 53.0106 75.7918 49.5915 69.8329C45.9587 63.4485 41.6848 56 33.137 56C31.8548 56 31 56.8513 31 58.1281C31 59.405 31.8548 60.2563 33.137 60.2563C38.8978 60.2563 42.0733 65.2216 45.5818 70.7074C45.8476 71.123 46.1152 71.5415 46.3861 71.9611C50.0189 78.3455 54.2928 85.794 62.8406 85.794C71.3884 85.794 75.6623 78.3455 79.2952 71.9611L79.4424 71.7045C82.807 65.8384 86.0087 60.2563 92.1169 60.2563C98.1004 60.2563 101.519 66.0023 104.939 71.9611C108.571 78.3455 112.845 85.794 121.393 85.794C129.941 85.794 134.215 78.3455 137.848 71.9611L137.995 71.7045C141.36 65.8384 144.561 60.2563 150.669 60.2563C156.778 60.2563 159.979 65.8384 163.344 71.7045L163.491 71.9611L163.766 72.4174Z" fill="#7A482D"/>
<path d="M163.766 93.4859C167.543 99.7635 171.814 106.863 180.159 106.863C188.292 106.863 192.555 100.121 196.447 93.9678C196.646 93.6533 196.844 93.3402 197.041 93.0297L197.189 92.7731C200.553 86.907 203.755 81.3249 209.863 81.3249C211.145 81.3249 212 80.4737 212 79.1968C212 77.9199 211.145 77.0686 209.863 77.0686C201.102 77.0686 196.828 84.5171 193.195 90.9016C189.776 96.8604 186.357 102.606 180.373 102.606C174.39 102.606 170.97 96.8604 167.551 90.9016L167.277 90.4454C163.5 84.1678 159.228 77.0686 150.883 77.0686C142.335 77.0686 138.061 84.5171 134.429 90.9016C131.009 96.8604 127.59 102.606 121.607 102.606C115.623 102.606 112.204 96.8604 108.785 90.9016L108.51 90.4453C104.733 84.1678 100.462 77.0686 92.1169 77.0686C83.5691 77.0686 79.2952 84.5171 75.6623 90.9016C72.2432 96.8604 68.8241 102.606 62.8406 102.606C56.8571 102.606 53.438 96.8604 50.0189 90.9016C46.3861 84.5171 42.1122 77.0686 33.5643 77.0686C32.2822 77.0686 31.4274 77.9199 31.4274 79.1968C31.4274 80.4737 32.2822 81.3249 33.5643 81.3249C39.5478 81.3249 42.9669 87.0709 46.3861 93.0297C50.0189 99.4142 54.2928 106.863 62.8406 106.863C71.3884 106.863 75.6623 99.4142 79.2952 93.0297L79.4424 92.7731C82.807 86.907 86.0087 81.3249 92.1169 81.3249C98.1003 81.3249 101.519 87.0709 104.939 93.0297C108.571 99.4142 112.845 106.863 121.393 106.863C129.941 106.863 134.215 99.4142 137.848 93.0297L137.995 92.7731C141.36 86.907 144.561 81.3249 150.669 81.3249C156.653 81.3249 160.072 87.0709 163.491 93.0297L163.766 93.4859Z" fill="#7A482D"/>
<path d="M180.159 127.931C171.814 127.931 167.543 120.832 163.766 114.555L163.491 114.098C160.072 108.14 156.653 102.394 150.669 102.394C144.561 102.394 141.36 107.976 137.995 113.842L137.848 114.098C134.215 120.483 129.941 127.931 121.393 127.931C112.845 127.931 108.571 120.483 104.939 114.098C101.519 108.14 98.1003 102.394 92.1169 102.394C86.0087 102.394 82.807 107.976 79.4424 113.842L79.2952 114.098C75.6623 120.483 71.3884 127.931 62.8406 127.931C54.2928 127.931 50.0189 120.483 46.3861 114.098C42.9669 108.14 39.5478 102.394 33.5643 102.394C32.2822 102.394 31.4274 101.542 31.4274 100.265C31.4274 98.9885 32.2822 98.1373 33.5643 98.1373C42.1122 98.1373 46.3861 105.586 50.0189 111.97C53.438 117.929 56.8571 123.675 62.8406 123.675C68.8241 123.675 72.2432 117.929 75.6623 111.97C79.2952 105.586 83.5691 98.1373 92.1169 98.1373C100.462 98.1373 104.733 105.236 108.51 111.514L108.785 111.97C112.204 117.929 115.623 123.675 121.607 123.675C127.59 123.675 131.009 117.929 134.429 111.97C138.061 105.586 142.335 98.1373 150.883 98.1373C159.228 98.1373 163.5 105.236 167.277 111.514L167.551 111.97C170.97 117.929 174.39 123.675 180.373 123.675C186.357 123.675 189.776 117.929 193.195 111.97C196.828 105.586 201.102 98.1373 209.863 98.1373C211.145 98.1373 212 98.9885 212 100.265C212 101.542 211.145 102.394 209.863 102.394C203.755 102.394 200.553 107.976 197.189 113.842L197.041 114.098C196.844 114.409 196.646 114.722 196.447 115.036C192.555 121.19 188.292 127.931 180.159 127.931Z" fill="#7A482D"/>
<path d="M163.766 135.623C167.543 141.901 171.814 149 180.159 149C188.292 149 192.555 142.258 196.447 136.105C196.646 135.791 196.844 135.478 197.041 135.167L197.189 134.91C200.553 129.044 203.755 123.462 209.863 123.462C211.145 123.462 212 122.611 212 121.334C212 120.057 211.145 119.206 209.863 119.206C201.102 119.206 196.828 126.654 193.195 133.039C189.776 138.998 186.357 144.744 180.373 144.744C174.39 144.744 170.97 138.998 167.551 133.039C167.46 132.887 167.369 132.735 167.277 132.583C163.5 126.305 159.228 119.206 150.883 119.206C142.335 119.206 138.061 126.654 134.429 133.039C131.009 138.998 127.59 144.744 121.607 144.744C115.623 144.744 112.204 138.998 108.785 133.039C108.694 132.887 108.602 132.735 108.51 132.583C104.733 126.305 100.462 119.206 92.1169 119.206C83.5691 119.206 79.2952 126.654 75.6623 133.039C72.2432 138.998 68.8241 144.744 62.8406 144.744C56.8571 144.744 53.438 138.998 50.0189 133.039C46.3861 126.654 42.1122 119.206 33.5643 119.206C32.2822 119.206 31.4274 120.057 31.4274 121.334C31.4274 122.611 32.2822 123.462 33.5643 123.462C39.5478 123.462 42.9669 129.208 46.3861 135.167C50.0189 141.551 54.2928 149 62.8406 149C71.3884 149 75.6623 141.551 79.2952 135.167L79.4424 134.91C82.807 129.044 86.0087 123.462 92.1169 123.462C98.1003 123.462 101.519 129.208 104.939 135.167C108.571 141.551 112.845 149 121.393 149C129.941 149 134.215 141.551 137.848 135.167L137.995 134.91C141.36 129.044 144.561 123.462 150.669 123.462C156.653 123.462 160.072 129.208 163.491 135.167C163.582 135.319 163.674 135.471 163.766 135.623Z" fill="#7A482D"/>
<path d="M327.267 459.963L329.042 458.806C347.082 446.745 358.389 432.428 362.838 416.195C366.255 403.716 364.499 393.232 362.865 389.103C359.67 380.724 358.944 366.897 358.856 364.447C356.723 357.454 348.435 355.58 348.338 355.604L345.939 355.062L345.948 352.588L345.996 346.088L346.001 344.851L346.926 344.006L352.913 338.207L355.834 335.428L357.664 339.097C357.688 339.194 360.866 345.415 363.085 348.988C363.929 350.325 367.584 352.206 371.362 353.748L372.5 354.189C373.396 354.483 374.075 354.728 374.317 354.875C374.414 354.851 374.438 354.948 374.535 354.924L374.753 354.973L374.995 355.12C387.244 361.374 396.08 372.587 400.537 387.35C407.126 409.517 402.673 433.27 397.571 442.249C396.497 444.161 395.301 446 394.106 447.839C391.18 452.267 387.891 456.063 384.266 459.324C377.866 465.121 370.502 469.096 362.346 471.103C347.295 474.807 334.528 470.637 331.573 469.511C331.234 469.388 331.016 469.339 330.992 469.242L329.612 468.655L329.254 467.198L328.344 463.921L327.434 460.643L327.267 459.963ZM332.53 460.007C333.719 459.817 334.787 459.554 335.952 459.268C351.198 455.516 363.702 445.229 373.003 428.625C379.057 418.073 383.004 386.824 370.749 362.138C370.386 361.918 369.926 361.722 369.563 361.503C361.305 358.077 362.655 373.604 363.554 379.768C364.076 382.729 364.77 385.545 365.682 387.998C369.022 396.547 374.037 431.152 332.53 460.007ZM360.605 350.629C358.242 346.885 355.015 340.47 355.015 340.47L349.003 346.172L348.955 352.672C348.955 352.672 359.377 354.844 361.841 364.021C361.841 364.021 361.841 364.021 361.865 364.118C361.841 364.021 361.841 364.021 361.841 364.021C361.769 363.73 361.698 363.439 361.626 363.147C362.355 356.068 357.665 352.073 355.56 350.634C357.351 351.635 362.071 354.078 366.41 354.967C363.916 353.624 361.496 352.16 360.605 350.629ZM363.554 379.768C362.271 372.463 361.959 364.919 361.914 363.9C361.935 364.822 362.271 372.463 363.554 379.768ZM398.042 432.865C398.411 431.435 398.853 429.884 399.15 428.164C399.348 427.291 399.472 426.54 399.669 425.667C400.066 423.098 400.416 420.334 400.621 417.4C400.675 415.945 400.826 414.466 400.856 412.914C400.887 410.95 400.895 408.888 400.781 406.754C400.617 405.249 400.55 403.721 400.362 402.12C400.129 399.499 399.678 396.83 399.153 394.281C398.749 392.218 398.223 390.082 397.624 388.067C397.264 387.022 397.025 386.051 396.665 385.007C395.969 383.016 395.055 380.975 394.165 379.031C393.491 377.55 392.647 376.212 391.876 374.754C391.563 374.317 391.346 373.855 391.032 373.417C389.223 370.67 387.171 368.189 384.827 365.779C383.619 364.635 382.41 363.49 381.031 362.491C379.75 361.467 378.371 360.468 376.919 359.589C374.957 358.733 373.21 359.164 373.086 359.915C373.832 361.276 374.506 362.758 375.059 364.167C376.791 367.86 378.016 371.163 377.988 372.302C384.841 395.126 381.305 420.094 375.641 430.139C364.241 450.349 349.778 458.954 336.669 462.181C334.824 462.635 333.053 462.968 331.257 463.204L332.167 466.481C332.869 466.823 343.671 470.962 357.187 468.974C358.668 468.713 360.148 468.451 361.605 468.093C372.772 465.345 385.168 457.969 394.933 440.736C395.079 440.494 395.226 440.252 395.275 440.034C395.568 439.55 395.763 439.09 396.032 438.508C396.79 436.983 397.428 434.973 398.042 432.865Z" fill="#FCAE00"/>
<path d="M324.5 410.76C444.07 410.76 541 390.053 541 364.51C541 338.966 444.07 318.259 324.5 318.259C204.93 318.259 108 338.966 108 364.51C108 390.053 204.93 410.76 324.5 410.76Z" fill="#333333" fill-opacity="0.1"/>
<path d="M172.518 181.841C172.657 181.841 172.75 181.841 172.89 181.796L242.935 171.468H242.981C243.121 171.468 243.214 171.468 243.353 171.423C243.771 171.378 244.143 171.198 244.468 170.929C244.793 170.704 245.072 170.345 245.211 169.986C245.258 169.851 245.304 169.762 245.304 169.627L271.037 105.818C271.316 105.055 271.223 104.247 270.665 103.618L226.399 50.0927C225.935 49.5539 225.284 49.2396 224.588 49.2396C224.448 49.2396 224.355 49.2396 224.216 49.2845C223.891 49.3294 223.612 49.4641 223.333 49.5988L153.66 59.8818C152.823 60.0165 152.127 60.5553 151.848 61.2738L126.069 125.127C125.976 125.307 125.929 125.531 125.929 125.711C125.79 126.339 125.976 127.013 126.394 127.507L170.706 180.987C171.124 181.526 171.821 181.841 172.518 181.841Z" fill="white"/>
<path d="M322.363 244.347C322.178 243.988 321.899 243.673 321.527 243.449C321.388 243.359 321.249 243.314 321.109 243.269L229.836 187.409C229.465 187.184 229.047 187.049 228.582 187.049C228.211 187.049 227.839 187.139 227.514 187.319L131.968 235.77C131.225 236.129 130.76 236.848 130.714 237.656C130.714 238.06 130.807 238.419 130.946 238.734L126.58 342.686C126.533 343.495 126.951 344.258 127.648 344.662L218.828 400.433C218.967 400.522 219.153 400.612 219.339 400.657C219.664 400.792 219.989 400.882 220.314 400.882C220.686 400.882 221.057 400.792 221.383 400.612L316.929 352.161C317.672 351.802 318.136 351.083 318.183 350.275L322.596 245.918C322.642 245.784 322.642 245.604 322.688 245.469C322.688 245.11 322.596 244.706 322.363 244.347Z" fill="white"/>
<path d="M529.573 96.7029C529.248 96.4335 528.83 96.2988 528.412 96.2539L429.243 19.603C428.825 19.2886 428.314 19.109 427.803 19.109C427.524 19.109 427.246 19.1539 426.967 19.2437L308.521 64.0129C308.336 64.1027 308.15 64.1925 307.964 64.3272C307.36 64.6415 306.896 65.2702 306.803 65.9438L287.712 187.499C287.573 188.307 287.898 189.07 288.548 189.609L387.996 266.484C388.089 266.619 388.228 266.754 388.368 266.844C388.693 267.113 389.111 267.248 389.482 267.293C389.622 267.338 389.761 267.338 389.901 267.338C390.179 267.338 390.458 267.293 390.737 267.203C390.876 267.158 391.062 267.068 391.201 266.978L509.786 222.164C510.576 221.85 511.133 221.221 511.226 220.413L530.363 98.8583C530.549 98.0051 530.224 97.1969 529.573 96.7029Z" fill="white"/>
<path d="M243.028 169.178L172.518 179.595L128.205 126.115L198.715 115.697L243.028 169.178Z" fill="white"/>
<path d="M268.9 105.01L242.982 169.223L198.669 115.742L224.588 51.4848L268.9 105.01Z" fill="#E6E6E6"/>
<path d="M198.762 115.519L128.252 125.936L154.031 62.1281L224.541 51.7104L198.762 115.519Z" fill="white"/>
<path d="M238.244 107.659C240.334 110.174 240.984 114.62 239.777 117.628C238.569 120.637 235.921 121.041 233.831 118.526C231.787 116.012 231.09 111.566 232.298 108.558C233.506 105.549 236.153 105.145 238.244 107.659Z" fill="#7A482D"/>
<path d="M179.996 163.969C181.808 166.124 180.925 168.235 178.045 168.684C175.166 169.088 171.403 167.696 169.592 165.496C167.78 163.34 168.663 161.23 171.542 160.781C174.422 160.377 178.185 161.814 179.996 163.969Z" fill="#7A482D"/>
<path d="M157.422 135.455C159.234 137.61 158.351 139.721 155.471 140.17C152.591 140.574 148.829 139.182 147.017 136.982C145.206 134.826 146.088 132.716 148.968 132.267C151.848 131.863 155.657 133.3 157.422 135.455Z" fill="#7A482D"/>
<path d="M219.432 158.491C221.243 160.646 220.361 162.757 217.481 163.206C214.601 163.61 210.839 162.218 209.027 160.017C207.216 157.862 208.098 155.752 210.978 155.302C213.858 154.898 217.62 156.29 219.432 158.491Z" fill="#7A482D"/>
<path d="M200.248 130.605C202.06 132.761 201.177 134.871 198.297 135.32C195.417 135.724 191.655 134.332 189.844 132.132C188.032 129.977 188.915 127.866 191.794 127.417C194.674 127.013 198.437 128.45 200.248 130.605Z" fill="#7A482D"/>
<path d="M189.89 80.1783C192.77 79.7742 194.21 81.5254 193.188 84.1299C192.12 86.7343 188.961 89.1591 186.128 89.6081C183.248 90.0123 181.808 88.261 182.83 85.6566C183.852 83.0522 187.01 80.5824 189.89 80.1783Z" fill="#7A482D"/>
<path d="M163.368 84.085C166.247 83.6809 167.687 85.4321 166.665 88.0365C165.597 90.641 162.439 93.0658 159.605 93.5148C156.725 93.9189 155.285 92.1677 156.307 89.5633C157.329 86.9588 160.488 84.4891 163.368 84.085Z" fill="#7A482D"/>
<path d="M198.808 58.0407C201.688 57.6366 203.128 59.3879 202.106 61.9923C201.038 64.5967 197.879 67.0216 195.046 67.4706C192.166 67.8747 190.726 66.1235 191.748 63.519C192.77 60.9146 195.975 58.4449 198.808 58.0407Z" fill="#7A482D"/>
<path d="M172.332 61.9474C175.212 61.5432 176.652 63.2945 175.63 65.8989C174.562 68.5033 171.403 70.9281 168.57 71.3772C165.69 71.7813 164.25 70.0301 165.272 67.4256C166.294 64.8212 169.452 62.3515 172.332 61.9474Z" fill="#7A482D"/>
<path d="M180.925 102.316C183.805 101.912 185.245 103.663 184.223 106.268C183.155 108.872 179.996 111.297 177.163 111.746C174.283 112.15 172.843 110.399 173.865 107.794C174.887 105.19 178.092 102.72 180.925 102.316Z" fill="#7A482D"/>
<path d="M154.449 106.223C157.329 105.818 158.769 107.57 157.747 110.174C156.679 112.779 153.52 115.203 150.687 115.652C147.807 116.057 146.367 114.305 147.389 111.701C148.411 109.096 151.569 106.627 154.449 106.223Z" fill="#7A482D"/>
<path d="M320.273 245.38L315.86 350.23L220.314 398.681L224.727 293.786L320.273 245.38Z" fill="#E6E6E6"/>
<path d="M228.629 189.34L320.319 245.469L224.773 293.876L133.036 237.746L228.629 189.34Z" fill="white"/>
<path d="M224.495 293.696L220.082 398.592L128.902 342.776L133.361 237.925L224.495 293.696Z" fill="white"/>
<path d="M223.798 234.378C228.257 232.133 235.364 232.402 239.637 235.007C243.91 237.611 243.771 241.563 239.312 243.853C234.853 246.098 227.746 245.828 223.473 243.224C219.199 240.62 219.339 236.668 223.798 234.378Z" fill="#7A482D"/>
<path d="M293.936 334.918C297.838 332.942 300.811 334.828 300.625 339.094C300.439 343.36 297.141 348.434 293.286 350.365C289.384 352.341 286.412 350.455 286.597 346.189C286.737 341.923 290.035 336.849 293.936 334.918Z" fill="#7A482D"/>
<path d="M243.307 359.166C247.208 357.19 250.181 359.076 249.995 363.342C249.809 367.608 246.512 372.682 242.656 374.613C238.755 376.589 235.782 374.703 235.968 370.437C236.107 366.216 239.405 361.142 243.307 359.166Z" fill="#7A482D"/>
<path d="M296.909 276.318C300.811 274.343 303.784 276.228 303.598 280.494C303.412 284.76 300.114 289.834 296.259 291.765C292.357 293.741 289.384 291.855 289.57 287.589C289.709 283.368 293.007 278.294 296.909 276.318Z" fill="#7A482D"/>
<path d="M248.23 295.941C252.132 293.966 255.105 295.852 254.919 300.117C254.733 304.383 251.435 309.412 247.58 311.388C243.678 313.364 240.705 311.478 240.891 307.212C241.077 302.946 244.375 297.917 248.23 295.941Z" fill="#7A482D"/>
<path d="M167.269 296.256C167.455 291.99 170.613 290.373 174.283 292.663C177.999 294.908 180.832 300.207 180.647 304.473C180.461 308.739 177.302 310.355 173.633 308.065C169.963 305.775 167.083 300.521 167.269 296.256Z" fill="#7A482D"/>
<path d="M165.597 335.681C165.783 331.415 168.941 329.799 172.611 332.089C176.327 334.334 179.16 339.633 178.974 343.899C178.789 348.164 175.63 349.781 171.961 347.491C168.291 345.201 165.411 339.947 165.597 335.681Z" fill="#7A482D"/>
<path d="M135.637 276.902C135.823 272.636 138.982 271.02 142.651 273.31C146.367 275.555 149.2 280.854 149.015 285.12C148.829 289.385 145.67 291.002 142.001 288.712C138.331 286.467 135.451 281.168 135.637 276.902Z" fill="#7A482D"/>
<path d="M134.012 316.328C134.197 312.062 137.356 310.445 141.025 312.735C144.741 314.981 147.575 320.279 147.389 324.545C147.203 328.811 144.045 330.427 140.375 328.137C136.659 325.892 133.826 320.594 134.012 316.328Z" fill="#7A482D"/>
<path d="M198.901 315.609C199.087 311.343 202.245 309.727 205.915 312.017C209.631 314.262 212.464 319.561 212.278 323.827C212.093 328.092 208.934 329.709 205.265 327.419C201.549 325.129 198.715 319.83 198.901 315.609Z" fill="#7A482D"/>
<path d="M197.229 355.035C197.415 350.769 200.573 349.152 204.243 351.442C207.959 353.688 210.792 358.986 210.606 363.252C210.42 367.518 207.262 369.135 203.592 366.845C199.876 364.555 197.043 359.256 197.229 355.035Z" fill="#7A482D"/>
<path d="M389.947 265.092L289.988 187.813L309.125 66.2581L409.038 143.538L389.947 265.092Z" fill="white"/>
<path d="M508.996 220.009L389.808 265.047L408.945 143.538L528.087 98.4541L508.996 220.009Z" fill="#E6E6E6"/>
<path d="M409.316 143.358L309.358 66.1234L427.803 21.3542L527.715 98.5889L409.316 143.358Z" fill="white"/>
<path d="M430.395 232.588C434.975 227.111 436.036 220.599 432.765 218.042C429.493 215.485 423.128 217.851 418.548 223.328C413.967 228.805 412.906 235.318 416.178 237.875C419.449 240.432 425.814 238.065 430.395 232.588Z" fill="#7A482D"/>
<path d="M498.824 147.354C497.942 153.012 492.693 159.344 487.119 161.409C481.545 163.52 477.783 160.601 478.665 154.943C479.548 149.285 484.796 142.954 490.37 140.843C495.898 138.778 499.707 141.697 498.824 147.354Z" fill="#7A482D"/>
<path d="M331.839 114.934C331.049 119.873 327.148 121.355 323.06 118.212C318.972 115.069 316.325 108.513 317.115 103.573C317.904 98.6338 321.806 97.152 325.893 100.295C329.981 103.438 332.629 109.994 331.839 114.934Z" fill="#7A482D"/>
<path d="M375.826 221.985C375.037 226.924 371.135 228.406 367.048 225.263C362.96 222.119 360.312 215.563 361.102 210.624C361.892 205.685 365.793 204.203 369.881 207.346C373.969 210.489 376.616 217.045 375.826 221.985Z" fill="#7A482D"/>
<path d="M356.875 171.378C356.085 176.317 352.184 177.799 348.096 174.656C344.009 171.513 341.361 164.957 342.151 160.017C342.94 155.078 346.842 153.596 350.93 156.739C354.971 159.883 357.665 166.439 356.875 171.378Z" fill="#7A482D"/>
<path d="M427.71 76.1818C431.751 79.3251 431.148 83.3215 426.363 85.1626C421.533 87.0036 414.379 85.9259 410.292 82.7827C406.251 79.6394 406.855 75.643 411.639 73.8019C416.47 72.0058 423.669 73.0835 427.71 76.1818Z" fill="#7A482D"/>
<path d="M439.88 36.4868C443.921 39.6301 443.317 43.6265 438.533 45.4676C433.702 47.3087 426.549 46.231 422.461 43.0877C418.42 39.9444 419.024 35.9479 423.809 34.1069C428.639 32.2658 435.839 33.3435 439.88 36.4868Z" fill="#7A482D"/>
<path d="M357.758 67.5154C361.799 70.6587 361.195 74.6552 356.411 76.4962C351.58 78.2924 344.427 77.2596 340.339 74.1163C336.298 70.973 336.902 66.9766 341.686 65.1355C346.47 63.2944 353.67 64.3721 357.758 67.5154Z" fill="#7A482D"/>
<path d="M505.513 88.0365C509.554 91.1797 508.95 95.1762 504.166 97.0172C499.335 98.8583 492.182 97.7806 488.094 94.6373C484.053 91.494 484.657 87.4976 489.441 85.6565C494.272 83.8604 501.472 84.9381 505.513 88.0365Z" fill="#7A482D"/>
<path d="M423.39 119.11C427.432 122.253 426.828 126.25 422.043 128.091C417.213 129.932 410.06 128.854 405.972 125.711C401.931 122.568 402.535 118.571 407.319 116.73C412.103 114.889 419.303 115.967 423.39 119.11Z" fill="#7A482D"/>
<path d="M150.779 275.71L148.705 276.143C127.414 280.341 109.299 278.186 94.6856 269.831C83.4554 263.408 77.2966 254.744 75.5383 250.666C71.8845 242.476 62.6351 232.172 60.9676 230.375C57.5405 223.917 62.0865 216.739 62.1721 216.687L63.4881 214.609L61.7349 212.864L57.1115 208.295L56.235 207.422L54.9831 207.476L46.6486 207.598L42.6185 207.692L43.9134 211.582C43.965 211.668 46.1063 218.318 47.0586 222.414C47.405 223.957 46.1445 227.87 44.5579 231.629L44.063 232.745C43.6361 233.586 43.3289 234.239 43.2609 234.513C43.1752 234.565 43.2269 234.651 43.1412 234.702L43.0216 234.891L42.9536 235.166C38.695 248.243 40.3556 262.423 47.6228 276.024C58.6094 296.373 78.5335 310.049 88.4865 312.806C90.5973 313.401 92.742 313.86 94.8868 314.318C100.086 315.387 105.094 315.753 109.964 315.502C118.59 315.089 126.611 312.704 133.804 308.367C147.077 300.363 153.173 288.396 154.471 285.512C154.624 285.185 154.744 284.997 154.692 284.911L155.255 283.521L154.48 282.236L152.81 279.273L151.14 276.31L150.779 275.71ZM147.083 279.457C146.107 280.162 145.165 280.73 144.137 281.35C130.692 289.457 114.575 291.002 96.2644 285.812C84.5268 282.613 59.6682 263.272 50.9155 237.138C51.0175 236.726 51.2051 236.262 51.3071 235.85C54.736 227.594 64.7436 239.542 68.4591 244.542C70.1795 247.008 71.677 249.491 72.7627 251.872C76.4342 260.285 97.3161 288.33 147.083 279.457ZM49.9728 221.825C49.0028 217.505 46.7583 210.684 46.7583 210.684L55.0412 210.477L59.6646 215.046C59.6646 215.046 53.819 223.943 58.5534 232.181C58.5534 232.181 58.5534 232.181 58.6051 232.267C58.5534 232.181 58.5534 232.181 58.5534 232.181C58.3985 231.925 58.2436 231.668 58.0887 231.411C52.5736 226.913 53.0746 220.772 53.5492 218.267C52.9876 220.24 51.3696 225.303 48.9253 228.996C49.7425 226.284 50.4224 223.539 49.9728 221.825ZM68.4591 244.542C64.2096 238.463 59.1038 232.901 58.4161 232.147C59.0522 232.815 64.2096 238.463 68.4591 244.542ZM81.5269 306.493C80.2561 305.741 78.8481 304.955 77.4224 303.946C76.6668 303.468 76.0484 303.023 75.2927 302.545C73.1971 301.006 70.9981 299.296 68.7815 297.363C67.716 296.37 66.5649 295.43 65.4478 294.352C64.0384 292.983 62.5775 291.528 61.1505 289.937C60.2047 288.755 59.1732 287.626 58.1757 286.359C56.4906 284.339 54.925 282.13 53.4968 279.955C52.3267 278.208 51.1907 276.324 50.1919 274.474C49.7095 273.481 49.1931 272.624 48.7107 271.631C47.7976 269.729 47.0041 267.639 46.2622 265.634C45.6929 264.109 45.3465 262.566 44.8628 260.989C44.7759 260.458 44.6033 259.978 44.5164 259.447C43.8576 256.224 43.559 253.017 43.5172 249.656C43.565 247.992 43.6128 246.329 43.8835 244.648C44.0685 243.018 44.3392 241.337 44.7472 239.689C45.5317 237.698 47.0731 236.769 47.6915 237.213C48.1235 238.704 48.6929 240.229 49.2962 241.617C50.6766 245.456 52.1414 248.66 52.9664 249.447C64.2288 270.448 84.362 285.632 95.4649 288.746C117.808 295.008 134.125 290.89 145.686 283.919C147.313 282.938 148.803 281.923 150.241 280.822L151.911 283.785C151.656 284.523 146.929 295.081 135.953 303.217C134.721 304.077 133.488 304.937 132.203 305.712C122.355 311.65 108.368 315.18 89.2861 309.871C89.0115 309.803 88.737 309.735 88.5481 309.616C87.999 309.48 87.5355 309.292 86.9348 309.07C85.3215 308.525 83.45 307.552 81.5269 306.493Z" fill="#FCAE00"/>
<path d="M331.915 97.7101L333.989 98.1434C355.28 102.341 373.395 100.186 388.008 91.8315C399.238 85.4079 405.397 76.7437 407.155 72.6659C410.809 64.4763 420.058 54.1725 421.726 52.3754C425.153 45.9175 420.607 38.7388 420.521 38.6871L419.205 36.6091L420.958 34.8637L425.582 30.2948L426.458 29.4221L427.71 29.4764L436.045 29.5977L440.075 29.6923L438.78 33.5825C438.728 33.6681 436.587 40.3175 435.635 44.4143C435.288 45.957 436.549 49.87 438.136 53.6293L438.63 54.7451C439.057 55.5864 439.365 56.2388 439.433 56.5133C439.518 56.565 439.467 56.6506 439.552 56.7022L439.672 56.8912L439.74 57.1657C443.998 70.2433 442.338 84.4226 435.071 98.0236C424.084 118.373 404.16 132.049 394.207 134.806C392.096 135.401 389.951 135.86 387.807 136.318C382.608 137.387 377.599 137.753 372.729 137.502C364.104 137.089 356.083 134.704 348.89 130.367C335.616 122.363 329.52 110.396 328.223 107.512C328.069 107.185 327.95 106.997 328.001 106.911L327.438 105.521L328.213 104.236L329.883 101.273L331.553 98.3095L331.915 97.7101ZM335.611 101.457C336.587 102.162 337.529 102.73 338.556 103.35C352.001 111.457 368.119 113.002 386.429 107.812C398.167 104.613 423.025 85.2718 431.778 59.1375C431.676 58.7257 431.488 58.2622 431.386 57.8504C427.957 49.5937 417.95 61.5423 414.234 66.5418C412.514 69.0076 411.016 71.4911 409.931 73.8725C406.259 82.285 385.377 110.33 335.611 101.457ZM432.721 43.8247C433.691 39.5051 435.935 32.6844 435.935 32.6844L427.652 32.4775L423.029 37.0463C423.029 37.0463 428.874 45.9428 424.14 54.1815C424.14 54.1815 424.14 54.1815 424.088 54.2671C424.14 54.1815 424.14 54.1815 424.14 54.1815C424.295 53.9246 424.45 53.6677 424.605 53.4108C430.12 48.9125 429.619 42.7717 429.144 40.2668C429.706 42.2403 431.324 47.3031 433.768 50.9957C432.951 48.2842 432.271 45.5387 432.721 43.8247ZM414.234 66.5418C418.484 60.463 423.59 54.9006 424.277 54.1475C423.641 54.8149 418.484 60.463 414.234 66.5418ZM401.167 128.493C402.437 127.741 403.845 126.955 405.271 125.946C406.027 125.468 406.645 125.023 407.401 124.545C409.496 123.006 411.695 121.296 413.912 119.363C414.977 118.37 416.129 117.43 417.246 116.352C418.655 114.983 420.116 113.528 421.543 111.937C422.489 110.755 423.52 109.626 424.518 108.359C426.203 106.339 427.768 104.13 429.197 101.955C430.367 100.208 431.503 98.3244 432.502 96.4744C432.984 95.4808 433.5 94.6245 433.983 93.6308C434.896 91.7292 435.689 89.6387 436.431 87.6338C437.001 86.1087 437.347 84.566 437.831 82.9892C437.918 82.4578 438.09 81.978 438.177 81.4465C438.836 78.2238 439.134 75.0174 439.176 71.6561C439.128 69.9925 439.081 68.3288 438.81 66.6475C438.625 65.0179 438.354 63.3366 437.946 61.6893C437.162 59.6982 435.62 58.7687 435.002 59.2132C434.57 60.7043 434.001 62.2294 433.397 63.6172C432.017 67.4557 430.552 70.6595 429.727 71.4466C418.465 92.4475 398.331 107.632 387.229 110.746C364.886 117.008 348.568 112.89 337.007 105.919C335.38 104.938 333.89 103.923 332.452 102.822L330.782 105.785C331.038 106.523 335.765 117.081 346.74 125.217C347.973 126.077 349.206 126.937 350.49 127.712C360.338 133.65 374.325 137.18 393.407 131.871C393.682 131.803 393.956 131.735 394.145 131.616C394.694 131.48 395.158 131.292 395.759 131.07C397.372 130.525 399.243 129.552 401.167 128.493Z" fill="#FCAE00"/>
</svg>
