<svg width="78" height="80" viewBox="0 0 78 80" fill="none" xmlns="http://www.w3.org/2000/svg">
<path d="M4.4447 12.5927L10.6669 4.74083C12.2966 2.66675 14.9632 1.48157 17.6299 1.48157H59.4077C62.0743 1.48157 64.5929 2.66675 66.3706 4.88897L72.5929 12.5927" fill="#DDED7C"/>
<path d="M10.3706 10.3705H66.6669C71.5558 10.3705 75.5558 14.3705 75.5558 19.2594V69.6297C75.5558 74.5186 71.5558 78.5186 66.6669 78.5186H10.3706C5.48172 78.5186 1.48172 74.5186 1.48172 69.6297V19.2594C1.48172 14.3705 5.48172 10.3705 10.3706 10.3705Z" fill="#DDED7C"/>
<path d="M69.6299 78.5186H7.40764L5.33357 75.8519C4.29653 74.5186 4.44468 72.7408 5.77802 71.7038C6.37061 71.4075 6.9632 71.1112 7.70394 71.1112H69.4817C71.1114 71.1112 72.4447 72.4445 72.4447 74.0742C72.4447 74.8149 72.1484 75.4075 71.8521 75.8519L69.6299 78.5186Z" fill="white"/>
<path d="M23.7039 53.3335C21.1854 53.3335 19.2595 55.2594 19.2595 57.7779C19.2595 60.2964 21.1854 62.2224 23.7039 62.2224C26.2225 62.2224 28.1484 60.2964 28.1484 57.7779C28.1484 55.2594 26.2225 53.3335 23.7039 53.3335ZM38.5187 38.5187C36.0002 38.5187 34.0743 40.4446 34.0743 42.9631C34.0743 45.4816 36.0002 47.4076 38.5187 47.4076C41.0373 47.4076 42.9632 45.4816 42.9632 42.9631C42.9632 40.4446 41.0373 38.5187 38.5187 38.5187ZM53.3336 23.7039C50.815 23.7039 48.8891 25.6298 48.8891 28.1483C48.8891 30.6668 50.815 32.5927 53.3336 32.5927C55.8521 32.5927 57.778 30.6668 57.778 28.1483C57.778 25.6298 55.8521 23.7039 53.3336 23.7039Z" fill="#E44050"/>
<path d="M73.778 11.7038L67.5558 3.85197C65.6299 1.4816 62.6669 0.00012207 59.4077 0.00012207H17.6299C14.5188 0.00012207 11.4077 1.4816 9.48173 3.85197L3.2595 11.7038C1.18543 13.6298 0.000244141 16.4446 0.000244141 19.2594V69.6298C0.000244141 75.4075 4.59284 80.0001 10.3706 80.0001H66.6669C72.4447 80.0001 77.0373 75.4075 77.0373 69.6298V19.2594C77.0373 16.4446 75.8521 13.6298 73.778 11.7038ZM11.8521 5.7779C13.1854 4.00012 15.4077 2.96308 17.6299 2.96308H59.4077C61.6299 2.96308 63.7039 4.00012 65.1854 5.7779L67.8521 8.88901C67.5558 8.88901 67.1114 8.88901 66.6669 8.88901H10.3706C10.0743 8.88901 9.62987 8.88901 9.33358 8.88901L11.8521 5.7779ZM74.0743 69.6298C74.0743 73.7779 70.8151 77.0372 66.6669 77.0372H10.3706C6.22247 77.0372 2.96321 73.7779 2.96321 69.6298V19.2594C2.96321 15.1112 6.22247 11.852 10.3706 11.852H66.6669C70.8151 11.852 74.0743 15.1112 74.0743 19.2594V69.6298Z" fill="#19593F"/>
<path d="M8.88914 68.1482C8.00025 68.1482 7.40765 68.7408 7.40765 69.6297V72.5927C7.40765 73.4816 8.00025 74.0741 8.88914 74.0741C9.77802 74.0741 10.3706 73.4816 10.3706 72.5927V69.6297C10.3706 68.7408 9.77802 68.1482 8.88914 68.1482ZM16.2965 68.1482C15.4077 68.1482 14.8151 68.7408 14.8151 69.6297V72.5927C14.8151 73.4816 15.4077 74.0741 16.2965 74.0741C17.1854 74.0741 17.778 73.4816 17.778 72.5927V69.6297C17.778 68.7408 17.1854 68.1482 16.2965 68.1482ZM23.7039 68.1482C22.8151 68.1482 22.2225 68.7408 22.2225 69.6297V72.5927C22.2225 73.4816 22.8151 74.0741 23.7039 74.0741C24.5928 74.0741 25.1854 73.4816 25.1854 72.5927V69.6297C25.1854 68.7408 24.5928 68.1482 23.7039 68.1482ZM31.1114 68.1482C30.2225 68.1482 29.6299 68.7408 29.6299 69.6297V72.5927C29.6299 73.4816 30.2225 74.0741 31.1114 74.0741C32.0002 74.0741 32.5928 73.4816 32.5928 72.5927V69.6297C32.5928 68.7408 32.0002 68.1482 31.1114 68.1482ZM38.5188 68.1482C37.6299 68.1482 37.0373 68.7408 37.0373 69.6297V72.5927C37.0373 73.4816 37.6299 74.0741 38.5188 74.0741C39.4077 74.0741 40.0002 73.4816 40.0002 72.5927V69.6297C40.0002 68.7408 39.4077 68.1482 38.5188 68.1482ZM45.9262 68.1482C45.0373 68.1482 44.4447 68.7408 44.4447 69.6297V72.5927C44.4447 73.4816 45.0373 74.0741 45.9262 74.0741C46.8151 74.0741 47.4077 73.4816 47.4077 72.5927V69.6297C47.4077 68.7408 46.8151 68.1482 45.9262 68.1482ZM53.3336 68.1482C52.4447 68.1482 51.8521 68.7408 51.8521 69.6297V72.5927C51.8521 73.4816 52.4447 74.0741 53.3336 74.0741C54.2225 74.0741 54.8151 73.4816 54.8151 72.5927V69.6297C54.8151 68.7408 54.2225 68.1482 53.3336 68.1482ZM60.741 68.1482C59.8521 68.1482 59.2595 68.7408 59.2595 69.6297V72.5927C59.2595 73.4816 59.8521 74.0741 60.741 74.0741C61.6299 74.0741 62.2225 73.4816 62.2225 72.5927V69.6297C62.2225 68.7408 61.6299 68.1482 60.741 68.1482ZM68.1484 68.1482C67.2595 68.1482 66.6669 68.7408 66.6669 69.6297V72.5927C66.6669 73.4816 67.2595 74.0741 68.1484 74.0741C69.0373 74.0741 69.6299 73.4816 69.6299 72.5927V69.6297C69.6299 68.7408 69.0373 68.1482 68.1484 68.1482ZM38.5188 37.0371C35.2595 37.0371 32.5928 39.7038 32.5928 42.963C32.5928 46.2223 35.2595 48.889 38.5188 48.889C41.778 48.889 44.4447 46.2223 44.4447 42.963C44.4447 39.7038 41.778 37.0371 38.5188 37.0371ZM38.5188 45.926C36.8891 45.926 35.5558 44.5927 35.5558 42.963C35.5558 41.3334 36.8891 40.0001 38.5188 40.0001C40.1484 40.0001 41.4817 41.3334 41.4817 42.963C41.4817 44.5927 40.1484 45.926 38.5188 45.926ZM23.7039 51.8519C20.4447 51.8519 17.778 54.5186 17.778 57.7778C17.778 61.0371 20.4447 63.7038 23.7039 63.7038C26.9632 63.7038 29.6299 61.0371 29.6299 57.7778C29.6299 54.5186 26.9632 51.8519 23.7039 51.8519ZM23.7039 60.7408C22.0743 60.7408 20.741 59.4075 20.741 57.7778C20.741 56.1482 22.0743 54.8149 23.7039 54.8149C25.3336 54.8149 26.6669 56.1482 26.6669 57.7778C26.6669 59.4075 25.3336 60.7408 23.7039 60.7408ZM53.3336 22.2223C50.0743 22.2223 47.4077 24.889 47.4077 28.1482C47.4077 31.4075 50.0743 34.0741 53.3336 34.0741C56.5928 34.0741 59.2595 31.4075 59.2595 28.1482C59.2595 24.889 56.5928 22.2223 53.3336 22.2223ZM53.3336 31.1112C51.7039 31.1112 50.3706 29.7778 50.3706 28.1482C50.3706 26.5186 51.7039 25.1853 53.3336 25.1853C54.9632 25.1853 56.2965 26.5186 56.2965 28.1482C56.2965 29.7778 54.9632 31.1112 53.3336 31.1112Z" fill="#19593F"/>
</svg>
