<svg width="615" height="492" viewBox="0 0 615 492" fill="none" xmlns="http://www.w3.org/2000/svg">
<circle cx="301.5" cy="244.5" r="227.5" fill="#EA6A82"/>
<path d="M179.11 217.664C178.399 217.771 177.332 218.997 177.315 219.717C177.319 220.683 177.978 222.093 178.786 222.573C179.842 223.154 181.058 223.435 182.295 223.72C182.761 223.828 183.229 223.936 183.694 224.062C183.784 223.943 183.88 223.836 183.977 223.729C184.074 223.622 184.171 223.515 184.261 223.396C184.051 222.923 183.863 222.436 183.676 221.952L183.676 221.95C183.24 220.822 182.81 219.708 182.13 218.809C181.614 217.959 180.115 217.509 179.11 217.664Z" fill="#DDED7C"/>
<path d="M100.245 232.459C99.9289 231.617 100.198 230.034 100.812 229.34C101.313 228.779 103.028 228.517 103.674 228.837C104.482 229.317 105.265 230.716 105.192 231.664C105.083 232.752 104.714 233.829 104.274 235.114C104.047 235.776 103.801 236.494 103.562 237.297C103.082 236.611 102.626 236.013 102.206 235.463C101.376 234.376 100.689 233.476 100.245 232.459Z" fill="#DDED7C"/>
<path d="M124.195 215.34C123.657 216.053 123.71 217.634 124.13 218.542C124.628 219.52 125.405 220.329 126.182 221.137C126.464 221.432 126.747 221.726 127.016 222.028C127.291 222.055 127.571 222.064 127.851 222.072C128.131 222.081 128.41 222.089 128.685 222.117C128.717 221.683 128.764 221.245 128.811 220.806C128.94 219.601 129.071 218.383 128.886 217.218C128.731 216.215 128.024 214.834 127.179 214.505C126.428 214.12 124.733 214.628 124.195 215.34Z" fill="#DDED7C"/>
<path d="M149.157 200.321C150.02 200.252 151.379 201.109 151.894 201.96C152.446 202.87 152.742 203.965 153.113 205.339C153.282 205.963 153.466 206.644 153.697 207.391C152.944 207.118 152.261 206.897 151.638 206.696C150.273 206.255 149.194 205.906 148.293 205.298C147.533 204.789 146.722 203.343 146.851 202.489C147.028 201.608 148.247 200.419 149.157 200.321Z" fill="#DDED7C"/>
<path d="M150.037 236.781C149.736 237.673 149.989 239.263 150.636 239.905C151.42 240.695 152.401 241.277 153.392 241.865C153.869 242.148 154.349 242.432 154.809 242.742C154.927 242.67 155.05 242.58 155.173 242.489C155.296 242.399 155.419 242.308 155.537 242.237C155.503 241.814 155.484 241.386 155.466 240.957C155.413 239.767 155.36 238.573 154.98 237.474C154.683 236.556 153.484 235.537 152.602 235.36C151.824 235.249 150.3 236.041 150.037 236.781Z" fill="#DDED7C"/>
<path d="M170.387 188.849C170.252 188.092 171.176 186.63 171.924 186.371C172.843 186.074 174.409 186.419 175.008 187.09C175.847 187.948 176.418 189.001 176.993 190.061C177.233 190.504 177.474 190.949 177.736 191.381C177.646 191.5 177.552 191.637 177.458 191.775C177.363 191.913 177.269 192.051 177.179 192.169C176.658 192.067 176.135 191.994 175.615 191.921C174.525 191.768 173.453 191.617 172.463 191.21C171.589 190.834 170.532 189.73 170.387 188.849Z" fill="#DDED7C"/>
<path d="M179.683 245.4C178.991 245.431 177.81 246.79 177.775 247.586C177.75 248.505 178.533 249.904 179.341 250.384C180.256 250.883 181.325 251.141 182.647 251.46C183.272 251.61 183.954 251.775 184.704 251.985C184.444 251.245 184.243 250.569 184.061 249.956C183.68 248.672 183.379 247.659 182.78 246.886C182.189 246.017 180.698 245.368 179.683 245.4Z" fill="#DDED7C"/>
<path d="M146.121 268.843C145.634 268.04 145.809 266.514 146.309 265.631C146.629 264.986 148.201 264.487 148.876 264.854C149.75 265.23 150.787 266.411 150.885 267.32C151.005 268.39 150.805 269.474 150.604 270.562C150.509 271.073 150.414 271.585 150.353 272.096C150.177 272.166 150.007 272.212 149.845 272.256C149.719 272.29 149.597 272.323 149.481 272.365C149.132 272.012 148.763 271.677 148.396 271.344C147.545 270.569 146.701 269.801 146.121 268.843Z" fill="#DDED7C"/>
<path d="M122.194 252.701C121.666 253.536 121.368 255.072 121.808 255.904C122.365 256.98 123.215 257.915 124.07 258.855C124.387 259.203 124.705 259.552 125.008 259.909L125.804 259.622C125.907 259.103 126.041 258.583 126.174 258.065C126.474 256.901 126.772 255.745 126.715 254.617C126.693 253.727 125.674 252.47 124.819 252.019C124.144 251.652 122.591 252.074 122.194 252.701Z" fill="#DDED7C"/>
<path d="M174.57 279.541C173.923 278.899 173.747 277.328 174.019 276.389C174.215 275.753 175.711 274.914 176.413 275.007C177.4 275.249 178.588 276.145 178.886 277.063C179.243 278.096 179.266 279.24 179.289 280.376C179.299 280.883 179.309 281.389 179.349 281.883C179.23 281.955 179.105 282.014 178.979 282.074C178.854 282.134 178.729 282.193 178.61 282.265C178.182 281.985 177.736 281.729 177.292 281.473C176.3 280.902 175.32 280.337 174.57 279.541Z" fill="#DDED7C"/>
<path fill-rule="evenodd" clip-rule="evenodd" d="M189.453 179.782C178.06 168.009 164.426 165.983 149.278 170.423C146.419 171.274 143.638 172.308 140.733 173.388C139.577 173.818 138.401 174.256 137.193 174.691L137.36 174.388L137.361 174.387C137.862 173.475 138.25 172.769 138.616 172.024C144.293 160.589 144.243 149.192 138.342 137.846C136.7 134.706 135.589 134.473 132.676 136.492C123.925 142.425 118.71 150.676 116.974 161.15C116.826 162.079 116.678 163.008 116.558 163.984C112.318 155.701 111.206 147.141 112.891 138.182C112.939 137.938 113.015 137.682 113.093 137.425C113.27 136.834 113.45 136.234 113.29 135.746C112.907 134.687 112.181 133.382 111.26 133.035C110.61 132.796 109.375 133.837 108.56 134.524L108.506 134.57C108.258 134.766 108.192 135.209 108.128 135.639C108.101 135.816 108.075 135.99 108.037 136.144C105.939 146.127 106.847 155.843 111.024 165.198C111.776 166.882 112.593 168.526 113.508 170.368L113.513 170.378C113.701 170.758 113.894 171.145 114.091 171.543C113.615 171.379 113.208 171.232 112.842 171.1C112.266 170.892 111.791 170.72 111.309 170.577C98.331 166.541 86.5415 168.629 75.9701 177.211C73.4076 179.276 73.355 180.47 75.7531 182.83C83.357 190.372 92.6153 193.816 103.301 193.427C103.765 193.416 104.235 193.383 104.773 193.347C105.269 193.313 105.824 193.275 106.487 193.245C105.354 194.255 104.257 195.201 103.195 196.118C101.305 197.749 99.5215 199.287 97.8279 200.931C85.7219 212.635 80.8019 226.389 86.1337 242.986C88.7418 251.029 93.3184 257.947 98.642 264.285C110.194 278.028 124.842 287.705 141.707 294.105C149.693 297.156 157.931 299.021 166.513 299C181.695 298.993 193.375 292.775 200.961 279.476C203.025 275.84 204.841 271.902 206.003 267.844C212.84 244.022 210.661 220.678 201.334 197.909C198.531 191.146 194.565 185.021 189.453 179.782ZM134.345 141.81C141.279 153.049 136.599 172.856 125.612 179.365C117.089 172.12 122.281 149.422 134.345 141.81ZM80.7035 180.226C90.8929 170.906 113.533 172.009 119.77 181.991C109.978 191.007 90.1366 190.149 80.7035 180.226ZM92.468 216.306C95.9992 209.33 101.366 203.893 107.466 199.238C119.987 189.607 133.3 181.175 148.426 176.167C152.474 174.808 156.849 174.331 161.184 173.858C162.256 173.742 163.325 173.625 164.386 173.496C165.684 173.324 167.049 173.557 168.417 173.791C169.067 173.902 169.718 174.013 170.363 174.081C170.373 174.204 170.39 174.339 170.407 174.474C170.424 174.608 170.441 174.743 170.451 174.866C161.785 180.619 152.401 184.546 141.801 185.077C138.217 185.241 138.142 185.544 137.424 188.948C136.733 192.143 135.753 195.266 134.767 198.409C134.515 199.211 134.263 200.015 134.015 200.821C133.209 203.438 131.334 204.184 128.828 203.567C128.279 203.427 127.729 203.286 127.178 203.146C123.894 202.309 120.593 201.467 117.39 200.472C114.105 199.423 113.593 199.539 112.059 202.661C107.389 212.132 99.5208 218.242 89.8643 222.785C90.1286 222.113 90.3743 221.439 90.6187 220.769C91.1738 219.247 91.7225 217.742 92.468 216.306ZM196.428 199.518C205.399 220.953 207.526 243.037 201.31 265.643C199.017 274.13 194.862 281.676 187.77 287.253C181.283 292.335 173.778 294.029 165.755 293.906C155.446 293.744 145.782 290.803 136.52 286.393C121.559 279.294 108.533 269.735 98.6892 256.252C93.9532 249.817 90.4572 242.762 89.1201 234.791C88.3645 230.341 88.7231 229.866 92.5941 227.721C103.791 221.665 108.384 217.405 116.224 206.018C117.323 206.266 118.409 206.527 119.488 206.785C122.306 207.461 125.075 208.124 127.888 208.525C133.989 209.422 136.109 208.335 138.564 202.784C139.718 200.234 140.577 197.56 141.477 194.756C141.958 193.261 142.45 191.729 143.005 190.159C142.721 190.331 142.9 190.094 143.147 190.074C154.949 189.075 165.374 184.519 174.946 177.702C176.422 176.617 177.446 176.708 178.834 177.612C187.113 183.068 192.659 190.627 196.428 199.518Z" fill="#DDED7C"/>
<path d="M495.473 440.004C501.916 429.747 500.963 419.606 495.097 409.522C493.537 406.864 491.746 404.379 489.897 401.606C490.763 401.837 491.399 402.01 492.064 402.154C501.28 404.206 509.457 402.154 516.565 395.914C518.529 394.18 518.501 393.342 516.536 391.609C510.728 386.379 503.881 384.097 496.051 384.703C495.357 384.761 494.664 384.819 493.942 384.906C499.142 380.398 505.094 378.087 511.826 377.711C512.433 377.682 513.184 377.856 513.647 377.567C514.34 377.104 515.149 376.353 515.236 375.631C515.293 375.111 514.282 374.389 513.647 373.926C513.387 373.724 512.838 373.868 512.433 373.868C504.892 374.129 498.073 376.498 492.093 381.149C490.792 382.161 489.55 383.23 488.076 384.472C488.163 383.519 488.25 382.912 488.279 382.305C488.885 372.279 485.303 364.189 477.271 358.122C475.335 356.648 474.468 356.822 473.197 358.96C469.123 365.75 468.285 373.002 470.452 380.6C470.625 381.236 470.856 381.872 471.145 382.854C468.574 381.092 466.407 379.445 464.095 378C453.55 371.384 442.802 370.286 431.822 377.047C426.506 380.34 422.345 384.848 418.734 389.788C410.904 400.508 406.541 412.729 404.923 425.962C404.143 432.232 404.259 438.473 405.79 444.627C408.477 455.519 415.007 462.8 425.899 465.892C428.875 466.73 432.025 467.337 435.145 467.452C453.463 468.146 469.845 462.454 484.552 451.734C488.914 448.527 492.613 444.598 495.473 440.004ZM513.011 393.747C506.163 400.71 491.11 400.854 484.494 394.122C488.192 386.726 505.412 386.437 513.011 393.747ZM475.942 362.051C484.436 367.714 487.643 384.154 481.576 390.395C473.37 384.963 470.481 370.575 475.942 362.051ZM452.105 376.873C457.739 378.173 462.593 381.063 467.014 384.617C476.144 391.898 484.552 399.959 490.821 409.927C492.93 413.249 494.144 417.179 495.56 420.906C496.08 422.235 495.993 423.824 496.195 425.298C496.022 425.355 495.82 425.442 495.646 425.5C489.983 420.299 485.505 414.261 483.251 406.748C482.5 404.206 482.269 404.206 479.698 404.293C476.664 404.379 473.63 404.119 470.567 403.946C468.545 403.83 467.678 402.617 467.678 400.71C467.707 397.792 467.707 394.845 467.88 391.955C468.054 389.413 467.88 389.066 465.367 388.517C457.739 386.841 451.961 382.276 446.991 376.151C448.725 376.382 450.429 376.469 452.105 376.873ZM482.529 448.498C468.718 458.726 453.232 464.158 435.896 463.696C429.395 463.552 423.241 461.905 417.983 457.802C413.186 454.046 410.644 448.961 409.315 443.182C407.61 435.757 408.015 428.302 409.546 420.877C412.002 408.886 416.567 397.849 424.512 388.402C428.297 383.865 432.747 380.109 438.236 377.74C441.299 376.411 441.704 376.584 443.928 378.982C450.256 385.946 454.127 388.488 463.691 392.1C463.749 395.105 463.662 398.023 463.951 400.912C464.384 405.448 465.54 406.777 469.961 407.557C473.081 408.135 476.288 408.164 479.813 408.511C479.64 408.338 479.842 408.424 479.9 408.598C482.702 416.89 487.816 423.564 494.404 429.227C495.444 430.094 495.56 430.845 495.155 432.001C492.699 438.906 488.25 444.222 482.529 448.498Z" fill="#DDED7C"/>
<path d="M466.436 439.282C466.234 438.79 465.165 438.242 464.644 438.357C463.951 438.53 463.055 439.253 462.853 439.917C462.535 441.102 462.68 442.402 462.651 443.702C462.853 443.789 463.026 443.904 463.229 443.991C464.24 443.211 465.396 442.575 466.147 441.651C466.667 441.131 466.725 439.975 466.436 439.282Z" fill="#DDED7C"/>
<path d="M444.217 385.166C443.611 384.848 442.426 384.934 441.877 385.31C440.895 386.061 440.201 387.159 438.988 388.546C440.808 388.633 442.108 388.893 443.322 388.719C444.015 388.604 444.882 387.795 445.084 387.13C445.2 386.61 444.708 385.426 444.217 385.166Z" fill="#DDED7C"/>
<path d="M458.404 399.467C457.797 399.207 456.67 399.525 456.092 399.987C455.254 400.71 454.734 401.75 454.099 402.674C454.156 403.079 454.272 403.483 454.33 403.888C455.514 403.686 456.786 403.628 457.884 403.166C458.577 402.877 459.444 402.126 459.53 401.461C459.675 400.854 459.01 399.727 458.404 399.467Z" fill="#DDED7C"/>
<path d="M472.908 416.976C473.428 416.456 473.803 415.33 473.601 414.723C473.37 414.087 472.301 413.423 471.636 413.452C471.001 413.509 470.105 414.347 469.874 414.983C469.47 416.081 469.527 417.352 469.325 419.23C470.914 418.277 472.099 417.785 472.908 416.976Z" fill="#DDED7C"/>
<path d="M447.569 421.801C446.875 421.744 445.777 422.206 445.431 422.784C444.795 423.824 444.564 425.095 444.131 426.28C444.275 426.424 444.477 426.569 444.622 426.713C445.749 426.338 446.962 426.106 447.944 425.471C448.551 425.095 449.071 424.055 449.042 423.391C448.985 422.813 448.147 421.859 447.569 421.801Z" fill="#DDED7C"/>
<path d="M487.643 428.591C487.325 428.1 486.112 427.696 485.592 427.927C484.985 428.187 484.378 429.14 484.263 429.834C484.089 430.989 484.349 432.174 484.407 433.388C484.609 433.474 484.869 433.561 485.072 433.648C485.967 432.752 487.007 432.001 487.672 430.932C488.048 430.383 488.019 429.198 487.643 428.591Z" fill="#DDED7C"/>
<path d="M446.615 444.598C446.471 444.107 445.286 443.5 444.708 443.616C444.044 443.76 443.177 444.569 442.975 445.234C442.686 446.331 442.83 447.574 442.773 449.365C444.275 448.383 445.431 447.921 446.095 447.083C446.615 446.505 446.818 445.32 446.615 444.598Z" fill="#DDED7C"/>
<path d="M426.188 424.228C425.466 424.026 424.339 424.171 423.848 424.662C423.01 425.5 422.548 426.655 421.912 427.696C422.028 427.869 422.114 428.071 422.259 428.273C423.443 428.129 424.686 428.216 425.784 427.811C426.419 427.58 427.084 426.627 427.199 425.933C427.344 425.384 426.708 424.344 426.188 424.228Z" fill="#DDED7C"/>
<path d="M431.216 404.639C430.522 404.408 429.366 404.466 428.846 404.928C427.922 405.737 427.286 406.893 426.535 407.933C426.651 408.106 426.766 408.28 426.882 408.453C428.153 408.395 429.482 408.569 430.638 408.222C431.273 408.049 431.996 407.095 432.169 406.402C432.313 405.853 431.736 404.813 431.216 404.639Z" fill="#DDED7C"/>
<path d="M423.357 446.014C422.634 445.985 421.536 446.389 421.19 446.967C420.554 447.949 420.352 449.192 419.947 450.348C420.092 450.492 420.207 450.665 420.352 450.81C421.479 450.434 422.75 450.261 423.732 449.625C424.339 449.25 424.772 448.238 424.772 447.487C424.715 446.967 423.848 446.042 423.357 446.014Z" fill="#DDED7C"/>
<path d="M398.5 403.76C518.07 403.76 615 383.053 615 357.51C615 331.966 518.07 311.259 398.5 311.259C278.93 311.259 182 331.966 182 357.51C182 383.053 278.93 403.76 398.5 403.76Z" fill="#333333" fill-opacity="0.1"/>
<path d="M246.518 174.841C246.657 174.841 246.75 174.841 246.89 174.796L316.935 164.468H316.981C317.121 164.468 317.214 164.468 317.353 164.423C317.771 164.378 318.143 164.198 318.468 163.929C318.793 163.704 319.072 163.345 319.211 162.986C319.258 162.851 319.304 162.762 319.304 162.627L345.037 98.8184C345.316 98.0551 345.223 97.2468 344.665 96.6181L300.399 43.0927C299.935 42.5539 299.284 42.2396 298.588 42.2396C298.448 42.2396 298.355 42.2396 298.216 42.2845C297.891 42.3294 297.612 42.4641 297.333 42.5988L227.66 52.8818C226.823 53.0165 226.127 53.5553 225.848 54.2738L200.069 118.127C199.976 118.307 199.929 118.531 199.929 118.711C199.79 119.339 199.976 120.013 200.394 120.507L244.706 173.987C245.124 174.526 245.821 174.841 246.518 174.841Z" fill="white"/>
<path d="M396.363 237.347C396.178 236.988 395.899 236.673 395.527 236.449C395.388 236.359 395.249 236.314 395.109 236.269L303.836 180.409C303.465 180.184 303.047 180.049 302.582 180.049C302.211 180.049 301.839 180.139 301.514 180.319L205.968 228.77C205.225 229.129 204.76 229.848 204.714 230.656C204.714 231.06 204.807 231.419 204.946 231.734L200.58 335.686C200.533 336.495 200.951 337.258 201.648 337.662L292.828 393.433C292.967 393.522 293.153 393.612 293.339 393.657C293.664 393.792 293.989 393.882 294.314 393.882C294.686 393.882 295.057 393.792 295.383 393.612L390.929 345.161C391.672 344.802 392.136 344.083 392.183 343.275L396.596 238.918C396.642 238.784 396.642 238.604 396.688 238.469C396.688 238.11 396.596 237.706 396.363 237.347Z" fill="white"/>
<path d="M603.573 89.7029C603.248 89.4335 602.83 89.2988 602.412 89.2539L503.243 12.603C502.825 12.2886 502.314 12.109 501.803 12.109C501.524 12.109 501.246 12.1539 500.967 12.2437L382.521 57.0129C382.336 57.1027 382.15 57.1925 381.964 57.3272C381.36 57.6415 380.896 58.2702 380.803 58.9438L361.712 180.499C361.573 181.307 361.898 182.07 362.548 182.609L461.996 259.484C462.089 259.619 462.228 259.754 462.368 259.844C462.693 260.113 463.111 260.248 463.482 260.293C463.622 260.338 463.761 260.338 463.901 260.338C464.179 260.338 464.458 260.293 464.737 260.203C464.876 260.158 465.062 260.068 465.201 259.978L583.786 215.164C584.576 214.85 585.133 214.221 585.226 213.413L604.363 91.8583C604.549 91.0051 604.224 90.1969 603.573 89.7029Z" fill="white"/>
<path d="M317.028 162.178L246.518 172.595L202.205 119.115L272.715 108.697L317.028 162.178Z" fill="white"/>
<path d="M342.9 98.0101L316.982 162.223L272.669 108.742L298.588 44.4848L342.9 98.0101Z" fill="#E6E6E6"/>
<path d="M272.762 108.519L202.252 118.936L228.031 55.1281L298.541 44.7104L272.762 108.519Z" fill="white"/>
<path d="M312.244 100.659C314.334 103.174 314.984 107.62 313.777 110.628C312.569 113.637 309.921 114.041 307.831 111.526C305.787 109.012 305.09 104.566 306.298 101.558C307.506 98.549 310.153 98.1449 312.244 100.659Z" fill="#19593F"/>
<path d="M253.996 156.969C255.808 159.124 254.925 161.235 252.045 161.684C249.166 162.088 245.403 160.696 243.592 158.496C241.78 156.34 242.663 154.23 245.542 153.781C248.422 153.377 252.185 154.814 253.996 156.969Z" fill="#19593F"/>
<path d="M231.422 128.455C233.234 130.61 232.351 132.721 229.471 133.17C226.591 133.574 222.829 132.182 221.017 129.982C219.206 127.826 220.088 125.716 222.968 125.267C225.848 124.863 229.657 126.3 231.422 128.455Z" fill="#19593F"/>
<path d="M293.432 151.491C295.243 153.646 294.361 155.757 291.481 156.206C288.601 156.61 284.839 155.218 283.027 153.017C281.216 150.862 282.098 148.752 284.978 148.302C287.858 147.898 291.62 149.29 293.432 151.491Z" fill="#19593F"/>
<path d="M274.248 123.605C276.06 125.761 275.177 127.871 272.297 128.32C269.417 128.724 265.655 127.332 263.844 125.132C262.032 122.977 262.915 120.866 265.794 120.417C268.674 120.013 272.437 121.45 274.248 123.605Z" fill="#19593F"/>
<path d="M263.89 73.1783C266.77 72.7742 268.21 74.5254 267.188 77.1299C266.12 79.7343 262.961 82.1591 260.128 82.6081C257.248 83.0123 255.808 81.261 256.83 78.6566C257.852 76.0522 261.01 73.5824 263.89 73.1783Z" fill="#19593F"/>
<path d="M237.368 77.085C240.247 76.6809 241.687 78.4321 240.665 81.0365C239.597 83.641 236.439 86.0658 233.605 86.5148C230.725 86.9189 229.285 85.1677 230.307 82.5633C231.329 79.9588 234.488 77.4891 237.368 77.085Z" fill="#19593F"/>
<path d="M272.808 51.0407C275.688 50.6366 277.128 52.3879 276.106 54.9923C275.038 57.5967 271.879 60.0216 269.046 60.4706C266.166 60.8747 264.726 59.1235 265.748 56.519C266.77 53.9146 269.975 51.4449 272.808 51.0407Z" fill="#19593F"/>
<path d="M246.332 54.9474C249.212 54.5432 250.652 56.2945 249.63 58.8989C248.562 61.5033 245.403 63.9281 242.57 64.3772C239.69 64.7813 238.25 63.0301 239.272 60.4256C240.294 57.8212 243.452 55.3515 246.332 54.9474Z" fill="#19593F"/>
<path d="M254.925 95.316C257.805 94.9119 259.245 96.6632 258.223 99.2676C257.155 101.872 253.996 104.297 251.163 104.746C248.283 105.15 246.843 103.399 247.865 100.794C248.887 98.1899 252.092 95.7202 254.925 95.316Z" fill="#19593F"/>
<path d="M228.449 99.2226C231.329 98.8184 232.769 100.57 231.747 103.174C230.679 105.779 227.52 108.203 224.687 108.652C221.807 109.057 220.367 107.305 221.389 104.701C222.411 102.096 225.569 99.6267 228.449 99.2226Z" fill="#19593F"/>
<path d="M394.273 238.38L389.86 343.23L294.314 391.681L298.727 286.786L394.273 238.38Z" fill="#E6E6E6"/>
<path d="M302.629 182.34L394.319 238.469L298.773 286.876L207.036 230.746L302.629 182.34Z" fill="white"/>
<path d="M298.495 286.696L294.082 391.592L202.902 335.776L207.361 230.925L298.495 286.696Z" fill="white"/>
<path d="M297.798 227.378C302.257 225.133 309.364 225.402 313.637 228.007C317.91 230.611 317.771 234.563 313.312 236.853C308.853 239.098 301.746 238.828 297.473 236.224C293.199 233.62 293.339 229.668 297.798 227.378Z" fill="#19593F"/>
<path d="M367.936 327.918C371.838 325.942 374.811 327.828 374.625 332.094C374.439 336.36 371.141 341.434 367.286 343.365C363.384 345.341 360.412 343.455 360.597 339.189C360.737 334.923 364.035 329.849 367.936 327.918Z" fill="#19593F"/>
<path d="M317.307 352.166C321.208 350.19 324.181 352.076 323.995 356.342C323.809 360.608 320.512 365.682 316.656 367.613C312.755 369.589 309.782 367.703 309.968 363.437C310.107 359.216 313.405 354.142 317.307 352.166Z" fill="#19593F"/>
<path d="M370.909 269.318C374.811 267.343 377.784 269.228 377.598 273.494C377.412 277.76 374.114 282.834 370.259 284.765C366.357 286.741 363.384 284.855 363.57 280.589C363.709 276.368 367.007 271.294 370.909 269.318Z" fill="#19593F"/>
<path d="M322.23 288.941C326.132 286.966 329.105 288.852 328.919 293.117C328.733 297.383 325.435 302.412 321.58 304.388C317.678 306.364 314.705 304.478 314.891 300.212C315.077 295.946 318.375 290.917 322.23 288.941Z" fill="#19593F"/>
<path d="M241.269 289.256C241.455 284.99 244.613 283.373 248.283 285.663C251.999 287.908 254.832 293.207 254.647 297.473C254.461 301.739 251.302 303.355 247.633 301.065C243.963 298.775 241.083 293.521 241.269 289.256Z" fill="#19593F"/>
<path d="M239.597 328.681C239.783 324.415 242.941 322.799 246.611 325.089C250.327 327.334 253.16 332.633 252.974 336.899C252.789 341.164 249.63 342.781 245.961 340.491C242.291 338.201 239.411 332.947 239.597 328.681Z" fill="#19593F"/>
<path d="M209.637 269.902C209.823 265.636 212.982 264.02 216.651 266.31C220.367 268.555 223.2 273.854 223.015 278.12C222.829 282.385 219.67 284.002 216.001 281.712C212.331 279.467 209.451 274.168 209.637 269.902Z" fill="#19593F"/>
<path d="M208.012 309.328C208.197 305.062 211.356 303.445 215.025 305.735C218.741 307.981 221.575 313.279 221.389 317.545C221.203 321.811 218.045 323.427 214.375 321.137C210.659 318.892 207.826 313.594 208.012 309.328Z" fill="#19593F"/>
<path d="M272.901 308.609C273.087 304.343 276.245 302.727 279.915 305.017C283.631 307.262 286.464 312.561 286.278 316.827C286.093 321.092 282.934 322.709 279.265 320.419C275.549 318.129 272.715 312.83 272.901 308.609Z" fill="#19593F"/>
<path d="M271.229 348.035C271.415 343.769 274.573 342.152 278.243 344.442C281.959 346.688 284.792 351.986 284.606 356.252C284.42 360.518 281.262 362.135 277.592 359.845C273.876 357.555 271.043 352.256 271.229 348.035Z" fill="#19593F"/>
<path d="M463.947 258.092L363.988 180.813L383.125 59.2581L483.038 136.538L463.947 258.092Z" fill="white"/>
<path d="M582.996 213.009L463.808 258.047L482.945 136.538L602.087 91.4541L582.996 213.009Z" fill="#E6E6E6"/>
<path d="M483.316 136.358L383.358 59.1234L501.803 14.3542L601.715 91.5889L483.316 136.358Z" fill="white"/>
<path d="M504.395 225.588C508.975 220.111 510.036 213.599 506.765 211.042C503.493 208.485 497.128 210.851 492.548 216.328C487.967 221.805 486.906 228.318 490.178 230.875C493.449 233.432 499.814 231.065 504.395 225.588Z" fill="#19593F"/>
<path d="M572.824 140.354C571.942 146.012 566.693 152.344 561.119 154.409C555.545 156.52 551.783 153.601 552.665 147.943C553.548 142.285 558.796 135.954 564.37 133.843C569.898 131.778 573.707 134.697 572.824 140.354Z" fill="#19593F"/>
<path d="M405.839 107.934C405.049 112.873 401.148 114.355 397.06 111.212C392.972 108.069 390.325 101.513 391.115 96.5732C391.904 91.6338 395.806 90.152 399.893 93.2952C403.981 96.4385 406.629 102.994 405.839 107.934Z" fill="#19593F"/>
<path d="M449.826 214.985C449.037 219.924 445.135 221.406 441.048 218.263C436.96 215.119 434.312 208.563 435.102 203.624C435.892 198.685 439.793 197.203 443.881 200.346C447.969 203.489 450.616 210.045 449.826 214.985Z" fill="#19593F"/>
<path d="M430.875 164.378C430.085 169.317 426.184 170.799 422.096 167.656C418.009 164.513 415.361 157.957 416.151 153.017C416.94 148.078 420.842 146.596 424.93 149.739C428.971 152.883 431.665 159.439 430.875 164.378Z" fill="#19593F"/>
<path d="M501.71 69.1818C505.751 72.3251 505.148 76.3215 500.363 78.1626C495.533 80.0036 488.379 78.9259 484.292 75.7827C480.251 72.6394 480.855 68.643 485.639 66.8019C490.47 65.0058 497.669 66.0835 501.71 69.1818Z" fill="#19593F"/>
<path d="M513.88 29.4868C517.921 32.6301 517.317 36.6265 512.533 38.4676C507.702 40.3087 500.549 39.231 496.461 36.0877C492.42 32.9444 493.024 28.9479 497.809 27.1069C502.639 25.2658 509.839 26.3435 513.88 29.4868Z" fill="#19593F"/>
<path d="M431.758 60.5154C435.799 63.6587 435.195 67.6552 430.411 69.4962C425.58 71.2924 418.427 70.2596 414.339 67.1163C410.298 63.973 410.902 59.9766 415.686 58.1355C420.47 56.2944 427.67 57.3721 431.758 60.5154Z" fill="#19593F"/>
<path d="M579.513 81.0365C583.554 84.1797 582.95 88.1762 578.166 90.0172C573.335 91.8583 566.182 90.7806 562.094 87.6373C558.053 84.494 558.657 80.4976 563.441 78.6565C568.272 76.8604 575.472 77.9381 579.513 81.0365Z" fill="#19593F"/>
<path d="M497.39 112.11C501.432 115.253 500.828 119.25 496.043 121.091C491.213 122.932 484.06 121.854 479.972 118.711C475.931 115.568 476.535 111.571 481.319 109.73C486.103 107.889 493.303 108.967 497.39 112.11Z" fill="#19593F"/>
<path d="M372.555 71.7942C372.114 71.6102 371.084 71.9413 370.827 72.3459C370.496 72.8976 370.385 73.9275 370.679 74.4792C371.08 75.174 371.675 75.7523 372.281 76.3411C372.509 76.5627 372.739 76.7857 372.96 77.0171C373.052 76.9803 373.144 76.9527 373.236 76.9251C373.328 76.8975 373.42 76.8699 373.512 76.8331C373.556 76.4911 373.616 76.149 373.677 75.8089L373.677 75.8079C373.818 75.0148 373.957 74.2323 373.879 73.4861C373.879 72.824 373.181 72.0516 372.555 71.7942Z" fill="#DDED7C"/>
<path d="M322.57 53.0726C322.68 52.4841 323.379 51.6749 323.968 51.491C324.446 51.3439 325.512 51.7853 325.77 52.1899C326.064 52.7416 326.027 53.8082 325.66 54.3232C325.223 54.9057 324.642 55.3921 323.948 55.9726C323.591 56.2718 323.203 56.5961 322.791 56.9714C322.754 56.4155 322.7 55.9176 322.651 55.4597C322.553 54.5544 322.472 53.8054 322.57 53.0726Z" fill="#DDED7C"/>
<path d="M342.101 51.5646C341.549 51.7853 341.034 52.7048 340.96 53.3669C340.906 54.0951 341.07 54.8234 341.234 55.5517C341.293 55.8165 341.353 56.0813 341.402 56.3461C341.549 56.4565 341.705 56.5576 341.862 56.6588C342.018 56.7599 342.174 56.8611 342.321 56.9714C342.488 56.7354 342.666 56.502 342.845 56.2677C343.333 55.6257 343.827 54.9772 344.124 54.2496C344.381 53.6243 344.455 52.5945 344.087 52.1163C343.793 51.6382 342.652 51.3439 342.101 51.5646Z" fill="#DDED7C"/>
<path d="M361.484 51.6014C361.999 51.8589 362.477 52.8152 362.477 53.4772C362.477 54.1856 362.268 54.9114 362.006 55.8221C361.888 56.2354 361.758 56.6869 361.631 57.1921C361.297 56.7772 360.985 56.4165 360.699 56.0873C360.074 55.3659 359.58 54.7959 359.277 54.1393C359.02 53.5876 359.057 52.4841 359.424 52.0428C359.829 51.6014 360.932 51.3439 361.484 51.6014Z" fill="#DDED7C"/>
<path d="M349.42 72.6769C348.942 73.0815 348.537 74.0746 348.684 74.663C348.858 75.383 349.216 76.0527 349.578 76.7287C349.752 77.054 349.927 77.3813 350.082 77.7159C350.174 77.7159 350.275 77.7067 350.376 77.6975C350.477 77.6883 350.579 77.6791 350.671 77.6791C350.797 77.4262 350.934 77.1758 351.071 76.9253C351.451 76.2288 351.832 75.5308 351.995 74.7734C352.142 74.1481 351.811 73.155 351.369 72.7504C350.965 72.4194 349.825 72.3458 349.42 72.6769Z" fill="#DDED7C"/>
<path d="M377.521 52.3738C377.705 51.8956 378.734 51.3807 379.249 51.4911C379.875 51.6382 380.647 52.3738 380.757 52.9623C380.939 53.7403 380.901 54.5365 380.863 55.3382C380.847 55.6736 380.831 56.0099 380.831 56.3461C380.739 56.3829 380.638 56.4288 380.537 56.4748C380.436 56.5208 380.334 56.5668 380.242 56.6036C379.981 56.3661 379.709 56.144 379.438 55.9236C378.87 55.4612 378.312 55.0064 377.889 54.4335C377.521 53.9186 377.3 52.9255 377.521 52.3738Z" fill="#DDED7C"/>
<path d="M363.323 87.7939C362.919 87.5732 361.778 87.941 361.484 88.3824C361.153 88.8973 361.116 89.964 361.411 90.5157C361.76 91.115 362.279 91.6295 362.922 92.2664C363.226 92.5677 363.557 92.8963 363.912 93.2743C364.019 92.7627 364.137 92.3089 364.245 91.8967C364.471 91.0342 364.648 90.3535 364.574 89.7065C364.537 89.0077 363.912 88.1249 363.323 87.7939Z" fill="#DDED7C"/>
<path d="M336.142 89.5961C336.142 88.9709 336.767 88.1617 337.356 87.8307C337.76 87.5732 338.827 87.8307 339.085 88.272C339.452 88.787 339.636 89.8168 339.379 90.3685C339.078 91.0194 338.591 91.568 338.101 92.1187C337.871 92.3772 337.641 92.6362 337.429 92.9064C337.305 92.8858 337.193 92.8534 337.086 92.8226C337.002 92.7986 336.921 92.7754 336.841 92.7593C336.763 92.4383 336.669 92.1205 336.576 91.8042C336.358 91.0694 336.142 90.3417 336.142 89.5961Z" fill="#DDED7C"/>
<path d="M328.087 72.162C327.499 72.4562 326.8 73.2286 326.763 73.8539C326.709 74.6592 326.871 75.484 327.034 76.3142C327.094 76.6216 327.155 76.9296 327.204 77.2377L327.756 77.3481C327.994 77.0876 328.249 76.8376 328.504 76.5884C329.075 76.0282 329.643 75.4721 330 74.8102C330.294 74.2953 330.147 73.2286 329.816 72.6769C329.558 72.2355 328.528 71.9413 328.087 72.162Z" fill="#DDED7C"/>
<path d="M348.648 105.486C348.5 104.897 348.942 103.941 349.42 103.499C349.751 103.205 350.891 103.242 351.259 103.536C351.737 104.014 352.105 104.934 351.958 105.559C351.805 106.271 351.424 106.93 351.045 107.585C350.876 107.878 350.708 108.17 350.56 108.465C350.468 108.465 350.376 108.456 350.284 108.446C350.192 108.437 350.1 108.428 350.009 108.428C349.861 108.121 349.696 107.822 349.531 107.523C349.163 106.856 348.8 106.197 348.648 105.486Z" fill="#DDED7C"/>
<path fill-rule="evenodd" clip-rule="evenodd" d="M391.497 53.7715C389.07 43.1418 382.008 37.2936 371.856 34.6086C369.936 34.1087 367.996 33.7405 365.971 33.356C365.165 33.203 364.345 33.0474 363.507 32.8799L363.706 32.7646L363.707 32.7641C364.307 32.4173 364.771 32.1486 365.236 31.85C372.408 27.2892 376.307 20.7789 376.859 12.2825C377.006 9.92855 376.454 9.41361 374.1 9.56074C367.075 9.92855 361.263 12.8342 356.666 18.2043C356.261 18.6824 355.857 19.1606 355.452 19.6755C355.893 13.4963 358.211 8.23662 362.257 3.71256C362.368 3.58982 362.5 3.47047 362.633 3.3504C362.937 3.07467 363.246 2.7951 363.323 2.46201C363.47 1.72639 363.507 0.733301 363.103 0.218367C362.815 -0.141328 361.753 0.0266168 361.053 0.137402L361.006 0.144805C360.797 0.170899 360.607 0.400619 360.422 0.623845C360.346 0.715261 360.272 0.805623 360.197 0.880425C355.562 5.84586 352.73 11.694 351.884 18.4617C351.732 19.6801 351.63 20.8984 351.516 22.263L351.516 22.2703C351.492 22.5512 351.468 22.8383 351.443 23.1329C351.229 22.8759 351.048 22.6521 350.885 22.4509C350.629 22.1339 350.417 21.8723 350.192 21.6249C344.197 14.8572 336.767 11.9883 327.793 13.2388C325.623 13.5331 325.181 14.1951 325.733 16.3652C327.462 23.28 331.544 28.4294 337.76 31.8868C338.029 32.04 338.307 32.1833 338.626 32.3477C338.92 32.499 339.249 32.6684 339.636 32.8799C338.643 33.0652 337.693 33.2268 336.772 33.3833C335.135 33.6617 333.59 33.9244 332.059 34.2776C321.135 36.7787 313.595 42.9211 310.91 54.2128C309.623 59.6932 309.844 65.2104 310.69 70.6539C312.529 82.4606 317.531 93.0168 324.924 102.469C328.418 106.957 332.464 110.856 337.356 113.798C345.999 119.021 354.79 119.499 363.691 114.534C366.119 113.173 368.509 111.554 370.569 109.642C382.67 98.4236 389.475 84.3732 392.012 68.1896C392.748 63.3713 392.601 58.5162 391.497 53.7715ZM373.217 13.1653C373.291 21.9559 363.801 31.6293 355.305 31.5558C352.951 24.4938 363.728 13.3492 373.217 13.1653ZM329.448 16.5859C338.459 14.7836 350.965 23.2065 351.075 31.0408C342.395 32.8063 331.397 25.4869 329.448 16.5859ZM323.71 41.1924C328.124 38.4338 333.052 37.1833 338.128 36.6315C348.574 35.4545 359.057 35.2339 369.392 37.5878C372.164 38.2072 374.818 39.4414 377.449 40.6647C378.099 40.967 378.748 41.2686 379.397 41.5602C380.194 41.9092 380.891 42.5118 381.589 43.1158C381.921 43.4029 382.253 43.6903 382.596 43.951C382.56 44.0245 382.523 44.1073 382.486 44.19C382.449 44.2728 382.413 44.3555 382.376 44.4291C375.461 44.7234 368.767 43.7303 362.551 40.3832C360.454 39.243 360.307 39.3901 358.726 41.082C357.231 42.6643 355.597 44.1065 353.953 45.5574C353.533 45.9277 353.112 46.2988 352.694 46.6727C351.333 47.8865 350.009 47.6658 348.795 46.4521C348.531 46.1828 348.266 45.9136 348.001 45.6442C346.42 44.0363 344.832 42.4206 343.351 40.751C341.843 39.0223 341.512 38.912 339.563 40.1625C333.641 43.951 327.057 44.7234 319.995 43.9877C320.378 43.6954 320.749 43.3962 321.12 43.0985C321.96 42.4225 322.791 41.7542 323.71 41.1924ZM388.665 67.4172C386.385 82.7181 379.985 96.0328 368.656 106.773C364.427 110.819 359.461 113.688 353.503 114.423C348.059 115.085 343.204 113.467 338.68 110.635C332.869 106.994 328.381 101.991 324.63 96.2903C318.561 87.095 314.441 77.1642 313.485 66.0931C313.007 60.7966 313.448 55.5737 315.434 50.5715C316.538 47.7762 316.906 47.629 319.848 47.7394C328.308 48.144 332.39 47.298 340.776 43.5096C341.316 44.0291 341.845 44.5514 342.37 45.0703C343.741 46.425 345.088 47.7564 346.551 48.9532C349.714 51.5646 351.296 51.675 354.606 49.3578C356.142 48.3021 357.552 47.0744 359.031 45.7867C359.819 45.1004 360.627 44.3969 361.484 43.6935C361.263 43.6935 361.447 43.6199 361.595 43.6935C368.656 47.1877 376.16 48.1808 383.957 47.5923C385.171 47.4819 385.723 47.8865 386.201 48.8796C389.033 54.8381 389.585 61.0541 388.665 67.4172Z" fill="#DDED7C"/>
</svg>
