<svg width="303" height="57" viewBox="0 0 303 57" fill="none" xmlns="http://www.w3.org/2000/svg">
<path d="M66.1894 18.6079C66.5851 19.3993 67.0797 20.3885 67.6733 21.5755C68.2668 22.7626 68.8603 24.0486 69.4538 25.3345C70.0474 26.7194 70.6409 28.1043 71.2344 29.4892C71.8279 30.8741 72.4215 32.259 72.9161 33.446C73.4107 32.1601 74.0042 30.8741 74.5977 29.4892C75.1912 28.1043 75.7848 26.7194 76.3783 25.3345C76.9718 23.9496 77.5654 22.7626 78.1589 21.5755C78.7524 20.3885 79.247 19.3993 79.6427 18.6079H84.7866C84.9844 20.2896 85.2812 22.1691 85.479 24.1475C85.6769 26.2248 85.8747 28.3022 85.9736 30.5773C86.1715 32.7536 86.2704 35.0288 86.3693 37.304C86.4682 39.5791 86.5671 41.6565 86.6661 43.6349H81.2254C81.1265 41.1619 81.0276 38.5899 80.9287 35.7212C80.8297 32.8525 80.6319 29.9838 80.4341 27.0162C80.0384 28.0054 79.5438 29.1924 78.9502 30.3795C78.4556 31.5665 77.8621 32.8525 77.3675 34.0396C76.8729 35.2266 76.3783 36.4137 75.8837 37.6007C75.3891 38.6888 74.9934 39.6781 74.6966 40.4694H70.7398C70.443 39.6781 69.9484 38.6888 69.5528 37.6007C69.0582 36.5126 68.5635 35.3255 68.0689 34.0396C67.5743 32.8525 66.9808 31.5665 66.4862 30.3795C65.9916 29.1924 65.497 28.0054 65.0024 27.0162C64.8046 29.8849 64.6067 32.8525 64.5078 35.7212C64.4089 38.5899 64.31 41.2608 64.211 43.6349H58.7704C58.8693 41.6565 58.9682 39.5791 59.0671 37.304C59.1661 35.0288 59.3639 32.8525 59.4628 30.5773C59.6607 28.4011 59.7596 26.2248 59.9574 24.1475C60.1553 22.0701 60.3531 20.1906 60.6499 18.6079H66.1894Z" fill="#19593F"/>
<path d="M88.8424 34.3363C88.8424 32.6547 89.1392 31.1708 89.6338 29.8849C90.1284 28.5989 90.8208 27.6097 91.7111 26.7194C92.6014 25.8291 93.4917 25.2356 94.5798 24.8399C95.6679 24.4442 96.7561 24.1475 97.9431 24.1475C100.614 24.1475 102.79 24.9388 104.373 26.6205C105.956 28.3021 106.747 30.6762 106.747 33.8417C106.747 34.1385 106.747 34.5342 106.747 34.8309C106.747 35.2266 106.747 35.5234 106.648 35.8201H94.382C94.4809 36.9083 94.9755 37.7985 95.9647 38.491C96.9539 39.1834 98.141 39.4802 99.6248 39.4802C100.614 39.4802 101.603 39.3813 102.493 39.1834C103.483 38.9856 104.175 38.7877 104.868 38.491L105.56 42.8435C105.263 42.9424 104.868 43.1403 104.373 43.2392C103.878 43.3381 103.384 43.536 102.79 43.6349C102.197 43.7338 101.603 43.8327 100.911 43.9316C100.218 44.0306 99.5259 44.0306 98.9323 44.0306C97.2507 44.0306 95.7669 43.7338 94.4809 43.2392C93.1949 42.7446 92.2057 42.0521 91.3154 41.1619C90.5241 40.2716 89.8316 39.2824 89.4359 37.9964C89.0402 37.0072 88.8424 35.7212 88.8424 34.3363ZM101.504 32.259C101.504 31.7644 101.405 31.3687 101.306 30.973C101.208 30.5773 101.01 30.1816 100.713 29.7859C100.416 29.4892 100.119 29.1924 99.6248 28.9946C99.2291 28.7967 98.6356 28.6978 98.0421 28.6978C97.4485 28.6978 96.9539 28.7967 96.4593 28.9946C96.0636 29.1924 95.6679 29.4892 95.3712 29.7859C95.0744 30.0827 94.8766 30.4784 94.6787 30.973C94.4809 31.4676 94.382 31.8633 94.382 32.3579H101.504V32.259Z" fill="#19593F"/>
<path d="M125.443 41.2608C125.443 44.3273 124.652 46.7014 123.069 48.1852C121.486 49.6691 119.013 50.4604 115.749 50.4604C114.562 50.4604 113.474 50.3615 112.287 50.1637C111.1 49.9658 110.11 49.6691 109.121 49.3723L110.011 44.8219C110.902 45.1187 111.693 45.4155 112.682 45.6133C113.671 45.8111 114.661 45.9101 115.848 45.9101C117.43 45.9101 118.519 45.6133 119.112 44.9209C119.706 44.2284 120.101 43.3381 120.101 42.3489V41.6565C119.508 41.9532 118.914 42.1511 118.321 42.25C117.727 42.3489 117.035 42.4478 116.342 42.4478C113.671 42.4478 111.693 41.6565 110.308 40.0737C108.923 38.491 108.231 36.3147 108.231 33.545C108.231 32.1601 108.429 30.8741 108.923 29.786C109.418 28.6978 110.011 27.7086 110.803 26.8183C111.594 26.027 112.682 25.3345 113.869 24.9388C115.056 24.5432 116.441 24.2464 117.925 24.2464C118.618 24.2464 119.211 24.2464 119.903 24.3453C120.596 24.4442 121.288 24.4442 121.981 24.5432C122.673 24.6421 123.267 24.741 123.959 24.8399C124.553 24.9388 125.146 25.1367 125.641 25.2356V41.2608H125.443ZM113.671 33.545C113.671 36.5126 114.859 38.0953 117.332 38.0953C117.925 38.0953 118.42 37.9964 118.914 37.8975C119.409 37.7986 119.805 37.6007 120.101 37.4029V28.7968C119.805 28.7968 119.508 28.6978 119.211 28.6978C118.815 28.6978 118.42 28.5989 117.925 28.5989C116.54 28.5989 115.452 29.0935 114.76 29.9838C113.968 30.8741 113.671 32.0611 113.671 33.545Z" fill="#19593F"/>
<path d="M135.533 24.1475C137.116 24.1475 138.402 24.3453 139.49 24.6421C140.578 25.0377 141.369 25.5324 142.062 26.2248C142.655 26.9172 143.15 27.7086 143.447 28.6978C143.743 29.687 143.842 30.7752 143.842 31.8633V43.0413C143.051 43.2392 141.963 43.437 140.677 43.6349C139.292 43.8327 137.61 43.9316 135.731 43.9316C134.544 43.9316 133.357 43.8327 132.368 43.6349C131.378 43.437 130.488 43.0413 129.796 42.5467C129.103 42.0521 128.51 41.4586 128.114 40.5683C127.718 39.777 127.52 38.7877 127.52 37.6007C127.52 36.5126 127.718 35.5234 128.213 34.8309C128.609 34.0395 129.301 33.446 129.993 32.9514C130.785 32.4568 131.576 32.16 132.565 31.9622C133.555 31.7644 134.544 31.6654 135.533 31.6654C136.225 31.6654 136.819 31.6654 137.412 31.7644C137.907 31.8633 138.402 31.8633 138.698 31.9622V31.4676C138.698 30.5773 138.402 29.7859 137.907 29.2913C137.314 28.6978 136.423 28.5 135.038 28.5C134.148 28.5 133.258 28.5989 132.368 28.6978C131.477 28.7967 130.686 28.9946 130.092 29.2913L129.4 24.9388C129.697 24.8399 130.092 24.741 130.587 24.6421C131.082 24.5431 131.576 24.4442 132.071 24.3453C132.664 24.2464 133.159 24.1475 133.851 24.1475C134.544 24.1475 134.841 24.1475 135.533 24.1475ZM135.929 39.8759C136.423 39.8759 136.918 39.8759 137.412 39.8759C137.907 39.8759 138.303 39.777 138.6 39.777V35.7212C138.402 35.7212 138.105 35.6223 137.61 35.6223C137.116 35.6223 136.819 35.5234 136.423 35.5234C135.929 35.5234 135.434 35.5234 135.038 35.6223C134.544 35.7212 134.247 35.8201 133.851 35.919C133.456 36.018 133.258 36.3147 133.06 36.6115C132.862 36.9083 132.763 37.3039 132.763 37.6996C132.763 38.5899 133.06 39.0845 133.653 39.4802C134.148 39.777 134.939 39.8759 135.929 39.8759Z" fill="#19593F"/>
<path d="M151.261 41.9532C152.646 41.9532 153.734 41.7553 154.625 41.2607C155.515 40.7661 155.911 40.0737 155.911 38.9856C155.911 38.4909 155.812 38.0953 155.713 37.6996C155.515 37.3039 155.317 37.0071 154.921 36.7104C154.526 36.4136 154.13 36.1168 153.537 35.919C152.943 35.6222 152.251 35.3255 151.36 35.0287C150.668 34.732 149.975 34.4352 149.382 34.1384C148.788 33.8417 148.195 33.446 147.7 33.0503C147.206 32.6546 146.81 32.16 146.513 31.6654C146.216 31.0719 146.118 30.4784 146.118 29.687C146.118 28.2032 146.711 26.9172 147.799 26.0269C148.986 25.1366 150.47 24.642 152.547 24.642C153.833 24.642 154.921 24.7409 155.713 24.9388C156.504 25.1366 157.098 25.3345 157.493 25.5323L156.999 27.6097C156.702 27.5107 156.207 27.3129 155.515 27.0161C154.823 26.8183 153.833 26.6204 152.547 26.6204C152.053 26.6204 151.558 26.7194 151.064 26.8183C150.569 26.9172 150.173 27.115 149.778 27.3129C149.382 27.5107 149.085 27.8075 148.887 28.2032C148.689 28.5989 148.591 28.9945 148.591 29.4892C148.591 29.9838 148.689 30.4784 148.887 30.7751C149.085 31.1708 149.382 31.4676 149.778 31.7643C150.173 32.0611 150.569 32.2589 151.163 32.5557C151.756 32.8525 152.35 33.0503 153.042 33.3471C153.734 33.6438 154.427 33.9406 155.119 34.2374C155.812 34.5341 156.405 34.9298 156.9 35.3255C157.395 35.7212 157.79 36.2158 158.087 36.8093C158.384 37.4028 158.582 38.0953 158.582 38.9856C158.582 40.6672 157.988 41.9532 156.702 42.8435C155.416 43.7338 153.734 44.1294 151.558 44.1294C149.877 44.1294 148.689 44.0305 147.799 43.7338C146.909 43.437 146.315 43.2392 146.019 43.1402L146.612 40.964C146.711 40.964 146.81 41.0629 147.107 41.1618C147.305 41.2607 147.7 41.3597 148.096 41.5575C148.492 41.6564 148.986 41.8543 149.58 41.8543C149.778 41.9532 150.47 41.9532 151.261 41.9532Z" fill="#19593F"/>
<path d="M163.231 25.0377H170.65V27.0161H163.231V36.9082C163.231 37.9964 163.33 38.7877 163.528 39.4802C163.725 40.1726 163.923 40.6672 164.319 40.964C164.616 41.3597 165.11 41.5575 165.506 41.6564C166.001 41.7554 166.495 41.8543 167.089 41.8543C168.078 41.8543 168.869 41.7554 169.463 41.5575C170.056 41.3597 170.551 41.1618 170.848 40.964L171.441 42.9424C171.145 43.1402 170.551 43.437 169.661 43.6349C168.77 43.9316 167.88 44.0305 166.891 44.0305C165.704 44.0305 164.814 43.8327 164.022 43.5359C163.231 43.2392 162.637 42.7446 162.143 42.151C161.648 41.5575 161.351 40.7661 161.154 39.8759C160.956 38.9856 160.857 37.8974 160.857 36.6115V19.4982L163.231 19.1025V25.0377V25.0377Z" fill="#19593F"/>
<path d="M179.553 24.642C180.344 24.642 181.037 24.7409 181.729 24.8399C182.422 24.9388 182.916 25.0377 183.114 25.2356L182.619 27.214C182.422 27.115 182.026 27.0161 181.432 26.9172C180.839 26.8183 180.047 26.7194 179.058 26.7194C178.069 26.7194 177.278 26.8183 176.585 26.9172C175.992 27.0161 175.596 27.214 175.398 27.3129V43.6348H173.024V25.8291C173.618 25.5323 174.409 25.3345 175.497 25.0377C176.684 24.7409 177.97 24.642 179.553 24.642Z" fill="#19593F"/>
<path d="M190.533 24.5432C191.72 24.5432 192.808 24.741 193.698 25.0378C194.589 25.4334 195.281 25.8291 195.776 26.5216C196.27 27.1151 196.666 27.9065 196.963 28.6978C197.161 29.5881 197.359 30.4784 197.359 31.4676V43.2392C197.161 43.3381 196.765 43.437 196.27 43.437C195.776 43.536 195.281 43.6349 194.688 43.7338C194.094 43.8327 193.402 43.9316 192.709 43.9316C192.017 44.0306 191.225 44.0306 190.434 44.0306C189.445 44.0306 188.555 43.9316 187.664 43.7338C186.774 43.536 186.082 43.1403 185.488 42.7446C184.894 42.25 184.4 41.6565 184.004 40.964C183.609 40.2716 183.51 39.3813 183.51 38.2932C183.51 37.3039 183.707 36.4137 184.103 35.7212C184.499 35.0288 184.993 34.4352 185.686 33.9406C186.378 33.446 187.17 33.1493 188.159 32.9514C189.148 32.7536 190.137 32.6547 191.324 32.6547C191.621 32.6547 192.017 32.6547 192.412 32.7536C192.808 32.7536 193.105 32.8525 193.501 32.8525C193.896 32.9514 194.193 32.9514 194.391 33.0503C194.688 33.1493 194.787 33.1493 194.885 33.2482V31.8633C194.885 31.1708 194.885 30.5773 194.787 29.9838C194.688 29.3903 194.49 28.7967 194.193 28.3021C193.896 27.8075 193.402 27.4119 192.808 27.1151C192.215 26.8183 191.423 26.6205 190.434 26.6205C189.049 26.6205 188.06 26.7194 187.367 26.9173C186.675 27.1151 186.18 27.3129 185.884 27.4119L185.587 25.3345C185.983 25.1367 186.675 24.9388 187.466 24.8399C188.258 24.6421 189.346 24.5432 190.533 24.5432ZM190.731 41.9532C191.621 41.9532 192.412 41.9532 193.105 41.8543C193.797 41.7554 194.391 41.7554 194.885 41.6565V35.1277C194.589 35.0288 194.193 34.9298 193.6 34.732C193.006 34.6331 192.215 34.5342 191.225 34.5342C190.632 34.5342 190.038 34.5342 189.445 34.6331C188.851 34.732 188.258 34.9298 187.664 35.1277C187.17 35.4244 186.675 35.8201 186.378 36.2158C186.082 36.7104 185.884 37.3039 185.884 38.0953C185.884 38.7878 185.983 39.3813 186.18 39.8759C186.378 40.3705 186.774 40.7662 187.17 41.0629C187.565 41.3597 188.06 41.5575 188.653 41.6565C189.247 41.7554 190.038 41.9532 190.731 41.9532Z" fill="#19593F"/>
<path d="M213.483 25.0378C213.68 26.2248 213.977 27.5108 214.373 28.8957C214.769 30.2806 215.065 31.6655 215.56 33.0504C215.956 34.4352 216.45 35.8201 216.846 37.205C217.341 38.5899 217.835 39.8759 218.231 41.0629C218.627 40.1727 219.121 39.0845 219.517 37.6996C220.011 36.4137 220.407 35.0288 220.902 33.545C221.396 32.0611 221.792 30.5773 222.188 29.0935C222.583 27.6097 222.88 26.2248 223.177 24.9388H225.452C224.562 28.5989 223.671 31.9622 222.583 34.9298C221.594 37.9964 220.407 40.8651 219.22 43.536H217.044C216.648 42.6457 216.252 41.7554 215.857 40.6673C215.461 39.5791 215.065 38.491 214.571 37.304C214.076 36.1169 213.779 34.8309 213.384 33.545C212.988 32.259 212.592 30.8741 212.296 29.4892C211.9 30.8741 211.603 32.1601 211.207 33.545C210.812 34.8309 210.416 36.1169 210.02 37.304C209.625 38.491 209.229 39.5791 208.833 40.6673C208.438 41.7554 208.042 42.6457 207.745 43.536H205.47C204.283 40.8651 203.096 37.9964 202.107 34.9298C201.118 31.8633 200.128 28.5989 199.238 24.9388H201.711C202.008 26.2248 202.305 27.6097 202.7 29.0935C203.096 30.5773 203.492 32.0611 203.986 33.446C204.481 34.9298 204.877 36.3147 205.371 37.6007C205.866 38.8867 206.261 39.9748 206.657 40.964C207.152 39.777 207.547 38.491 208.042 37.1061C208.537 35.7212 208.932 34.3363 209.328 32.9514C209.724 31.5665 210.119 30.1816 210.515 28.7968C210.911 27.4119 211.207 26.1259 211.504 24.9388H213.483V25.0378Z" fill="#19593F"/>
<path d="M229.904 26.1259C230.299 25.8291 230.992 25.4334 231.882 25.1367C232.772 24.741 233.86 24.6421 235.047 24.6421C236.432 24.6421 237.619 24.8399 238.609 25.3345C239.697 25.8291 240.587 26.5216 241.279 27.3129C241.972 28.2032 242.565 29.1924 242.961 30.3795C243.357 31.5665 243.555 32.8525 243.555 34.3363C243.555 35.8201 243.357 37.205 242.862 38.3921C242.368 39.5791 241.774 40.5683 240.983 41.4586C240.191 42.3489 239.202 42.9424 238.114 43.437C237.026 43.9316 235.74 44.1295 234.355 44.1295C232.673 44.1295 231.288 44.0305 230.2 43.8327C229.112 43.6349 228.222 43.437 227.529 43.1403V16.0359L229.904 15.6403V26.1259V26.1259ZM229.904 41.4586C230.299 41.5575 230.794 41.6564 231.486 41.7554C232.179 41.8543 233.168 41.9532 234.256 41.9532C236.234 41.9532 237.916 41.2608 239.103 39.9748C240.29 38.6888 240.983 36.8093 240.983 34.3363C240.983 33.3471 240.884 32.3579 240.686 31.3687C240.488 30.4784 240.092 29.5881 239.598 28.9946C239.103 28.3021 238.51 27.8075 237.718 27.3129C236.927 26.9172 235.938 26.7194 234.85 26.7194C234.256 26.7194 233.761 26.8183 233.267 26.9172C232.772 27.0162 232.278 27.1151 231.882 27.3129C231.486 27.5108 231.091 27.7086 230.794 27.8075C230.497 28.0054 230.2 28.2032 230.002 28.3021V41.4586H229.904Z" fill="#19593F"/>
<path d="M245.731 34.3363C245.731 32.6546 245.929 31.2697 246.423 30.0827C246.918 28.8956 247.511 27.8075 248.303 27.0161C249.094 26.2248 249.886 25.6312 250.875 25.2356C251.864 24.8399 252.853 24.642 253.842 24.642C256.118 24.642 257.997 25.4334 259.283 26.9172C260.668 28.401 261.36 30.6762 261.36 33.8417C261.36 34.0395 261.36 34.2374 261.36 34.4352C261.36 34.633 261.36 34.8309 261.261 34.9298H248.204C248.303 37.205 248.797 38.9856 249.886 40.1726C250.974 41.3597 252.655 42.0521 254.93 42.0521C256.216 42.0521 257.206 41.9532 257.997 41.6564C258.788 41.4586 259.283 41.2607 259.58 41.0629L259.975 43.0413C259.679 43.2391 258.986 43.437 258.096 43.7338C257.206 44.0305 256.118 44.1294 254.832 44.1294C253.15 44.1294 251.765 43.9316 250.677 43.437C249.49 42.9424 248.6 42.2499 247.808 41.4586C247.017 40.5683 246.522 39.5791 246.225 38.392C245.83 37.0071 245.731 35.7212 245.731 34.3363ZM258.887 32.8525C258.887 30.874 258.393 29.3902 257.502 28.3021C256.612 27.214 255.425 26.7194 253.842 26.7194C252.952 26.7194 252.26 26.9172 251.567 27.214C250.875 27.5107 250.281 28.0053 249.787 28.5989C249.292 29.1924 248.896 29.7859 248.6 30.5773C248.303 31.3686 248.204 32.0611 248.105 32.9514H258.887V32.8525Z" fill="#19593F"/>
<path d="M271.153 24.642C271.945 24.642 272.637 24.7409 273.33 24.8399C274.022 24.9388 274.517 25.0377 274.715 25.2356L274.22 27.214C274.022 27.115 273.626 27.0161 273.033 26.9172C272.439 26.8183 271.648 26.7194 270.659 26.7194C269.67 26.7194 268.878 26.8183 268.186 26.9172C267.592 27.0161 267.197 27.214 266.999 27.3129V43.6348H264.625V25.8291C265.218 25.5323 266.01 25.3345 267.098 25.0377C268.285 24.7409 269.571 24.642 271.153 24.642Z" fill="#19593F"/>
<path d="M282.826 24.642C283.618 24.642 284.31 24.7409 285.002 24.8399C285.695 24.9388 286.189 25.0377 286.387 25.2356L285.893 27.214C285.695 27.115 285.299 27.0161 284.706 26.9172C284.112 26.8183 283.321 26.7194 282.332 26.7194C281.342 26.7194 280.551 26.8183 279.859 26.9172C279.265 27.0161 278.869 27.214 278.672 27.3129V43.6348H276.297V25.8291C276.891 25.5323 277.682 25.3345 278.77 25.0377C279.957 24.7409 281.243 24.642 282.826 24.642Z" fill="#19593F"/>
<path d="M294.004 44.0306C293.213 42.5468 292.422 41.0629 291.729 39.4802C291.037 37.8975 290.344 36.3147 289.652 34.6331C288.959 32.9514 288.465 31.3687 287.871 29.786C287.377 28.2032 286.882 26.5216 286.486 25.0378H288.959C289.256 26.2248 289.553 27.4119 289.948 28.7968C290.344 30.0827 290.839 31.4676 291.333 32.9514C291.828 34.3363 292.422 35.8201 293.015 37.304C293.609 38.7878 294.301 40.2716 295.092 41.6565C295.587 40.1727 296.082 38.7878 296.477 37.4029C296.873 36.1169 297.269 34.732 297.664 33.446C298.06 32.1601 298.357 30.7752 298.654 29.3903C298.95 28.0054 299.346 26.5216 299.643 24.9388H302.017C301.225 28.4011 300.335 31.8633 299.346 35.1277C298.357 38.3921 297.269 41.4586 296.181 44.1295C295.686 45.2176 295.29 46.1079 294.796 46.8993C294.301 47.6906 293.806 48.2842 293.213 48.8777C292.619 49.3723 291.927 49.768 291.136 49.9658C290.344 50.1637 289.454 50.3615 288.366 50.3615C287.772 50.3615 287.179 50.2626 286.684 50.1637C286.19 50.0647 285.893 49.8669 285.794 49.8669L286.288 47.8885C286.387 47.9874 286.684 48.0863 287.08 48.1852C287.574 48.2842 287.97 48.3831 288.465 48.3831C289.157 48.3831 289.751 48.2842 290.245 48.1852C290.74 48.0863 291.234 47.7896 291.729 47.4928C292.125 47.0971 292.52 46.7014 292.916 46.1079C293.312 45.6133 293.707 44.9209 294.004 44.0306Z" fill="#19593F"/>
<path d="M16.8279 31.3687C19.3999 31.3687 21.6751 32.5557 23.4556 34.6331C25.2362 32.6547 27.5114 31.3687 30.0833 31.3687C35.6229 31.3687 40.1733 37.205 40.1733 44.3273C40.1733 45.9101 39.9754 47.4928 39.4808 48.9766C46.2074 40.964 46.0096 28.8957 46.0096 28.8957C46.0096 22.5647 40.8657 17.5198 34.6337 17.5198H23.3567H12.3765C6.04557 17.5198 1.00061 22.6637 1.00061 28.8957C1.00061 28.8957 0.802769 40.964 7.52939 48.9766C7.1337 47.5917 6.83694 46.009 6.83694 44.3273C6.83694 37.1061 11.2884 31.3687 16.8279 31.3687Z" fill="#D3405C"/>
<path d="M23.3568 55.9011C23.4557 55.9011 23.4557 55.9011 23.5546 55.9011C23.6535 55.9011 23.6535 55.9011 23.7524 55.9011C31.2704 55.8021 36.3154 52.8345 39.5798 48.7788C39.9755 47.3939 40.2722 45.8111 40.2722 44.1295C40.2722 37.0072 35.7219 31.1708 30.1823 31.1708C27.6104 31.1708 25.3352 32.3579 23.5546 34.4352C21.774 32.4568 19.4988 31.1708 16.9269 31.1708C11.3873 31.1708 6.83698 37.0072 6.83698 44.1295C6.83698 45.7122 7.03482 47.2949 7.52942 48.7788C10.7938 52.8345 15.7399 55.8021 23.3568 55.9011Z" fill="#EA6A82"/>
<path d="M46.1085 28.7967C46.1085 22.4658 40.9646 17.4208 34.7326 17.4208H23.3567H12.3765C6.04557 17.4208 1.00061 22.5647 1.00061 28.7967C1.00061 28.7967 0.802769 40.8651 7.52939 48.8777C10.8927 52.8345 15.8387 55.9011 23.3567 56C23.4556 56 23.4556 56 23.5546 56C23.6535 56 23.6535 56 23.7524 56C31.2704 55.9011 36.3154 52.9334 39.5797 48.8777C46.3064 40.7662 46.1085 28.7967 46.1085 28.7967Z" stroke="#19593F" stroke-width="1.5" stroke-miterlimit="10"/>
<path d="M12.5744 24.1474C13.2846 24.1474 13.8603 23.5717 13.8603 22.8615C13.8603 22.1512 13.2846 21.5755 12.5744 21.5755C11.8641 21.5755 11.2884 22.1512 11.2884 22.8615C11.2884 23.5717 11.8641 24.1474 12.5744 24.1474Z" fill="#FEFEFE"/>
<path d="M23.6535 24.1474C24.3637 24.1474 24.9394 23.5717 24.9394 22.8615C24.9394 22.1512 24.3637 21.5755 23.6535 21.5755C22.9432 21.5755 22.3675 22.1512 22.3675 22.8615C22.3675 23.5717 22.9432 24.1474 23.6535 24.1474Z" fill="#FEFEFE"/>
<path d="M34.6337 24.1474C35.3439 24.1474 35.9197 23.5717 35.9197 22.8615C35.9197 22.1512 35.3439 21.5755 34.6337 21.5755C33.9235 21.5755 33.3477 22.1512 33.3477 22.8615C33.3477 23.5717 33.9235 24.1474 34.6337 24.1474Z" fill="#FEFEFE"/>
<path d="M6.738 28.9946C7.44822 28.9946 8.02397 28.4189 8.02397 27.7086C8.02397 26.9984 7.44822 26.4227 6.738 26.4227C6.02777 26.4227 5.45203 26.9984 5.45203 27.7086C5.45203 28.4189 6.02777 28.9946 6.738 28.9946Z" fill="#FEFEFE"/>
<path d="M17.6193 28.9946C18.3295 28.9946 18.9053 28.4189 18.9053 27.7086C18.9053 26.9984 18.3295 26.4227 17.6193 26.4227C16.9091 26.4227 16.3333 26.9984 16.3333 27.7086C16.3333 28.4189 16.9091 28.9946 17.6193 28.9946Z" fill="#FEFEFE"/>
<path d="M28.4017 28.9946C29.1119 28.9946 29.6877 28.4189 29.6877 27.7086C29.6877 26.9984 29.1119 26.4227 28.4017 26.4227C27.6915 26.4227 27.1157 26.9984 27.1157 27.7086C27.1157 28.4189 27.6915 28.9946 28.4017 28.9946Z" fill="#FEFEFE"/>
<path d="M39.283 28.9946C39.9932 28.9946 40.569 28.4189 40.569 27.7086C40.569 26.9984 39.9932 26.4227 39.283 26.4227C38.5728 26.4227 37.997 26.9984 37.997 27.7086C37.997 28.4189 38.5728 28.9946 39.283 28.9946Z" fill="#FEFEFE"/>
<path d="M12.5744 40.2715C13.2846 40.2715 13.8603 39.6958 13.8603 38.9856C13.8603 38.2753 13.2846 37.6996 12.5744 37.6996C11.8641 37.6996 11.2884 38.2753 11.2884 38.9856C11.2884 39.6958 11.8641 40.2715 12.5744 40.2715Z" fill="#FEFEFE"/>
<path d="M23.2578 40.2715C23.9681 40.2715 24.5438 39.6958 24.5438 38.9856C24.5438 38.2753 23.9681 37.6996 23.2578 37.6996C22.5476 37.6996 21.9719 38.2753 21.9719 38.9856C21.9719 39.6958 22.5476 40.2715 23.2578 40.2715Z" fill="#FEFEFE"/>
<path d="M33.8424 40.2715C34.5526 40.2715 35.1283 39.6958 35.1283 38.9856C35.1283 38.2753 34.5526 37.6996 33.8424 37.6996C33.1321 37.6996 32.5564 38.2753 32.5564 38.9856C32.5564 39.6958 33.1321 40.2715 33.8424 40.2715Z" fill="#FEFEFE"/>
<path d="M17.916 46.5036C18.6263 46.5036 19.202 45.9279 19.202 45.2177C19.202 44.5074 18.6263 43.9317 17.916 43.9317C17.2058 43.9317 16.6301 44.5074 16.6301 45.2177C16.6301 45.9279 17.2058 46.5036 17.916 46.5036Z" fill="#FEFEFE"/>
<path d="M29.0941 46.5036C29.8043 46.5036 30.38 45.9279 30.38 45.2177C30.38 44.5074 29.8043 43.9317 29.0941 43.9317C28.3839 43.9317 27.8081 44.5074 27.8081 45.2177C27.8081 45.9279 28.3839 46.5036 29.0941 46.5036Z" fill="#FEFEFE"/>
<path d="M23.1588 52.8345C23.8691 52.8345 24.4448 52.2588 24.4448 51.5485C24.4448 50.8383 23.8691 50.2626 23.1588 50.2626C22.4486 50.2626 21.8729 50.8383 21.8729 51.5485C21.8729 52.2588 22.4486 52.8345 23.1588 52.8345Z" fill="#FEFEFE"/>
<path d="M34.6337 17.4209C35.2272 17.4209 35.8208 17.5198 36.4143 17.6187C40.0744 13.563 39.9754 7.1331 39.4808 6.73742C38.8873 6.14389 32.2596 6.14389 28.2038 10.1996C26.6211 11.7824 25.4341 13.563 24.6427 15.2446L26.9179 17.5198H34.6337V17.4209Z" fill="#8FA826" stroke="#19593F" stroke-width="1.5" stroke-miterlimit="10"/>
<path d="M12.3765 17.4209H19.9934L22.2686 15.1457C21.4773 13.464 20.2902 11.6835 18.7075 10.1007C14.7506 5.94606 8.12294 6.04498 7.52941 6.6385C7.13373 7.03419 6.93589 13.464 10.596 17.5198C11.1895 17.4209 11.783 17.4209 12.3765 17.4209Z" fill="#8FA826" stroke="#19593F" stroke-width="1.5" stroke-miterlimit="10"/>
<path d="M28.6985 17.4209C29.3909 15.7392 29.7866 13.6619 29.7866 11.3867C29.7866 5.64928 24.8406 1 24.247 1C23.3567 1 18.7075 5.64928 18.7075 11.3867C18.7075 13.6619 19.1031 15.7392 19.7956 17.4209H28.6985Z" fill="#B3C931" stroke="#19593F" stroke-width="1.5" stroke-miterlimit="10"/>
</svg>
