<svg width="179" height="86" viewBox="0 0 179 86" fill="none" xmlns="http://www.w3.org/2000/svg">
<path d="M41.1762 56.129C41.1762 56.129 53.7614 47.0322 51.3089 39.1613C49.5018 33.3548 44.7259 35.1613 43.1124 37.1613C42.0797 38.4516 42.5315 41.6774 44.3386 42.6451C44.3386 42.6451 44.0159 50.3871 37.0457 51.8709" fill="#FFCE3D"/>
<path d="M41.7571 56.9032L40.6599 55.2903C40.789 55.2258 52.6642 46.5161 50.4699 39.4193C49.889 37.5483 48.9855 36.4516 47.6947 36.258C46.3394 36 44.6613 36.8387 43.8869 37.8064C43.6287 38.129 43.4351 38.9032 43.6287 39.9354C43.8223 40.8387 44.2741 41.5483 44.7904 41.8064L45.3067 42.0645V42.6451C45.3067 42.7096 44.855 51.1612 37.2393 52.7741L36.8521 50.9032C42.0798 49.8064 43.1124 44.7741 43.3705 43.1612C42.5961 42.5161 42.0152 41.5483 41.7571 40.3225C41.4344 38.8387 41.6925 37.4193 42.4025 36.5806C43.5642 35.1612 45.8876 33.9354 48.0819 34.387C49.4373 34.6451 51.3089 35.6774 52.3415 38.9032C54.8586 47.2903 42.2734 56.5161 41.7571 56.9032Z" fill="#7A482D"/>
<path d="M46.0166 44C45.1776 44 44.2095 43.7419 43.3705 43.0967C42.9187 42.7742 42.8542 42.1935 43.1769 41.7419C43.4996 41.2903 44.0805 41.2258 44.5322 41.5484C46.5975 43.0967 48.7273 40.8387 48.8564 40.7742C49.2436 40.3871 49.8245 40.3871 50.2117 40.7096C50.599 41.0967 50.599 41.6774 50.2763 42.0645C49.4372 42.9032 47.8238 44 46.0166 44Z" fill="#7A482D"/>
<path d="M48.4046 35.7419C48.3401 35.7419 48.2755 35.7419 48.211 35.6774C47.8237 35.5484 47.4365 35.4838 46.9847 35.4838C46.8557 35.4838 46.662 35.4838 46.533 35.4838C46.4684 35.4838 46.4039 35.4838 46.3393 35.4838H46.2748C46.2103 35.4838 46.2103 35.4838 46.1457 35.4838C46.0166 35.4838 45.823 35.4193 45.6939 35.2903C45.5649 35.1613 45.5003 34.9677 45.5003 34.7742L45.6294 31.6774C44.2095 30.8387 43.1769 29.2258 42.9187 27.2903C42.467 24.1935 44.0159 21.4193 46.4684 21.0967C46.662 21.0967 46.7911 21.0322 46.9847 21.0322C49.2436 21.0322 51.2443 23.1613 51.6316 26C52.0188 28.5806 50.9862 30.9032 49.1791 31.8709L49.05 35.0967C49.05 35.2903 48.9209 35.4838 48.7918 35.6129C48.6628 35.6774 48.5337 35.7419 48.4046 35.7419Z" fill="#9DD10F"/>
<path opacity="0.15" d="M48.4691 35.4838C48.4046 35.4838 48.3401 35.4838 48.2755 35.4838H48.211C48.1464 35.4838 48.1464 35.4838 48.0819 35.4838C47.9528 35.4838 47.7592 35.4193 47.6301 35.2903C47.501 35.1613 47.4365 34.9677 47.4365 34.7742L47.5656 31.6774C46.1457 30.8387 45.1131 29.2258 44.8549 27.2903C44.4677 24.5161 45.823 21.8709 47.9528 21.2903C47.6301 21.2258 47.3074 21.1613 46.9847 21.1613C46.7911 21.1613 46.662 21.1613 46.4684 21.2258C44.0804 21.5484 42.467 24.3871 42.9187 27.4193C43.1769 29.3548 44.2095 31.0322 45.6294 31.8064L45.5003 34.9032C45.5003 35.0967 45.5649 35.2903 45.6939 35.4193C45.823 35.5484 45.9521 35.6129 46.1457 35.6129C46.2103 35.6129 46.2103 35.6129 46.2748 35.6129H46.3393C46.4039 35.6129 46.4684 35.6129 46.533 35.6129C46.662 35.6129 46.8557 35.6129 46.9847 35.6129C47.4365 35.6129 47.8237 35.6774 48.211 35.8064C48.2755 35.8064 48.3401 35.8709 48.4046 35.8709C48.5337 35.8709 48.6628 35.8064 48.7918 35.7419C48.8564 35.6774 48.8564 35.6774 48.9209 35.6129C48.7273 35.4838 48.5982 35.4838 48.4691 35.4838Z" fill="black"/>
<path d="M46.9847 21.7419C48.8564 21.7419 50.5989 23.6129 50.9862 26.129C51.3734 28.5806 50.2762 30.8387 48.5982 31.4193L48.4046 35.0968C47.9528 34.9677 47.501 34.8387 46.9847 34.8387C46.7911 34.8387 46.662 34.8387 46.4684 34.8387C46.3393 34.8387 46.2748 34.8387 46.2103 34.9032L46.4039 31.3548C45.0485 30.7742 43.9514 29.1613 43.6287 27.2258C43.2414 24.5161 44.5322 22.0645 46.5975 21.7419C46.7266 21.7419 46.8557 21.7419 46.9847 21.7419ZM46.9847 20.4516C46.7911 20.4516 46.5975 20.4516 46.4039 20.5161C43.6287 20.9032 41.8216 24 42.3379 27.4193C42.6606 29.4193 43.6287 31.0968 45.0485 32.0645L44.8549 34.8387C44.8549 35.2258 44.984 35.6129 45.3067 35.871C45.5649 36.0645 45.823 36.1935 46.1457 36.1935C46.2103 36.1935 46.2748 36.1935 46.3393 36.1935H46.4039C46.4684 36.1935 46.4684 36.1935 46.533 36.1935C46.662 36.1935 46.7911 36.1935 46.9202 36.1935C47.2429 36.1935 47.5656 36.2581 47.8883 36.3871C48.0174 36.4516 48.211 36.4516 48.3401 36.4516C48.5982 36.4516 48.8564 36.3871 49.05 36.2581C49.3727 36 49.6309 35.6774 49.6309 35.2258L49.7599 32.3871C51.567 31.2258 52.5997 28.7097 52.2124 26.0645C51.8252 22.8387 49.5018 20.4516 46.9847 20.4516Z" fill="#7A482D"/>
<path d="M46.4684 47.3548C46.0812 47.3548 45.6939 47.1613 45.3712 46.8387C45.1131 46.5161 44.9195 46.129 44.984 45.6774L45.1131 43.1613C45.1131 42.9677 45.2422 42.7742 45.3712 42.6451C45.5003 42.5806 45.6294 42.5161 45.7585 42.5161C45.823 42.5161 45.8876 42.5161 45.9521 42.5161C46.2748 42.5806 46.5975 42.6451 46.9202 42.6451C47.0493 42.6451 47.2429 42.6451 47.372 42.6451C47.5656 42.6451 47.7592 42.5806 47.8883 42.5806C47.9528 42.5806 48.0174 42.5806 48.0174 42.5806C48.1464 42.5806 48.3401 42.6451 48.4046 42.7097C48.5337 42.8387 48.6628 43.0322 48.6628 43.2258L48.5337 45.8064C48.4691 46.6451 47.8237 47.2903 46.9847 47.2903C46.9202 47.3548 46.4684 47.3548 46.4684 47.3548Z" fill="#9DD10F"/>
<g opacity="0.15">
<path opacity="0.15" d="M48.211 42.7742C48.2756 42.7742 48.2756 42.7742 48.3401 42.7742C48.211 42.7097 48.0819 42.6451 47.9529 42.6451C47.8883 42.6451 47.8238 42.6451 47.8238 42.6451C47.7592 42.6451 47.6302 42.6451 47.5656 42.7097C47.7592 42.7097 48.0174 42.7742 48.211 42.7742Z" fill="black"/>
<path opacity="0.15" d="M46.7266 46.8387C46.4684 46.5161 46.2748 46.129 46.3394 45.6774L46.4684 43.2258C46.4684 43.0322 46.5975 42.8387 46.7266 42.7742C46.4684 42.7742 46.1457 42.7097 45.8876 42.6451C45.823 42.6451 45.7585 42.6451 45.694 42.6451C45.5649 42.6451 45.4358 42.7097 45.3067 42.7742C45.1777 42.9032 45.0486 43.0968 45.0486 43.2903L44.9195 45.8064C44.9195 46.1935 45.0486 46.6451 45.3067 46.9677C45.5649 47.2903 45.9521 47.4838 46.4039 47.4838H46.8557C47.0493 47.4838 47.2429 47.4193 47.372 47.3548C47.1784 47.2258 46.9202 47.0322 46.7266 46.8387Z" fill="black"/>
</g>
<path d="M45.7585 43.2258C46.0812 43.2903 46.4684 43.3548 46.8557 43.3548C47.0493 43.3548 47.1784 43.3548 47.372 43.3548C47.5656 43.3548 47.7592 43.2903 47.9528 43.2258L47.8238 45.8064C47.8238 46.3226 47.372 46.7097 46.9202 46.7097C46.9202 46.7097 46.9202 46.7097 46.8557 46.7097H46.4684C45.9521 46.7097 45.5649 46.2581 45.5649 45.7419L45.7585 43.2258ZM45.7585 41.9355C45.5003 41.9355 45.2422 42 44.984 42.1936C44.6613 42.4516 44.4677 42.7742 44.4677 43.1613L44.3386 45.6774C44.2741 46.9032 45.2422 47.9355 46.4684 48H46.8557C46.9202 48 46.9202 48 46.9847 48C48.1465 48 49.1145 47.0968 49.1791 45.871L49.3082 43.3548C49.3082 43.2903 49.3082 43.2903 49.3082 43.2258C49.3082 42.5161 48.7273 41.9355 48.0174 41.9355C48.0174 41.9355 48.0174 41.9355 47.9528 41.9355C47.8883 41.9355 47.7592 41.9355 47.6947 42C47.5656 42.0645 47.372 42.0645 47.2429 42.0645C47.1138 42.0645 46.9847 42.0645 46.8557 42.0645C46.5975 42.0645 46.3393 42 46.0812 41.9355C45.9521 42 45.823 41.9355 45.7585 41.9355Z" fill="#7A482D"/>
<path d="M47.6946 85.0323C38.3364 85.0323 29.6236 80.9033 21.9434 72.7097C17.2965 67.742 11.1653 53.4194 11.8752 39.4839C12.3915 29.6129 15.9412 21.742 22.5888 15.9355L22.6533 15.871L22.7178 15.8065C24.9767 14.4516 28.7846 11.6129 29.3654 9.87099C30.269 7.22582 31.2371 2.77421 31.2371 2.7097L31.4952 1.41937L37.6265 4.90324L38.9173 10.1291L38.2073 10.4516C38.1428 10.4516 32.5924 13.1613 32.4633 18.5807C32.7215 19.742 34.5286 28.7097 33.8186 34.4516C33.7541 34.7097 30.9144 61.0323 66.4111 73.9355L67.0565 74.1936L66.9274 78.9033L66.5402 79.1613C66.1529 79.4839 58.4727 85.0323 47.6946 85.0323Z" fill="#FFCE3D"/>
<path d="M32.2052 2.96774L36.7875 5.6129L37.8201 9.67742C37.8201 9.67742 31.6243 12.6452 31.4952 18.7742C31.4952 18.7742 33.5605 28.5161 32.8506 34.4516C32.0761 40.3871 34.335 63.4193 66.0884 74.9677L65.9593 78.5161C65.9593 78.5161 58.3437 84.129 47.7592 84.129C40.3372 84.129 31.4307 81.4194 22.6533 72.129C15.4249 64.3871 4.3241 33.0968 23.1696 16.7097C23.1696 16.7097 29.3654 12.9677 30.2044 10.2581C31.1725 7.54839 32.2052 2.96774 32.2052 2.96774ZM30.8498 0L30.269 2.58065C30.269 2.64516 29.2364 7.03226 28.3973 9.6129C28.0101 10.8387 24.8477 13.4194 22.137 15.0323L22.0079 15.0968L21.9434 15.2258C15.2313 21.0968 11.3589 29.4194 10.9071 39.4194C10.1972 54.3226 16.6511 68.5161 21.2335 73.3548C29.1718 81.7419 38.0783 86 47.6947 86C58.7955 86 66.7338 80.2581 67.0565 80.0645L67.831 79.4839V78.5161L67.9601 74.9677L68.0246 73.5484L66.7338 73.0968C53.5678 68.3871 44.2095 61.1613 38.9173 51.6774C34.8513 44.3871 34.335 37.5484 34.7222 34.7097C35.4321 28.9677 33.7541 20.1935 33.4314 18.6452C33.6896 13.9355 38.5946 11.4839 38.6591 11.4839L40.079 10.7742L39.6918 9.22581L38.6591 5.16129L38.4655 4.3871L37.7556 4L33.1733 1.29032L30.8498 0Z" fill="#7A482D"/>
<path d="M66.0239 76.258L66.0884 74.9677C51.7606 69.7419 43.435 62.1935 38.6591 54.9032C43.0478 62.4516 51.2443 70.6451 66.0239 76.258Z" fill="white"/>
<path d="M33.1087 62.3871C26.8484 55.7419 19.0391 34.3226 24.4604 15.871C23.7505 16.3871 23.2342 16.7097 23.2342 16.7097C4.38865 33.0968 15.4249 64.3871 22.6533 72.0645C43.9514 94.6452 65.9593 78.5161 65.9593 78.5161L66.0239 76.3226C56.6656 77.2258 44.7904 74.7742 33.1087 62.3871Z" fill="#FCAE00"/>
<path d="M26.3321 18.4516C24.9767 19.4839 23.4923 21.2258 22.7824 26.7097C22.3306 26.3871 22.9115 22.1291 23.8796 18.3226C24.1377 17.5484 22.5888 17.2903 21.2335 18.5161C21.6207 18.1291 22.8469 16.2581 23.2987 15.871C23.2987 15.871 23.815 16.4516 25.9448 14.3226C28.8491 13.3549 32.2697 10.4516 33.3669 9.35486C32.2697 10.6452 29.9463 13.8065 31.4952 18.1291C31.4952 18.3226 31.4952 18.5161 31.4952 18.7097C31.4952 18.7097 32.5924 23.871 32.9151 28.9032C32.5279 24.9678 30.9789 15.0323 26.3321 18.4516Z" fill="#7A482D"/>
<path d="M59.1827 76.3871C59.1827 76.3871 51.0508 76.2581 40.8535 69.2903C40.8535 69.2903 46.6621 77.6129 59.1827 76.3871Z" fill="#7A482D"/>
<path d="M66.153 79.2258C66.153 79.2258 65.6367 79.4839 64.6686 79.871C62.4742 77.1613 62.926 74.9677 63.8296 73.8065C64.6041 74.129 65.4431 74.4516 66.2821 74.7097L66.153 79.2258Z" fill="#7A482D"/>
<path d="M40.2081 35.1613C39.3691 34.5161 38.5946 34 37.7556 33.6129C36.9166 33.2258 36.013 32.9677 35.1095 32.9032C34.2059 32.9032 33.3023 32.9677 32.3988 33.2258C31.947 33.3548 31.4952 33.5484 31.0435 33.6774C30.5917 33.871 30.1399 34.0645 29.6236 34.2581C29.9463 33.871 30.3335 33.4839 30.7208 33.1613C31.1725 32.9032 31.5598 32.5161 32.0761 32.3226C32.3343 32.1935 32.5279 32.0645 32.786 32C33.0442 31.871 33.3023 31.871 33.5605 31.8064C33.8187 31.7419 34.0768 31.6774 34.3995 31.6774C34.6577 31.6774 34.9804 31.6129 35.2385 31.6774C36.3357 31.6774 37.4329 32.129 38.3364 32.7742C39.1109 33.3548 39.8208 34.1935 40.2081 35.1613Z" fill="#7A482D"/>
<path d="M26.7194 30.3226C25.4286 29.3548 24.1378 28.5161 22.847 28C21.4917 27.4839 20.1363 27.1613 18.781 27.2258C18.0711 27.2903 17.4257 27.3548 16.7157 27.5484C16.0058 27.7419 15.3604 27.9355 14.6505 28.2581C13.2951 28.8387 11.9398 29.6129 10.5845 30.4516C11.488 29.0968 12.5852 27.9355 14.0051 27.0322C14.715 26.5806 15.4249 26.1935 16.264 25.871C17.0384 25.6129 17.942 25.4193 18.781 25.3548C20.5236 25.2258 22.2661 25.7419 23.686 26.6451C24.3959 27.0968 25.0413 27.6774 25.5576 28.2581C25.9449 28.9032 26.3967 29.5484 26.7194 30.3226Z" fill="#7A482D"/>
<path d="M19.4909 49.0323C15.0376 49.0323 11.2298 45.2258 10.778 40.3871C10.2617 35.1613 13.7468 30.5806 18.4582 30.129C18.7164 30.129 18.9745 30.0645 19.2327 30.0645C23.6859 30.0645 27.4938 33.871 27.9455 38.7097C28.4619 43.9355 24.9767 48.5161 20.2653 48.9677C20.0072 48.9677 19.749 49.0323 19.4909 49.0323Z" fill="white"/>
<path d="M19.1682 30.7097C23.2342 30.7097 26.7839 34.1936 27.2356 38.7742C27.6874 43.6129 24.525 47.9355 20.1363 48.3226C19.8781 48.3226 19.6845 48.3871 19.4263 48.3871C15.3604 48.3871 11.8107 44.9032 11.3589 40.3226C10.9071 35.4839 14.0696 31.1613 18.4583 30.7742C18.7164 30.7097 18.9746 30.7097 19.1682 30.7097ZM19.1682 29.4194C18.91 29.4194 18.6519 29.4194 18.3292 29.4839C15.8121 29.742 13.6178 31.0323 12.0688 33.0968C10.5199 35.1613 9.80996 37.742 10.0681 40.4516C10.5844 45.742 14.5859 49.6774 19.4263 49.6774C19.6845 49.6774 19.9427 49.6774 20.2654 49.6129C22.7824 49.3549 24.9767 48.0645 26.5257 46C28.0746 43.9355 28.7846 41.3549 28.5264 38.6452C28.0746 33.3549 24.0087 29.4194 19.1682 29.4194Z" fill="#7A482D"/>
<path d="M14.2632 40C13.876 35.6774 16.3285 31.8065 19.9427 30.7097C19.4909 30.6452 18.9746 30.6452 18.5228 30.7097C14.1341 31.0968 10.9717 35.4194 11.4234 40.2581C11.8752 45.0968 15.8121 48.7097 20.2008 48.3226C20.6526 48.2581 21.1689 48.1936 21.6207 48.0645C17.8129 47.6774 14.6504 44.3226 14.2632 40Z" fill="#E6E6E6"/>
<path d="M21.7498 43.9355C23.7458 43.9355 25.364 42.0291 25.364 39.6774C25.364 37.3258 23.7458 35.4194 21.7498 35.4194C19.7537 35.4194 18.1356 37.3258 18.1356 39.6774C18.1356 42.0291 19.7537 43.9355 21.7498 43.9355Z" fill="#7A482D"/>
<path d="M21.7498 42.1936C22.9261 42.1936 23.8796 41.0671 23.8796 39.6775C23.8796 38.2878 22.9261 37.1613 21.7498 37.1613C20.5735 37.1613 19.62 38.2878 19.62 39.6775C19.62 41.0671 20.5735 42.1936 21.7498 42.1936Z" fill="#42210B"/>
<path d="M23.5176 39.5449C24.1563 39.4843 24.6331 39.0038 24.5825 38.4717C24.5319 37.9397 23.9732 37.5575 23.3345 37.6181C22.6958 37.6788 22.219 38.1593 22.2695 38.6914C22.3201 39.2234 22.8789 39.6056 23.5176 39.5449Z" fill="white"/>
<path d="M34.9159 46.5161C32.2698 46.5161 30.0754 44.3225 29.7527 41.4193C29.6236 39.9354 30.0109 38.5161 30.8499 37.3548C31.6889 36.1935 32.9152 35.4838 34.2705 35.3548C34.3996 35.3548 34.5932 35.3548 34.7223 35.3548C37.3684 35.3548 39.5627 37.5483 39.8854 40.4516C40.0145 41.9354 39.6273 43.3548 38.7883 44.5161C37.9492 45.6774 36.723 46.387 35.3677 46.5161C35.2386 46.5161 35.045 46.5161 34.9159 46.5161Z" fill="white"/>
<path d="M34.7222 36C36.9811 36 38.9818 37.9355 39.24 40.5161C39.4982 43.2258 37.7556 45.6129 35.3031 45.8709C35.174 45.8709 35.0449 45.8709 34.9158 45.8709C32.657 45.8709 30.6562 43.9355 30.3981 41.3548C30.1399 38.6451 31.8825 36.258 34.335 36C34.4641 36 34.5932 36 34.7222 36ZM34.7222 34.7097C34.5286 34.7097 34.3995 34.7097 34.2059 34.7097C32.657 34.8387 31.2371 35.6774 30.269 36.9677C29.3009 38.258 28.9137 39.8064 29.0428 41.4838C29.3655 44.7097 31.818 47.1613 34.8513 47.1613C35.0449 47.1613 35.174 47.1613 35.3676 47.1613C38.5301 46.8387 40.7889 43.8709 40.4662 40.4516C40.2081 37.1613 37.7556 34.7097 34.7222 34.7097Z" fill="#7A482D"/>
<path d="M31.8825 41.3548C31.6243 38.7742 33.2378 36.5161 35.4322 36.0645C35.0449 36 34.7222 36 34.335 36C31.8825 36.2581 30.1399 38.6452 30.3981 41.3548C30.6562 44.0645 32.8506 46.0645 35.3031 45.871C35.4322 45.871 35.5613 45.8065 35.6903 45.8065C33.6896 45.4194 32.1407 43.6129 31.8825 41.3548Z" fill="#E6E6E6"/>
<path d="M35.9485 43.7419C37.2673 43.7419 38.3365 42.471 38.3365 40.9032C38.3365 39.3354 37.2673 38.0645 35.9485 38.0645C34.6297 38.0645 33.5605 39.3354 33.5605 40.9032C33.5605 42.471 34.6297 43.7419 35.9485 43.7419Z" fill="#7A482D"/>
<path d="M35.9485 42.5806C36.7327 42.5806 37.3684 41.8296 37.3684 40.9032C37.3684 39.9768 36.7327 39.2258 35.9485 39.2258C35.1643 39.2258 34.5286 39.9768 34.5286 40.9032C34.5286 41.8296 35.1643 42.5806 35.9485 42.5806Z" fill="#42210B"/>
<path d="M36.915 40.8348C37.3408 40.7944 37.6586 40.4741 37.6249 40.1194C37.5912 39.7647 37.2187 39.5099 36.7929 39.5503C36.3671 39.5908 36.0492 39.9111 36.0829 40.2658C36.1167 40.6205 36.4892 40.8753 36.915 40.8348Z" fill="white"/>
<path d="M16.7157 60.4516C16.7157 60.4516 9.48723 64.5806 9.939 67.6774C9.939 67.6774 15.1022 72.8387 10.778 76.7096C7.8092 79.3548 3.54959 75.8064 2.9042 70.7096C2.00064 62.3225 14.5213 51.4838 14.5213 51.4838" fill="#FCAE00"/>
<path d="M8.5837 78.5806C8.06738 78.5806 7.48653 78.4516 6.97021 78.258C4.45317 77.2903 2.45244 74.3225 2.06521 70.8387C0.968033 62 13.3596 51.1613 13.8759 50.7096C14.2632 50.3871 14.9086 50.3871 15.2313 50.7742C15.554 51.1613 15.554 51.8064 15.1667 52.129C15.0376 52.258 3.0333 62.7742 3.93685 70.6451C4.25955 73.4193 5.74396 75.8064 7.6156 76.5161C8.51916 76.8387 9.42271 76.7096 10.1326 76.0645C11.0362 75.2258 11.488 74.3871 11.5525 73.3548C11.6171 70.9032 9.29363 68.5161 9.29363 68.4516L9.10001 68.258L9.03547 67.9354C8.45462 64.3225 14.9731 60.4516 16.2639 59.6774C16.7157 59.4193 17.2965 59.5484 17.5547 60.0645C17.8128 60.5161 17.6838 61.0967 17.1675 61.3548C14.5213 62.8387 10.9717 65.6129 10.9071 67.3548C11.6171 68.1935 13.5532 70.6451 13.4887 73.3548C13.4242 74.9032 12.7788 76.3225 11.4234 77.4838C10.5844 78.1935 9.61633 78.5806 8.5837 78.5806Z" fill="#7A482D"/>
<path d="M9.55182 67.7419C9.48728 67.7419 9.3582 67.7419 9.29366 67.6774C8.71281 67.3548 8.00287 67.2258 7.2284 67.2258C7.09932 67.2258 6.97024 67.2258 6.9057 67.2258C6.9057 67.2258 6.9057 67.2258 6.84116 67.2258C6.51847 67.2258 6.26031 67.0322 6.19577 66.7097L5.42129 63.1613C5.35675 63.0968 5.16314 62.9677 5.0986 62.9032C3.16241 61.8709 1.61346 59.3548 0.968067 56.3871C0.387211 53.6774 0.645369 51.0322 1.61346 49.2258C1.74254 49.0322 1.93616 48.9032 2.19432 48.9032H2.25886C2.51702 48.9677 2.71063 49.1613 2.77517 49.4193L4.25958 56.3226C4.25958 56.4516 4.38866 56.5161 4.4532 56.5161C4.64682 56.5161 4.71136 56.3871 4.64682 56.258L3.03333 48.3871C3.03333 48.3871 3.03333 48.3225 2.96879 48.3225C2.83971 48 2.96879 47.6774 3.29149 47.5484C3.61419 47.4193 3.87234 47.2903 4.1305 47.2258C4.38866 47.0967 4.58228 47.0967 4.84044 47.0967C4.96952 47.0967 5.0986 47.0967 5.22768 47.0967C5.55037 47.1613 5.74399 47.3548 5.80853 47.6774V47.7419L7.48656 55.5484C7.48656 55.6774 7.61564 55.7419 7.68018 55.7419C7.8738 55.7419 7.93833 55.6129 7.8738 55.4838L6.45393 48.7742C6.38939 48.5161 6.51847 48.258 6.77662 48.0645C6.9057 48 6.97024 48 7.09932 48C7.2284 48 7.35748 48.0645 7.48656 48.129C9.03551 49.4193 10.3263 51.6129 10.8426 54.1935C11.5525 57.3548 11.0362 60.4516 9.61636 62.1935C9.55182 62.258 9.3582 62.5161 9.22913 62.7742L10.1327 66.9677C10.1972 67.2258 10.0681 67.4839 9.87452 67.6129C9.80998 67.6774 9.6809 67.7419 9.55182 67.7419Z" fill="#9DD10F"/>
<path d="M4.84043 47.7419C4.9695 47.7419 5.03404 47.7419 5.16312 47.7419V47.8064L6.90569 55.6774C6.97023 56.0645 7.35747 56.3871 7.7447 56.3871C7.80924 56.3871 7.87378 56.3871 7.93832 56.3871C8.3901 56.2581 8.7128 55.8064 8.58372 55.3548L7.09931 48.6451C8.51918 49.7419 9.68089 51.8064 10.2617 54.3226C10.9071 57.3548 10.4554 60.2581 9.16457 61.7419C8.97095 62 8.58372 62.6452 8.58372 62.6452L9.55181 67.0322C8.90641 66.7097 8.13194 66.5161 7.22839 66.5161C7.09931 66.5161 6.90569 66.5161 6.77661 66.5161L6.00214 62.8387C6.00214 62.7742 5.6149 62.3871 5.42128 62.3226C3.74325 61.3548 2.25884 59.0968 1.61345 56.1935C1.03259 53.6129 1.29075 51.1613 2.1943 49.5484L3.67871 56.4516C3.74325 56.8387 4.13049 57.1613 4.51773 57.1613C4.58227 57.1613 4.64681 57.1613 4.71135 57.1613C5.16312 57.0322 5.48582 56.5806 5.35674 56.129L3.61417 48.1935C3.61417 48.129 3.54963 48.129 3.54963 48.0645C3.74325 47.9355 4.00141 47.871 4.25957 47.8064C4.45319 47.7419 4.64681 47.7419 4.84043 47.7419ZM4.84043 46.4516C4.58227 46.4516 4.25957 46.4516 4.00141 46.5161C3.67871 46.5806 3.29148 46.7097 2.96878 46.9032C2.45246 47.1613 2.1943 47.6774 2.32338 48.2581C2.25884 48.2581 2.25884 48.2581 2.1943 48.2581C1.74253 48.2581 1.29075 48.5161 1.09713 48.9032C-3.97973e-05 50.8387 -0.258198 53.6774 0.387197 56.5161C1.09713 59.6774 2.77516 62.3226 4.77589 63.4839C4.77589 63.4839 4.77589 63.4839 4.84043 63.4839L5.55036 66.8387C5.67944 67.4193 6.19576 67.871 6.84115 67.871H6.90569H6.97023C7.09931 67.871 7.16385 67.871 7.29293 67.871C7.93832 67.871 8.51918 68 9.10003 68.2581C9.29365 68.3226 9.48727 68.3871 9.68089 68.3871C9.93905 68.3871 10.2617 68.3226 10.4554 68.129C10.8426 67.8064 11.0362 67.3548 10.9071 66.8387L10.0681 62.9032C10.1327 62.7742 10.1972 62.6452 10.2617 62.5806C11.8107 60.7097 12.3916 57.4839 11.6171 54.0645C11.0362 51.3548 9.68089 48.9677 8.00286 47.6129C7.7447 47.4193 7.48655 47.3548 7.16385 47.3548C6.90569 47.3548 6.71207 47.4193 6.51845 47.5484C6.45391 46.9677 5.9376 46.5806 5.42128 46.4516C5.16312 46.4516 4.9695 46.4516 4.84043 46.4516Z" fill="#7A482D"/>
<g opacity="0.15">
<path opacity="0.15" d="M8.39009 65.4194L7.61561 61.742C7.61561 61.6774 7.22837 61.2903 7.03476 61.2258C5.35673 60.2581 3.03331 58.6452 2.25883 55.742C1.80705 54.129 2.19429 49.5484 2.19429 49.5484C1.29074 51.1613 1.03258 53.6129 1.61344 56.2581C2.25883 59.1613 3.74324 61.4839 5.42127 62.3871C5.61489 62.5161 6.00212 62.8387 6.00212 62.9032L6.7766 66.5807C6.90568 66.5807 7.03476 66.5807 7.22837 66.5807C8.13193 66.5807 8.9064 66.7742 9.5518 67.0968C9.5518 67.0968 8.5837 65.4194 8.39009 65.4194Z" fill="black"/>
</g>
<path d="M10.0036 68.6452C9.8745 68.6452 9.74542 68.6452 9.61634 68.5806C8.00286 67.9355 6.97022 68.2581 6.97022 68.2581C6.45391 68.4516 5.93759 68.1936 5.74397 67.6774C5.55035 67.1613 5.80851 66.6452 6.32483 66.4516C6.51845 66.3871 8.13193 65.871 10.3908 66.7742C10.9071 66.9677 11.1008 67.5484 10.9071 68.0645C10.7135 68.4516 10.3908 68.6452 10.0036 68.6452Z" fill="#7A482D"/>
<path d="M33.0442 4.4516L36.3357 5.99999L37.0456 9.35482L35.7548 6.77418L33.0442 4.4516Z" fill="white"/>
<path d="M47.3719 30.5161C48.1464 29.9355 48.7273 29.2258 49.1145 28.4516C49.3081 28.0645 49.4372 27.6129 49.6308 27.2258C49.6954 27.0323 49.7599 26.7742 49.8245 26.5807C49.889 26.3226 49.9535 26.129 50.0826 25.871C50.1471 26.129 50.1471 26.3871 50.1471 26.5807C50.1471 26.8387 50.1471 27.0968 50.0826 27.2903C50.0181 27.8065 49.889 28.2581 49.6308 28.7097C49.3727 29.1613 49.1145 29.5484 48.7273 29.871C48.34 30.1936 47.8883 30.4516 47.3719 30.5161Z" fill="white"/>
<path d="M19.1037 55.6774C18.5873 55.2903 18.2001 54.8387 17.8774 54.258C17.7483 54 17.5547 53.6774 17.4902 53.3548C17.4256 53.0322 17.2966 52.6451 17.5547 52.0645C17.6838 51.8064 17.9419 51.5483 18.2001 51.4838C18.4583 51.4193 18.6519 51.4193 18.8455 51.4193C19.2327 51.4838 19.5554 51.6129 19.8136 51.7419C20.3945 52.0645 20.8462 52.4516 21.298 52.9032C20.5235 52.5161 20.0718 52.3871 19.5554 52.3225C19.2973 52.258 18.071 52.3225 18.5228 54.0645C18.7164 54.6451 18.91 55.2258 19.1037 55.6774Z" fill="#7A482D"/>
<path d="M28.5909 62.7741C21.7497 62.7741 20.6526 55.8064 20.6526 55.6774L20.5235 54.7096L21.4271 54.9677C23.1696 55.5483 24.9767 55.8064 26.7838 55.8064C31.4307 55.8064 34.5286 54 34.5931 53.9354L35.4321 53.4193L35.4967 54.3871C35.6903 56.8387 34.9804 61.6774 30.5917 62.4516C29.9463 62.7096 29.2363 62.7741 28.5909 62.7741Z" fill="#7A482D"/>
<path d="M34.9158 54.5161C34.9158 54.5161 35.4967 61.0968 30.5271 61.9355C29.8172 62.0645 29.1718 62.129 28.5909 62.129C22.2015 62.129 21.298 55.6129 21.298 55.6129C23.2987 56.258 25.1703 56.4516 26.8484 56.4516C31.6888 56.4516 34.9158 54.5161 34.9158 54.5161ZM35.9484 52.5161L34.2704 53.4839C34.2059 53.5484 31.1725 55.2258 26.7838 55.2258C25.0413 55.2258 23.2987 54.9677 21.5561 54.4516L19.749 53.871L20.0072 55.7419C20.3944 58.3871 22.6533 63.3548 28.5264 63.3548C29.1718 63.3548 29.9463 63.2903 30.6562 63.1613C35.4967 62.3226 36.2711 57.0968 36.0775 54.3871L35.9484 52.5161Z" fill="#7A482D"/>
<path d="M22.008 57.9355C28.1392 59.8064 33.7542 57.6129 34.8513 56.8387C35.2386 55.4838 34.9804 55.2258 34.9804 54.7742C34.2705 55.0968 33.2378 55.4193 32.0116 55.7419C30.1399 56.258 27.4938 56.7097 24.3959 56.3226C23.4278 56.258 22.3952 56.0645 21.298 55.8064C21.3626 56.129 21.5562 56.9677 22.008 57.9355Z" fill="white"/>
<path d="M23.1051 59.6774C24.4604 61.2903 26.7193 62.6451 30.5271 62C31.3662 61.8709 32.0761 61.5483 32.657 61.0967C30.0108 59.4193 25.6867 59.4838 23.1051 59.6774Z" fill="#EB3F3F"/>
<path d="M30.3981 20.7097C30.3981 20.7097 32.657 27.4839 32.3988 30C32.3988 30 29.5591 20.4516 28.3328 18.6451C28.3328 18.6451 29.6236 19.1613 30.3981 20.7097Z" fill="white"/>
<path d="M69.5736 21.8065C69.1218 23.1613 68.7346 24.5807 68.2828 26C67.8956 27.4194 67.4438 28.8387 67.0566 30.1936C67.831 30.1291 68.67 30.0645 69.509 30.0645C70.3481 30 71.1225 30 71.8325 30C72.1552 28.7097 72.5424 27.3549 72.8651 26.0645C73.2523 24.7742 73.6396 23.4839 74.0268 22.1291C74.9949 22 76.0275 21.871 76.9311 21.871C77.8992 21.871 78.8673 21.9355 79.8999 22C78.8027 25.4839 77.7701 28.8387 76.8666 32.1936C75.963 35.5484 75.0595 38.9032 74.0914 42.3871C73.1878 42.3226 72.3488 42.2581 71.4452 42.2581C70.5417 42.2581 69.7027 42.3226 68.7991 42.3871C69.0573 41.3549 69.3154 40.2581 69.509 39.1613C69.7672 38.0645 69.9608 36.9678 70.2835 35.9355C69.5091 35.871 68.7346 35.871 67.831 35.9355C66.9275 35.9355 66.153 36 65.3785 36C65.1204 37.0968 64.7977 38.1936 64.5395 39.2903C64.2813 40.3871 63.9587 41.4839 63.636 42.5807C62.7324 42.5161 61.8288 42.4516 60.9253 42.5162C60.0217 42.5807 59.1182 42.5807 58.2792 42.6452C58.9891 39.3549 59.7636 36 60.6026 32.5807C61.4416 29.1613 62.2806 25.6774 63.3133 22.1291C64.2813 22 65.314 21.871 66.4112 21.871C67.5083 21.742 68.541 21.742 69.5736 21.8065Z" fill="#7A482D"/>
<path d="M88.9355 22.2581C88.6128 23.2258 88.2256 24.3871 87.8383 25.5484C87.4511 26.7742 87.0638 28 86.6766 29.2903C86.2894 30.5807 85.9667 31.8065 85.644 33.0323C85.3213 34.2581 84.9986 35.3548 84.8049 36.3871C84.7404 36.7742 84.6759 37.0968 84.8049 37.2903C84.8695 37.4839 84.9986 37.6774 85.1922 37.8065C85.3858 37.9355 85.5794 38 85.773 38C86.0312 38 86.2248 38 86.4184 38C86.8057 38 87.1929 37.9355 87.4511 37.871C87.7738 37.8065 88.0319 37.6774 88.2255 37.5484C88.4837 37.4194 88.6773 37.1613 88.8064 36.9032C89 36.6452 89.1291 36.3226 89.2582 35.9355C89.5809 34.9678 89.9036 33.9355 90.2908 32.7097C90.6135 31.4839 91.0008 30.2581 91.3235 28.9678C91.6462 27.6774 91.9688 26.4516 92.227 25.2258C92.4852 24 92.7433 22.9032 93.0015 21.871C94.2277 21.8065 95.3249 21.7419 96.293 21.7419C97.2611 21.7419 98.2292 21.8065 99.2618 21.871C99.0037 22.9032 98.681 24.0645 98.3583 25.2258C98.0356 26.4516 97.7129 27.6774 97.3902 28.9032C97.0675 30.129 96.6802 31.4194 96.3575 32.6452C96.0348 33.871 95.6476 35.0323 95.2604 36.129C94.8086 37.6129 94.2277 38.8387 93.6469 39.6774C93.066 40.5807 92.3561 41.2258 91.5171 41.7419C90.6781 42.1936 89.7745 42.5161 88.7419 42.6452C87.7092 42.7742 86.483 42.8387 85.1276 42.8387C84.1596 42.8387 83.3851 42.7742 82.6106 42.5807C81.9007 42.3871 81.2553 42.129 80.739 41.8065C80.1581 41.4194 79.7063 40.9677 79.4482 40.3871C79.19 39.871 79.0609 39.2903 78.9964 38.6452C78.9318 38 78.9964 37.3548 79.1255 36.7097C79.2545 36.0645 79.3836 35.4194 79.5127 34.7742C79.7709 33.6774 80.029 32.5807 80.3517 31.4194C80.6744 30.2581 80.9971 29.0968 81.3198 28C81.6425 26.9032 81.9652 25.8065 82.2879 24.8387C82.6106 23.871 82.8688 22.9678 83.1269 22.1936C84.2241 22.129 85.2567 22.0645 86.2248 22.0645C87.2575 22.129 88.161 22.1936 88.9355 22.2581Z" fill="#7A482D"/>
<path d="M102.231 22.3226C103.457 22.1936 104.619 22.0645 105.587 22.0645C106.619 22.0645 107.652 22.0645 108.685 22.0645C108.685 22.8387 108.749 23.7419 108.814 24.7097C108.878 25.6774 108.943 26.6452 109.072 27.6774C109.136 28.7097 109.265 29.6774 109.33 30.6452C109.394 31.6129 109.459 32.5161 109.524 33.2903C109.911 31.4194 110.363 29.4839 110.943 27.6129C111.46 25.7419 112.041 23.8065 112.621 21.871C113.073 21.8065 113.525 21.7419 114.041 21.7419C114.558 21.6774 115.074 21.6774 115.655 21.6129C116.171 21.6129 116.752 21.6129 117.268 21.6129C117.785 21.6129 118.301 21.6774 118.817 21.7419C117.591 25.1613 116.429 28.6452 115.397 32.129C114.364 35.6129 113.396 39.0323 112.557 42.3871C111.589 42.3226 110.492 42.3871 109.33 42.3871C108.168 42.3871 107.071 42.5161 106.103 42.6452C106.038 42 105.974 41.2903 105.909 40.4516C105.845 39.6129 105.716 38.7742 105.651 37.871C105.587 36.9678 105.458 36.0645 105.393 35.1613C105.329 34.2581 105.199 33.4194 105.135 32.5807C104.554 34.3226 104.102 36 103.65 37.6129C103.199 39.2258 102.811 40.9032 102.424 42.5161C101.456 42.5161 100.617 42.5161 99.7781 42.5161C99.0036 42.5161 98.1001 42.5807 97.1965 42.6452C97.5192 41.0323 97.9065 39.4194 98.2937 37.7419C98.6809 36.0645 99.0682 34.3226 99.5199 32.5807C99.9717 30.8387 100.424 29.1613 100.875 27.4194C101.263 25.6129 101.714 23.9355 102.231 22.3226Z" fill="#7A482D"/>
<path d="M136.501 28.7097C135.92 28.4516 135.339 28.3226 134.629 28.1936C133.919 28.0645 133.145 28 132.371 28C131.338 28 130.241 28.1936 129.144 28.5161C128.046 28.8387 127.078 29.2903 126.175 29.9355C125.271 30.5807 124.561 31.3548 124.045 32.2581C123.529 33.2258 123.335 34.2581 123.4 35.4839C123.464 36.2581 123.787 36.9032 124.368 37.4839C124.948 38.0645 125.723 38.3226 126.756 38.3226C127.336 38.3226 127.853 38.2581 128.305 38.1936C128.756 38.129 129.144 37.9355 129.595 37.6774C129.66 37.4194 129.724 37.0968 129.853 36.7097C129.983 36.3226 130.047 35.871 130.176 35.4194C130.305 34.9678 130.434 34.5161 130.563 34C130.692 33.5484 130.822 33.0968 130.951 32.7097C131.725 32.6452 132.629 32.5807 133.532 32.5161C134.5 32.4516 135.533 32.4516 136.63 32.4516C136.307 33.6129 135.92 34.9032 135.533 36.3226C135.081 37.7419 134.629 39.1613 134.178 40.5807C133.726 40.9032 133.21 41.2258 132.564 41.4839C131.983 41.7419 131.273 42 130.628 42.1936C129.983 42.3871 129.208 42.5807 128.498 42.6452C127.788 42.7097 127.078 42.8387 126.368 42.8387C125.271 42.8387 124.174 42.7097 123.141 42.4516C122.109 42.1936 121.141 41.7419 120.302 41.0968C119.463 40.5161 118.753 39.7419 118.236 38.8387C117.72 37.9355 117.397 36.8387 117.333 35.6129C117.268 33.871 117.526 32.3226 118.107 30.8387C118.688 29.3548 119.592 28.0645 120.624 26.8387C121.721 25.6774 122.948 24.7097 124.368 23.871C125.787 23.0968 127.336 22.5161 128.95 22.129C129.724 21.9355 130.563 21.8065 131.402 21.7419C132.241 21.6774 133.08 21.6129 133.855 21.6129C134.629 21.6129 135.404 21.6774 136.178 21.7419C136.953 21.8065 137.598 21.9355 138.244 22.0645C138.115 22.7097 137.985 23.2903 137.856 23.7419C137.727 24.2581 137.598 24.7097 137.469 25.2258C137.34 25.6774 137.211 26.1936 137.082 26.7097C136.888 27.4194 136.695 28 136.501 28.7097Z" fill="#7A482D"/>
<path d="M136.566 42.5807C137.534 39.2903 138.502 35.9355 139.405 32.5807C140.309 29.2258 141.342 25.8065 142.503 22.3871C142.89 22.2581 143.342 22.1291 143.923 22C144.504 21.871 145.085 21.742 145.73 21.6774C146.376 21.5484 147.021 21.4839 147.731 21.4194C148.441 21.3549 149.086 21.3549 149.667 21.3549C149.99 21.3549 150.377 21.4194 150.764 21.4194C151.152 21.4194 151.603 21.4839 151.991 21.5484C152.442 21.6129 152.83 21.6774 153.281 21.8065C153.733 21.9355 154.12 22.0645 154.508 22.2581C155.282 22.6452 155.927 23.2903 156.444 24.0645C156.96 24.9032 157.218 25.9355 157.218 27.2903C157.218 28.0645 157.089 28.9032 156.831 29.742C156.573 30.5807 156.186 31.3549 155.669 32.1291C155.153 32.9032 154.508 33.5484 153.669 34.1936C152.83 34.7742 151.926 35.2903 150.764 35.6774C150.893 36.0645 151.087 36.4516 151.216 36.9678C151.345 37.4839 151.603 38.0645 151.797 38.6452C151.991 39.2258 152.249 39.871 152.507 40.5161C152.765 41.1613 153.023 41.8065 153.217 42.3871C152.636 42.3871 152.12 42.3871 151.668 42.3871C151.152 42.3871 150.7 42.3871 150.248 42.3871C149.796 42.3871 149.28 42.4516 148.764 42.4516C148.247 42.4516 147.731 42.5161 147.215 42.5807C147.021 42.1291 146.827 41.6129 146.569 41.0968C146.376 40.5807 146.117 40.0645 145.924 39.5484C145.73 39.0323 145.537 38.5161 145.278 38C145.085 37.4839 144.891 37.0323 144.762 36.5807C144.698 36.5807 144.569 36.5807 144.439 36.5807C144.31 36.5807 144.181 36.5807 144.181 36.5161C143.923 37.1613 143.665 37.8065 143.471 38.3226C143.278 38.8387 143.02 39.3549 142.89 39.8065C142.697 40.2581 142.503 40.7097 142.374 41.1613C142.181 41.6129 141.987 42.0645 141.793 42.5161C141.406 42.5161 141.019 42.5161 140.567 42.5161C140.115 42.5161 139.664 42.5161 139.212 42.5161C138.76 42.5161 138.244 42.5161 137.792 42.5807C137.405 42.5161 137.017 42.5161 136.566 42.5807ZM145.537 32.0645C146.376 32.1291 147.215 32.1291 147.989 31.9355C148.764 31.742 149.344 31.4839 149.796 31.0323C150.183 30.7097 150.442 30.2581 150.7 29.742C150.958 29.2258 151.087 28.7097 151.152 28.2581C151.216 27.742 151.087 27.2903 150.893 26.9678C150.7 26.5807 150.248 26.3871 149.667 26.2581C149.344 26.1936 148.893 26.1936 148.441 26.2581C147.989 26.3226 147.537 26.4516 147.021 26.6452C146.763 27.5484 146.505 28.4516 146.247 29.3549C146.053 30.2581 145.795 31.1613 145.537 32.0645Z" fill="#7A482D"/>
<path d="M176.257 21.9355C175.289 23.6774 174.386 25.3549 173.482 26.9678C172.579 28.5807 171.675 30.2581 170.772 31.871C169.868 33.5484 168.964 35.2258 167.996 36.9678C167.028 38.7097 166.06 40.5807 165.028 42.5161C163.995 42.4516 163.027 42.4516 162.123 42.4516C161.22 42.4516 160.316 42.5161 159.477 42.5807C159.864 41.8065 160.252 41.0323 160.639 40.0645C161.091 39.1613 161.542 38.1936 162.059 37.1613C161.865 37.2258 161.607 37.2258 161.284 37.1613C160.962 37.1613 160.703 37.1613 160.574 37.1613C160.51 36.5807 160.381 35.7419 160.187 34.6452C160.058 33.5484 159.929 32.2581 159.8 30.9032C159.671 29.5484 159.542 28 159.413 26.3871C159.283 24.7742 159.219 23.2903 159.154 21.7419C159.606 21.6774 160.123 21.6129 160.703 21.6129C161.22 21.6129 161.801 21.5484 162.381 21.5484C162.962 21.5484 163.479 21.5484 163.995 21.6129C164.511 21.6774 165.028 21.6774 165.479 21.7419C165.415 22.4516 165.35 23.2258 165.35 24C165.35 24.7742 165.286 25.6129 165.286 26.3871C165.286 27.1613 165.286 28 165.35 28.7742C165.35 29.5484 165.415 30.3226 165.479 31.0323C165.867 30.2581 166.254 29.4839 166.641 28.6452C167.028 27.8065 167.48 27.0323 167.867 26.1936C168.254 25.4194 168.642 24.6452 169.029 23.871C169.416 23.1613 169.739 22.4516 170.062 21.871C171.159 21.7419 172.256 21.6129 173.289 21.6129C174.192 21.8065 175.225 21.871 176.257 21.9355Z" fill="#7A482D"/>
<path d="M71.058 67.4193C71.5098 65.7419 71.9615 64.129 72.4133 62.5161C72.8651 60.9032 73.3169 59.2903 73.8332 57.6774C74.285 56.0645 74.8013 54.4516 75.3176 52.7742C75.8339 51.0968 76.4148 49.4193 76.9956 47.6774C77.8992 47.4193 78.9318 47.1613 80.029 47.0322C81.1262 46.8387 82.2233 46.7742 83.1914 46.7097C83.7723 46.7097 84.3531 46.7097 84.934 46.7742C85.5148 46.8387 86.0957 46.9032 86.6766 47.0322C87.2574 47.1613 87.7737 47.4193 88.29 47.6774C88.8064 47.9355 89.1936 48.3226 89.5163 48.7097C89.839 49.0968 90.0971 49.6129 90.2908 50.129C90.4198 50.7097 90.4844 51.2903 90.3553 52C90.2908 52.5806 90.0971 53.1613 89.7745 53.6774C89.4518 54.258 89.0645 54.7742 88.5482 55.2258C88.0319 55.6774 87.5156 56.129 86.8702 56.5161C86.2248 56.9032 85.5794 57.1613 84.934 57.3548C85.5148 57.4193 86.0312 57.5484 86.5475 57.8064C87.0638 58 87.5156 58.3226 87.9028 58.7097C88.29 59.0968 88.5482 59.5484 88.7418 60.0645C88.9354 60.5806 88.9354 61.1613 88.8709 61.8709C88.6773 63.0968 88.161 64.129 87.3865 65.0322C86.612 65.9355 85.5794 66.6451 84.2886 67.0968C83.7723 67.2903 83.1914 67.4839 82.6106 67.6129C82.0297 67.7419 81.4488 67.8709 80.868 67.9355C80.2871 68 79.7063 68.0645 79.19 68.129C78.6736 68.1935 78.1573 68.1935 77.7701 68.1935C76.2211 68.258 74.9304 68.129 73.8332 67.9355C72.6715 67.8064 71.7679 67.6129 71.058 67.4193ZM76.9956 63.6129C77.8346 63.7419 78.5446 63.7419 79.19 63.6774C79.8354 63.6129 80.4162 63.4838 80.868 63.2903C81.3198 63.0968 81.707 62.8387 82.0297 62.4516C82.3524 62.129 82.546 61.7419 82.6751 61.3548C82.8687 60.6451 82.6106 60.0645 81.9006 59.6774C81.1907 59.2903 79.9644 59.2258 78.2864 59.4838C78.0928 60.1935 77.8346 60.9032 77.641 61.5484C77.3829 62.1935 77.1892 62.9032 76.9956 63.6129ZM79.8354 55.5484C81.2552 55.6129 82.3524 55.4839 83.1269 55.0322C83.9014 54.5806 84.4177 53.9355 84.6758 53.1613C84.8049 52.8387 84.8049 52.5161 84.7404 52.258C84.6758 52 84.4822 51.7419 84.224 51.6129C83.9659 51.4193 83.5786 51.3548 83.0623 51.3548C82.546 51.3548 81.9006 51.4193 81.1261 51.6129C80.868 52.258 80.6744 52.9677 80.4808 53.5484C80.2871 54.258 80.029 54.9032 79.8354 55.5484Z" fill="#FCAE00"/>
<path d="M93.7113 67.6774C91.9042 67.5483 90.1616 67.5483 88.5482 67.6774C90.0326 64.3225 91.5815 60.9677 93.195 57.4838C94.8085 54 96.422 50.6451 98.1645 47.2903C99.5199 47.0967 100.875 46.9677 102.101 46.9032C103.328 46.8387 104.554 46.9032 105.845 46.9032C105.909 50.3871 105.909 53.9354 105.974 57.4193C105.974 60.9677 105.909 64.387 105.78 67.8064C104.941 67.7419 104.038 67.7419 103.07 67.7419C102.166 67.7419 101.262 67.8064 100.359 67.8709C100.423 67.2903 100.423 66.6451 100.423 66.0645C100.423 65.4838 100.488 64.8387 100.488 64.258C99.649 64.3225 98.8745 64.3225 98.0355 64.3225C97.1964 64.3225 96.3574 64.3871 95.3248 64.4516C95.0666 64.9677 94.8085 65.4838 94.5503 66C94.2922 66.5806 94.034 67.1612 93.7113 67.6774ZM97.0028 59.4193C97.7128 59.3548 98.4227 59.3548 99.1326 59.3548C99.8426 59.3548 100.553 59.4193 101.327 59.4838C101.327 58.258 101.327 57.0322 101.262 55.7419C101.198 54.4516 101.133 53.2258 101.069 52C100.359 53.2258 99.6489 54.4516 99.0036 55.6774C98.2936 56.9677 97.6482 58.1935 97.0028 59.4193Z" fill="#FCAE00"/>
<path d="M112.492 47.6774C113.719 47.5484 114.88 47.4193 115.848 47.4193C116.881 47.4193 117.914 47.4193 118.946 47.4193C118.946 48.1935 119.011 49.0967 119.075 50.0645C119.14 51.0322 119.204 52 119.334 53.0322C119.398 54.0645 119.527 55.0322 119.592 56C119.656 56.9677 119.721 57.8709 119.785 58.6451C120.173 56.7742 120.624 54.8387 121.205 52.9677C121.722 51.0967 122.302 49.1613 122.883 47.2258C123.335 47.1613 123.787 47.0967 124.303 47.0967C124.819 47.0322 125.336 47.0322 125.917 46.9677C126.433 46.9677 127.014 46.9677 127.53 46.9677C128.046 46.9677 128.563 47.0322 129.079 47.0967C127.853 50.5161 126.691 54 125.658 57.4838C124.626 60.9677 123.658 64.3871 122.819 67.7419C121.851 67.6774 120.753 67.7419 119.592 67.7419C118.43 67.7419 117.333 67.8709 116.365 68C116.3 67.3548 116.236 66.6451 116.171 65.8064C116.107 64.9677 115.977 64.129 115.913 63.2258C115.848 62.3225 115.719 61.4193 115.655 60.5161C115.59 59.6129 115.461 58.7742 115.397 57.9355C114.816 59.6774 114.364 61.3548 113.912 62.9677C113.46 64.5806 113.073 66.1935 112.686 67.8709C111.718 67.8709 110.879 67.8709 110.04 67.8709C109.201 67.8709 108.362 67.9354 107.458 68C107.781 66.3871 108.168 64.7742 108.555 63.0967C108.943 61.4193 109.33 59.6774 109.782 57.9355C110.233 56.1935 110.685 54.5161 111.137 52.7742C111.524 51.0322 111.976 49.3548 112.492 47.6774Z" fill="#FCAE00"/>
<path d="M129.724 67.6774C127.917 67.5483 126.175 67.5483 124.561 67.6774C126.046 64.3225 127.595 60.9677 129.208 57.4838C130.822 54 132.435 50.6451 134.178 47.2903C135.533 47.0967 136.888 46.9677 138.115 46.9032C139.341 46.8387 140.567 46.9032 141.858 46.9032C141.922 50.3871 141.922 53.9354 141.987 57.4193C141.987 60.9677 141.922 64.387 141.793 67.8064C140.954 67.7419 140.051 67.7419 139.083 67.7419C138.179 67.7419 137.276 67.8064 136.372 67.8709C136.437 67.2903 136.437 66.6451 136.437 66.0645C136.437 65.4838 136.501 64.8387 136.501 64.258C135.662 64.3225 134.888 64.3225 134.049 64.3225C133.21 64.3225 132.371 64.3871 131.338 64.4516C131.08 64.9677 130.822 65.4838 130.563 66C130.37 66.5806 130.047 67.1612 129.724 67.6774ZM133.08 59.4193C133.79 59.3548 134.5 59.3548 135.21 59.3548C135.92 59.3548 136.63 59.4193 137.405 59.4838C137.405 58.258 137.405 57.0322 137.34 55.7419C137.276 54.4516 137.211 53.2258 137.146 52C136.437 53.2258 135.727 54.4516 135.081 55.6774C134.371 56.9677 133.726 58.1935 133.08 59.4193Z" fill="#FCAE00"/>
<path d="M148.57 47.6774C149.796 47.5484 150.958 47.4193 151.926 47.4193C152.959 47.4193 153.991 47.4193 155.024 47.4193C155.024 48.1935 155.088 49.0967 155.153 50.0645C155.218 51.0322 155.282 52 155.411 53.0322C155.476 54.0645 155.605 55.0322 155.669 56C155.734 56.9677 155.798 57.8709 155.863 58.6451C156.25 56.7742 156.702 54.8387 157.283 52.9677C157.799 51.0967 158.38 49.1613 158.961 47.2258C159.413 47.1613 159.864 47.0967 160.381 47.0967C160.897 47.0322 161.413 47.0322 161.994 46.9677C162.51 46.9677 163.091 46.9677 163.608 46.9677C164.124 46.9677 164.64 47.0322 165.157 47.0967C163.93 50.5161 162.769 54 161.736 57.4838C160.703 60.9677 159.735 64.3871 158.896 67.7419C157.928 67.6774 156.831 67.7419 155.669 67.7419C154.508 67.7419 153.41 67.8709 152.442 68C152.378 67.3548 152.313 66.6451 152.249 65.8064C152.184 64.9677 152.055 64.129 151.991 63.2258C151.926 62.3225 151.797 61.4193 151.732 60.5161C151.668 59.6129 151.539 58.7742 151.474 57.9355C150.893 59.6774 150.442 61.3548 149.99 62.9677C149.538 64.5806 149.151 66.1935 148.764 67.8709C147.795 67.8709 146.956 67.8709 146.117 67.8709C145.278 67.8709 144.439 67.9354 143.536 68C143.859 66.3871 144.246 64.7742 144.633 63.0967C145.02 61.4193 145.408 59.6774 145.859 57.9355C146.311 56.1935 146.763 54.5161 147.215 52.7742C147.537 51.0322 148.054 49.3548 148.57 47.6774Z" fill="#FCAE00"/>
<path d="M165.802 67.6774C163.995 67.5483 162.252 67.5483 160.639 67.6774C162.123 64.3225 163.672 60.9677 165.286 57.4838C166.899 54 168.513 50.6451 170.255 47.2903C171.611 47.0967 172.966 46.9677 174.192 46.9032C175.418 46.8387 176.645 46.9032 177.935 46.9032C178 50.3871 178 53.9354 178.065 57.4193C178.065 60.9677 178 64.387 177.871 67.8064C177.032 67.7419 176.128 67.7419 175.16 67.7419C174.257 67.7419 173.353 67.8064 172.45 67.8709C172.514 67.2903 172.514 66.6451 172.514 66.0645C172.514 65.4838 172.579 64.8387 172.579 64.258C171.74 64.3225 170.965 64.3225 170.126 64.3225C169.287 64.3225 168.448 64.3871 167.416 64.4516C167.157 64.9677 166.899 65.4838 166.641 66C166.383 66.5806 166.125 67.1612 165.802 67.6774ZM169.094 59.4193C169.803 59.3548 170.513 59.3548 171.223 59.3548C171.933 59.3548 172.643 59.4193 173.418 59.4838C173.418 58.258 173.418 57.0322 173.353 55.7419C173.289 54.4516 173.224 53.2258 173.16 52C172.45 53.2258 171.74 54.4516 171.094 55.6774C170.384 56.9677 169.739 58.1935 169.094 59.4193Z" fill="#FCAE00"/>
</svg>
