<svg width="85" height="14" viewBox="0 0 85 14" fill="none" xmlns="http://www.w3.org/2000/svg">
<path d="M69.7999 14.0001C65.7999 14.0001 63.7999 10.5001 61.9999 7.50006C60.3999 4.70006 58.8999 2.00006 55.9999 2.00006C53.0999 2.00006 51.5999 4.70006 49.9999 7.50006C48.2999 10.5001 46.2999 14.0001 42.2999 14.0001C38.2999 14.0001 36.2999 10.5001 34.5999 7.50006C32.9999 4.70006 31.3999 2.00006 28.5999 2.00006C25.6999 2.00006 24.1999 4.70006 22.5999 7.50006C20.8999 10.5001 18.8999 14.0001 14.8999 14.0001C10.8999 14.0001 8.89994 10.5001 7.19994 7.50006C5.39994 4.70006 3.89994 2.00006 0.999939 2.00006C0.399939 2.00006 -6.10352e-05 1.60006 -6.10352e-05 1.00006C-6.10352e-05 0.400061 0.399939 6.10352e-05 0.999939 6.10352e-05C4.99994 6.10352e-05 6.99994 3.50006 8.69994 6.50006C10.2999 9.30006 11.8999 12.0001 14.6999 12.0001C17.4999 12.0001 19.0999 9.30006 20.6999 6.50006C22.3999 3.50006 24.3999 6.10352e-05 28.3999 6.10352e-05C32.3999 6.10352e-05 34.3999 3.50006 36.1999 6.50006C37.7999 9.30006 39.3999 12.0001 42.1999 12.0001C44.9999 12.0001 46.5999 9.30006 48.1999 6.50006C49.9999 3.50006 51.9999 6.10352e-05 55.9999 6.10352e-05C59.9999 6.10352e-05 61.9999 3.50006 63.7999 6.50006C65.3999 9.30006 66.9999 12.0001 69.7999 12.0001C72.5999 12.0001 74.1999 9.30006 75.7999 6.50006C77.4999 3.50006 79.4999 6.10352e-05 83.5999 6.10352e-05C84.1999 6.10352e-05 84.5999 0.400061 84.5999 1.00006C84.5999 1.60006 84.1999 2.00006 83.5999 2.00006C80.6999 2.00006 79.1999 4.70006 77.5999 7.50006C75.7999 10.5001 73.7999 14.0001 69.7999 14.0001Z" fill="white"/>
</svg>
