<?xml version="1.0" encoding="utf-8"?>
<!-- Generator: Adobe Illustrator 24.2.1, SVG Export Plug-In . SVG Version: 6.00 Build 0)  -->
<svg version="1.1" id="Layer_1" xmlns="http://www.w3.org/2000/svg" xmlns:xlink="http://www.w3.org/1999/xlink" x="0px" y="0px"
	 viewBox="0 0 85 14" style="enable-background:new 0 0 85 14;" xml:space="preserve">
<style type="text/css">
	.st0{fill:#7A482D;}
</style>
<path class="st0" d="M69.8,14c-4,0-6-3.5-7.8-6.5C60.4,4.7,58.9,2,56,2s-4.4,2.7-6,5.5c-1.7,3-3.7,6.5-7.7,6.5s-6-3.5-7.7-6.5
	C33,4.7,31.4,2,28.6,2c-2.9,0-4.4,2.7-6,5.5c-1.7,3-3.7,6.5-7.7,6.5s-6-3.5-7.7-6.5C5.4,4.7,3.9,2,1,2C0.4,2,0,1.6,0,1s0.4-1,1-1
	c4,0,6,3.5,7.7,6.5c1.6,2.8,3.2,5.5,6,5.5s4.4-2.7,6-5.5c1.7-3,3.7-6.5,7.7-6.5s6,3.5,7.8,6.5c1.6,2.8,3.2,5.5,6,5.5s4.4-2.7,6-5.5
	C50,3.5,52,0,56,0s6,3.5,7.8,6.5c1.6,2.8,3.2,5.5,6,5.5c2.8,0,4.4-2.7,6-5.5c1.7-3,3.7-6.5,7.8-6.5c0.6,0,1,0.4,1,1s-0.4,1-1,1
	c-2.9,0-4.4,2.7-6,5.5C75.8,10.5,73.8,14,69.8,14z"/>
</svg>
