<svg width="111" height="58" viewBox="0 0 111 58" fill="none" xmlns="http://www.w3.org/2000/svg">
<path d="M81.4199 10.2388C83.7363 14.1538 86.3558 18.5812 91.4734 18.5812C96.591 18.5812 99.2106 14.1538 101.527 10.2388L101.695 9.95423L101.786 9.7942C103.849 6.13578 105.813 2.65446 109.558 2.65446C110.345 2.65446 110.869 2.12357 110.869 1.32723C110.869 0.530894 110.345 0 109.558 0C104.185 0 101.564 4.64531 99.3365 8.627C97.2397 12.3432 95.1429 15.9268 91.4734 15.9268C87.804 15.9268 85.7072 12.3432 83.6104 8.627L83.442 8.34243C81.1256 4.42742 78.5061 0 73.3884 0C68.2708 0 65.6513 4.42743 63.3349 8.34246L63.1665 8.627C61.0697 12.3432 58.9729 15.9268 55.3034 15.9268C51.634 15.9268 49.5372 12.3432 47.4404 8.627L47.272 8.34246C44.9556 4.42743 42.336 0 37.2184 0C31.9764 0 29.3554 4.64531 27.1275 8.627C25.0307 12.3432 22.9339 15.9268 19.2645 15.9268C15.595 15.9268 13.4982 12.3432 11.4014 8.627C9.17355 4.64531 6.55254 0 1.31051 0C0.524203 0 0 0.530894 0 1.32723C0 2.12357 0.524203 2.65446 1.31051 2.65446C4.84338 2.65446 6.79081 5.75109 8.94243 9.17238C9.10541 9.43154 9.26956 9.69256 9.43566 9.95423C11.6635 13.9359 14.2845 18.5812 19.5266 18.5812C24.7686 18.5812 27.3896 13.9359 29.6175 9.95423L29.7078 9.79419C31.7711 6.13578 33.7346 2.65446 37.4805 2.65446C41.1499 2.65446 43.2468 6.23798 45.3436 9.95423C47.5714 13.9359 50.1924 18.5812 55.4345 18.5812C60.6765 18.5812 63.2975 13.9359 65.5254 9.95423L65.6157 9.7942C67.679 6.13578 69.6425 2.65446 73.3884 2.65446C77.1343 2.65446 79.0978 6.13578 81.1612 9.7942L81.2515 9.95423L81.4199 10.2388Z" fill="#DDED7C"/>
<path d="M81.4199 23.3783C83.7363 27.2933 86.3558 31.7208 91.4734 31.7208C96.4605 31.7208 99.0753 27.5164 101.462 23.6788C101.584 23.4827 101.705 23.2875 101.826 23.0938L101.917 22.9338C103.98 19.2754 105.944 15.794 109.689 15.794C110.476 15.794 111 15.2631 111 14.4668C111 13.6705 110.476 13.1396 109.689 13.1396C104.316 13.1396 101.695 17.7849 99.4675 21.7666C97.3707 25.4828 95.2739 29.0663 91.6045 29.0663C87.9351 29.0663 85.8383 25.4828 83.7414 21.7666L83.573 21.4821C81.2567 17.567 78.6371 13.1396 73.5195 13.1396C68.2775 13.1396 65.6564 17.7849 63.4286 21.7666C61.3318 25.4828 59.2349 29.0663 55.5655 29.0663C51.8961 29.0663 49.7993 25.4828 47.7025 21.7666L47.5341 21.482C45.2177 17.567 42.5981 13.1396 37.4805 13.1396C32.2385 13.1396 29.6175 17.7849 27.3896 21.7666C25.2928 25.4828 23.196 29.0663 19.5266 29.0663C15.8571 29.0663 13.7603 25.4828 11.6635 21.7666C9.43565 17.7849 6.81464 13.1396 1.57261 13.1396C0.786301 13.1396 0.262098 13.6705 0.262098 14.4668C0.262098 15.2631 0.786301 15.794 1.57261 15.794C5.24203 15.794 7.33884 19.3776 9.43565 23.0938C11.6635 27.0755 14.2845 31.7208 19.5266 31.7208C24.7686 31.7208 27.3896 27.0755 29.6175 23.0938L29.7077 22.9338C31.7711 19.2754 33.7346 15.794 37.4805 15.794C41.1499 15.794 43.2467 19.3776 45.3436 23.0938C47.5714 27.0755 50.1924 31.7208 55.4345 31.7208C60.6765 31.7208 63.2975 27.0755 65.5254 23.0938L65.6157 22.9338C67.679 19.2754 69.6425 15.794 73.3884 15.794C77.0579 15.794 79.1547 19.3776 81.2515 23.0938L81.4199 23.3783Z" fill="#DDED7C"/>
<path d="M91.4734 44.8604C86.3558 44.8604 83.7363 40.4329 81.4199 36.5179L81.2515 36.2334C79.1547 32.5171 77.0579 28.9336 73.3884 28.9336C69.6425 28.9336 67.679 32.4149 65.6157 36.0734L65.5254 36.2334C63.2975 40.2151 60.6765 44.8604 55.4345 44.8604C50.1924 44.8604 47.5714 40.2151 45.3436 36.2334C43.2467 32.5171 41.1499 28.9336 37.4805 28.9336C33.7346 28.9336 31.7711 32.4149 29.7077 36.0733L29.6175 36.2334C27.3896 40.2151 24.7686 44.8604 19.5266 44.8604C14.2845 44.8604 11.6635 40.2151 9.43565 36.2334C7.33884 32.5171 5.24203 28.9336 1.57261 28.9336C0.786301 28.9336 0.262098 28.4027 0.262098 27.6064C0.262098 26.81 0.786301 26.2792 1.57261 26.2792C6.81464 26.2792 9.43565 30.9245 11.6635 34.9062C13.7603 38.6224 15.8571 42.2059 19.5266 42.2059C23.196 42.2059 25.2928 38.6224 27.3896 34.9062C29.6175 30.9245 32.2385 26.2792 37.4805 26.2792C42.5981 26.2792 45.2177 30.7066 47.5341 34.6216L47.7025 34.9062C49.7993 38.6224 51.8961 42.2059 55.5655 42.2059C59.2349 42.2059 61.3318 38.6224 63.4286 34.9062C65.6564 30.9245 68.2775 26.2792 73.5195 26.2792C78.6371 26.2792 81.2567 30.7066 83.573 34.6216L83.7414 34.9062C85.8383 38.6224 87.9351 42.2059 91.6045 42.2059C95.2739 42.2059 97.3707 38.6224 99.4675 34.9062C101.695 30.9245 104.316 26.2792 109.689 26.2792C110.476 26.2792 111 26.81 111 27.6064C111 28.4027 110.476 28.9336 109.689 28.9336C105.944 28.9336 103.98 32.4149 101.917 36.0734L101.826 36.2334C101.705 36.427 101.584 36.6222 101.462 36.8184C99.0753 40.6559 96.4605 44.8604 91.4734 44.8604Z" fill="#DDED7C"/>
<path d="M81.4199 49.6575C83.7363 53.5725 86.3558 58 91.4734 58C96.4605 58 99.0753 53.7955 101.462 49.958C101.584 49.7619 101.705 49.5666 101.826 49.373L101.917 49.213C103.98 45.5546 105.944 42.0732 109.689 42.0732C110.476 42.0732 111 41.5423 111 40.746C111 39.9497 110.476 39.4188 109.689 39.4188C104.316 39.4188 101.695 44.0641 99.4675 48.0458C97.3707 51.762 95.2739 55.3455 91.6045 55.3455C87.9351 55.3455 85.8383 51.762 83.7414 48.0458C83.6855 47.9513 83.6293 47.8564 83.573 47.7612C81.2567 43.8462 78.6371 39.4188 73.5195 39.4188C68.2775 39.4188 65.6564 44.0641 63.4286 48.0458C61.3318 51.762 59.2349 55.3455 55.5655 55.3455C51.8961 55.3455 49.7993 51.762 47.7025 48.0458C47.6465 47.9513 47.5904 47.8564 47.5341 47.7612C45.2177 43.8462 42.5981 39.4188 37.4805 39.4188C32.2385 39.4188 29.6175 44.0641 27.3896 48.0458C25.2928 51.762 23.196 55.3455 19.5266 55.3455C15.8571 55.3455 13.7603 51.762 11.6635 48.0458C9.43565 44.0641 6.81464 39.4188 1.57261 39.4188C0.786301 39.4188 0.262098 39.9497 0.262098 40.746C0.262098 41.5423 0.786301 42.0732 1.57261 42.0732C5.24203 42.0732 7.33884 45.6567 9.43565 49.373C11.6635 53.3547 14.2845 58 19.5266 58C24.7686 58 27.3896 53.3547 29.6175 49.373L29.7077 49.213C31.7711 45.5545 33.7346 42.0732 37.4805 42.0732C41.1499 42.0732 43.2467 45.6567 45.3436 49.373C47.5714 53.3547 50.1924 58 55.4345 58C60.6765 58 63.2975 53.3547 65.5254 49.373L65.6157 49.213C67.679 45.5546 69.6425 42.0732 73.3884 42.0732C77.0579 42.0732 79.1547 45.6567 81.2515 49.373C81.3075 49.4675 81.3636 49.5624 81.4199 49.6575Z" fill="#DDED7C"/>
</svg>
