<svg width="85" height="14" viewBox="0 0 85 14" fill="none" xmlns="http://www.w3.org/2000/svg">
<path d="M69.8 14C65.8 14 63.8 10.5 62 7.5C60.4 4.7 58.9 2 56 2C53.1 2 51.6 4.7 50 7.5C48.3 10.5 46.3 14 42.3 14C38.3 14 36.3 10.5 34.6 7.5C33 4.7 31.4 2 28.6 2C25.7 2 24.2 4.7 22.6 7.5C20.9 10.5 18.9 14 14.9 14C10.9 14 8.9 10.5 7.2 7.5C5.4 4.7 3.9 2 1 2C0.4 2 0 1.6 0 1C0 0.4 0.4 0 1 0C5 0 7 3.5 8.7 6.5C10.3 9.3 11.9 12 14.7 12C17.5 12 19.1 9.3 20.7 6.5C22.4 3.5 24.4 0 28.4 0C32.4 0 34.4 3.5 36.2 6.5C37.8 9.3 39.4 12 42.2 12C45 12 46.6 9.3 48.2 6.5C50 3.5 52 0 56 0C60 0 62 3.5 63.8 6.5C65.4 9.3 67 12 69.8 12C72.6 12 74.2 9.3 75.8 6.5C77.5 3.5 79.5 0 83.6 0C84.2 0 84.6 0.4 84.6 1C84.6 1.6 84.2 2 83.6 2C80.7 2 79.2 4.7 77.6 7.5C75.8 10.5 73.8 14 69.8 14Z" fill="#FED262"/>
</svg>
