<svg width="250" height="83" viewBox="0 0 250 83" fill="none" xmlns="http://www.w3.org/2000/svg">
<g filter="url(#filter0_i)">
<path d="M223.099 67.7614C211.886 57.3434 197.042 43.5523 148.841 39.8261C120.478 37.6334 98.9904 28.5384 77.8559 19.5928C54.6098 9.7534 31.7907 0.0947733 0.719058 0.000803252C0.477741 7.07801e-05 0.238071 -0.00017341 1.83423e-05 4.01642e-05L1.52588e-05 82.9999L249.798 83C245.103 82.1508 238.278 79.7993 230.811 74.3891C228.183 72.4845 225.742 70.2166 223.099 67.7614Z" fill="#FCAE00"/>
</g>
<g filter="url(#filter1_i)">
<path d="M-1.52588e-05 83L204.308 83C200.137 82.1498 194.073 79.7954 187.44 74.3787C185.105 72.4718 182.936 70.2011 180.589 67.7429C170.627 57.3124 157.44 43.5045 114.619 39.7738C89.4217 37.5784 70.3326 28.4724 51.5571 19.516C35.375 11.7967 19.4259 4.18854 -1.22203e-05 1.21168L-1.52588e-05 83Z" fill="#FFCE3D"/>
</g>
<defs>
<filter id="filter0_i" x="0" y="-8" width="253.798" height="91" filterUnits="userSpaceOnUse" color-interpolation-filters="sRGB">
<feFlood flood-opacity="0" result="BackgroundImageFix"/>
<feBlend mode="normal" in="SourceGraphic" in2="BackgroundImageFix" result="shape"/>
<feColorMatrix in="SourceAlpha" type="matrix" values="0 0 0 0 0 0 0 0 0 0 0 0 0 0 0 0 0 0 127 0" result="hardAlpha"/>
<feOffset dx="4" dy="-8"/>
<feGaussianBlur stdDeviation="4"/>
<feComposite in2="hardAlpha" operator="arithmetic" k2="-1" k3="1"/>
<feColorMatrix type="matrix" values="0 0 0 0 0.478431 0 0 0 0 0.282353 0 0 0 0 0.176471 0 0 0 0.1 0"/>
<feBlend mode="normal" in2="shape" result="effect1_innerShadow"/>
</filter>
<filter id="filter1_i" x="0" y="-6.78833" width="208.308" height="89.7883" filterUnits="userSpaceOnUse" color-interpolation-filters="sRGB">
<feFlood flood-opacity="0" result="BackgroundImageFix"/>
<feBlend mode="normal" in="SourceGraphic" in2="BackgroundImageFix" result="shape"/>
<feColorMatrix in="SourceAlpha" type="matrix" values="0 0 0 0 0 0 0 0 0 0 0 0 0 0 0 0 0 0 127 0" result="hardAlpha"/>
<feOffset dx="4" dy="-8"/>
<feGaussianBlur stdDeviation="4"/>
<feComposite in2="hardAlpha" operator="arithmetic" k2="-1" k3="1"/>
<feColorMatrix type="matrix" values="0 0 0 0 0.478431 0 0 0 0 0.282353 0 0 0 0 0.176471 0 0 0 0.1 0"/>
<feBlend mode="normal" in2="shape" result="effect1_innerShadow"/>
</filter>
</defs>
</svg>
