<svg width="85" height="14" viewBox="0 0 85 14" fill="none" xmlns="http://www.w3.org/2000/svg">
<path d="M69.8002 14C65.8002 14 63.8002 10.5 62.0002 7.5C60.4002 4.7 58.9002 2 56.0002 2C53.1002 2 51.6002 4.7 50.0002 7.5C48.3002 10.5 46.3002 14 42.3002 14C38.3002 14 36.3002 10.5 34.6002 7.5C33.0002 4.7 31.4002 2 28.6002 2C25.7002 2 24.2002 4.7 22.6002 7.5C20.9002 10.5 18.9002 14 14.9002 14C10.9002 14 8.90024 10.5 7.20024 7.5C5.40024 4.7 3.90024 2 1.00024 2C0.400244 2 0.000244141 1.6 0.000244141 1C0.000244141 0.4 0.400244 0 1.00024 0C5.00024 0 7.00024 3.5 8.70024 6.5C10.3002 9.3 11.9002 12 14.7002 12C17.5002 12 19.1002 9.3 20.7002 6.5C22.4002 3.5 24.4002 0 28.4002 0C32.4002 0 34.4002 3.5 36.2002 6.5C37.8002 9.3 39.4002 12 42.2002 12C45.0002 12 46.6002 9.3 48.2002 6.5C50.0002 3.5 52.0002 0 56.0002 0C60.0002 0 62.0002 3.5 63.8002 6.5C65.4002 9.3 67.0002 12 69.8002 12C72.6003 12 74.2002 9.3 75.8002 6.5C77.5002 3.5 79.5002 0 83.6002 0C84.2002 0 84.6002 0.4 84.6002 1C84.6002 1.6 84.2002 2 83.6002 2C80.7002 2 79.2002 4.7 77.6002 7.5C75.8002 10.5 73.8002 14 69.8002 14Z" fill="#DDED7C"/>
</svg>
